<mxfile host="65bd71144e">
    <diagram id="bO6eZtXNI2s2oC1chRxl" name="Page-1">
        <mxGraphModel dx="746" dy="308" grid="1" gridSize="10" guides="1" tooltips="1" connect="1" arrows="1" fold="1" page="1" pageScale="1" pageWidth="850" pageHeight="1100" math="0" shadow="0">
            <root>
                <mxCell id="0"/>
                <mxCell id="1" parent="0"/>
                <mxCell id="2" value="" style="shape=image;verticalLabelPosition=bottom;labelBackgroundColor=default;verticalAlign=top;aspect=fixed;imageAspect=0;image=data:image/jpeg,/9j/4AAQSkZJRgABAQAAAQABAAD/2wCEAAYGBgYHBgcICAcKCwoLCg8ODAwODxYQERAREBYiFRkVFRkVIh4kHhweJB42KiYmKjY+NDI0PkxERExfWl98fKcBBgYGBgcGBwgIBwoLCgsKDw4MDA4PFhAREBEQFiIVGRUVGRUiHiQeHB4kHjYqJiYqNj40MjQ+TERETF9aX3x8p//CABEIAmAGKgMBIgACEQEDEQH/xAAtAAADAQEBAAAAAAAAAAAAAAAAAQIDBAUBAQEBAAAAAAAAAAAAAAAAAAABAv/aAAwDAQACEAMQAAAC9ACAAAABCQxgBNSNpgATU0AARSGwAAE0UAABFTYAAmiamwACLksTAAUXBoAABNTQAAAZ3NEjQS0agAAKNMy2AAEVNDAATM7ixgBnpmWAAAZ6ZmgAAGdxoAAAGdxoIaDPTM0AAAM9ILAAAz0z0ENAATcWAARcFgAIEKgGCGGdKyRyONIGUyHQZtsh0EzYJlElBE6QUUEqghuiCmZrWRNskoIZRJQKbQDBDCLmgAAAABgAAAAJolzQwAmpG0wBCqLAAJqSgAaAQFAAARcUMAE0TcWAARcFgA0xZ6ZmjQMAi4sAAAM7z0EqCJ0zNWmAAZa5mgAAEXnoAAAGdxoAAZ6ZlgAAGekFgAAZ6Z6AAABlrlqIaDPTM0YCGBlpkaMAAM9IsE0Awz0iwACLzNABAE0mMAACLixTcjmpKYAAS1QJhM0h1NAAKLg0QADIuaE0wTkoAACaTAAE5KAAAikxgAAAAwAAAAE0RSRTgKl89dBjsIZEUUSUyJ0kCwhGhmtAl0zM0DHQogsILRlZZmaBnG8iLCHQROsCKBGgZWqJWgSrDG1oZlhEbZlKwksJjSCiglWGNlElhm6DLRUSUE57QBTIKCY1goaBoIuLG4CyAWmVFEhWdQavMNMzmOqJo1JRZDFUMslFkAXmy1IXDzNiAsgGSGhmyyALzZakKkk1ICzNhWbNFIUkiqzZZDKzeZuZhoQDrKxkMuRFksYgVZ2MTCagsAACaiwAAAABoBiYCBoCRTUFxZ0c3TyB1cXaBlrmzU0MAIvMjDOyPR8b2BgFAAATU0AAJoVTQABFyUAAARUkkSdTTM9M9AAAAz0z0EAEXBoJgAGdwaAAAZ3NDRJlUdBF56AAGemZoJgAGemRqCGgJvOwYAAZ6Z6AALO4LnAjfijVe2bzs0AAAi4oaJKEyNM9AADPSCwAEKiRLaYAEXFDCQ4Bl9nl+mNgS5oGAS0DVACCNMywABktMAAmkMGSUiKKJKCZ0kCggsM9IoYAAAAAAAAANARF1XJvqBFxGe4UiXCuKGAKak58fRDl6Ei3LG0DBE3FgACchU0AAReZoCGIBOTniuY7OmaM9ctBgAAReeggAz0zNABgh53maiBpoi89Aiwi8KDXLUAAz0yNGAABnpkaADEzO4sYAAGemegIQRpnGa6cTi7XoPPTKtQAAIqbEqkYBNxYABFwWAIAkTKaYAGdxoEsPMXTQdWegAEVNDBE5aecelWegs1idk1I3HOdYBNTQCYTSG0wAJqaAAJqSgAAIqaGAAAAAAAAAACM26ILZE6SBTILRnRZmaBmtYBtkqwzZQimZugilZBYTOkiHRm7CZ0gCwhWEK0TO4QWGOk6ElhnVBlSslWEzpmUUElMzjbMZYSrDKloQWEFhlS0ILCJ1gCwhaImNYGrIkoMqLqSgksMdJ0IVkROs0iyMyyoy6MxlhJaMrLIWgZmiM3VGbsInWALDM0Rk7ZDoJKDO1RJQRh1QToANBLTKEhxQTpmyyGVDktCLJAcMpwypEW4CyUFRRRIVJJoSFEAVFjAAENAMAAAABNEXFg0AmihAAE1FjEwzuC2mABFxQ2gaAm87GIHNQU0wACLzNABDQpqDRoBgZ6Z6A0DAMtc9BABnpmaAAAGemZoIGAZ6Z2MAAIz0y1oAlM9M00EDQBnpkagAAReelDTgAM7z0oAhRpkagAALPTOtGgYBF5aDABNE3FgAGekFgAAsiaNoGCI0ihgBFwUDAAhgMAACamgaBxUlAAARSY2gE5KaYAEuaGAE1I2mABFTQNAAAANMAAABAiNMrKJCpmTYzDRQiryZoSi4JNXCNDMHWbNDMNFAO8aNDNlyoNnmGhmGmbwOogLUIuEjZ5I1eYLXGjQgLeYF4WaGbLzINyAszRrmQbEhZmC0xstwRZDI0x0LIC8qzrYkKJIrHTM2JChBnrloMSKebI1x1GAGWuVaiIYmKLzrUENNGemegxMAkV5aDRJUVJYA0EqQWUArE0zvPQYAZ6QWAABJLKaBoQqixiAmoLAAAmpoAAmpKAGAZ3nZQgc1JQAJhFRYAxAAAMQMAAQAjOlYhhKaLBkq5JuLBphF5Gj4ug2EE3nYwBMRGmegABF5lsABi8zt5zuIsOfo4DtVSVydfEdwBnlfOd4mABnpnYxA87zNQQwIMtcq0HMMGZ3m6sMY3QLlplFnSBKRnlZ2IYlSlmdM7KKJYdCZWrJnSDk6vO9Osst+U7HTjDJlbGjjCFpVTtAY9PnG3TOhlz68R6RYRj0+cdOqonj6OM7L1gHQSURmUUKwh0GVFkFhOe0iLCDRGL0CHYZzujGyyDRERtA1YQWGFliVhnO0AUyC0ZUUJ0EzohNglQRcWAAAAAAAMAExTSMtctBphM0imA0BGWqM5yZ28PdzjzA7TPQi89BgAmiLiwAHlrmWwBpnDh6XEunWmmXH1cJ09GGxHNeZ0dWGxwEdZj38XYMTM7z0AAMtcjVohiRya57Vp5/bnGuiDzuzi9Go5erI6QI8/r4vQV47YmWvP0GwmAAZa5GoABJGnN0pxZ61a47eFOfrz7yOcqOXvx0rFaIy9Dk64njrSuS571xzXUeZ28nqIcj1OVz3mfLVHLrl6ZedxFgAAsPz/Qpvn6AUUk3noMAJuCgAGhADGAmEXnoAAo0zLAAEReVliYTUlAAMIpMYATUjAGmGdzQNAAAAAANMEwU1JnpjRqZhamTZ5o1WYRvxJO5eY19GfI2PUw5kbduNivHQt5hooBaZUW8kbZqDoM0VfHua5ODczRpOWZ0zyQeiuHpN3hQoqy8o5zTuxoWmVFmaNc1JuQRZz6GmVZ1vAFkEZ74XWhkRqZMnXDStDMh4a89a68nUWZkaZOK3MyNMyDPq4ta6TJxoZgtcLrRSRpmZ1GtI0eMxrzXNb3kzJ6Bh1Y0GWzCoQY6aGHVGA9cqNyCLIAcOtCAshBphRq8maQoNnmGhCKIRsZhoZsLxssgLzcGpLGIM2mW5Y0IoTGIE4ooQOXJQmMQRcUMAAABQwKGgaaBNGdxoAMlNFghpolVRGHUHlb9aJ2AACNM9BADQEXFgMCLzNBMyNcCuXSjmXpC+fr2ByVrgnNGuyydrTz66dDl6m4EKpuLACDPTOtAcYmqMp0yNUkKOiziOmznOjjUroxJutk5zoF5TpzLYANBnpkaiYJhk3aYLoF5zoE5L00MDoDGOnMh7Bk9Ayz3isZ7OSNDHQi9NDnraCBomp0MdNmEaZGgAAKgLGACYRc0AARcFMAAEmigAAIuaEMCagoYIYQ1QiglXIDYlaIoYlTInWAKCSgztMYAAgAhgUNA00E1JGmegNAk0WACaJuKI5HuGnPuWwAAz0iwAAETcWMAM9MzQTAAMtcjVMlQysZOdNd6cJgZa5agwBNEaZ6UAQZ6ZGoAAh5a4mwAAGdxYc3SHH0aC5a5aoAKZ6ZpoAAmplrmVQAAZ3GiAAAEXnoMAM9MzQAEwmLitODvyjLc0Mdc7picCaJvPQAAz0irAgaBJqqAAAi4sAAjSChMABSSaNMACKiwaYpqDQABozqaKAFNwUwBNCaY2mEXIwATRLVA0xDQAQwKGgYgJqTK1YlYZq0BYSrRDdHHj04nSo2GWzI1DC3RBbMzRGdFkFhnO2Yy2QrCI3zGrCI288gTO5mhldBhoWQWEGiMLujM0IzjfKqKcZu0TntFNaIh0GTKJI5zrKZjrNklBMa5lFAgIM7mraIYkTploMkKJCNsbq1LKzqDUgLMwvPhD0zDSLICdMbqyHFJINMXWpkGuLk3ICyAqRGqgLIZGuNGhmy4JNHAWQDhwbPMNDMC8qNCAvK8zV5ssgFeVGhAaQkaPNlqUNyFvMNJSLIC1KCs9BtAAABDAoAAAJqBXGggBIRYmOakKmgTRitpLaBgGemdjABNEaRYABnpmaAAwDLXM0AlEBzl1ZYEABnrjrTEQ5aCosABZ651oIhgBnpkaiYJhi1nUa1xS+kTSZ6ZagAplpCaAAAqjTNNAFADO89EYAAGWuelAEGemZoAAM5Wsa16pqBMMtctKYnBNSFRYJgZ6Z1oBAAKamrAAAz0iwACLgppgAKKg1EwAIvOigAz0gpoGJktMYATUFOaGIEIKEDlobihiCKmhgAAAEMRTEwAFNSTploNCEmFOWNORuaGgFNQaAAAReegAAORVFg0wz0xNgBoYovM0aJQAyuNLBhAAZa5aUwIJqB3nYxA8tM60AhiB5aZGoAEsiK0OWexqAkz0y1AAM9MjVoGApnpkmoCtAZ6Z6IAAAZa5a0AQZ6ZmgANM5M+7E2QwAMtctaAIJqAuKAGLPTOtROAAU1NWDEARedjACLgppgAKLzNQAEGdRZTQOagoTByxNMYAZ6QFzQJhDEMYE1INMBoi4ooTAAAIAKAAACakxosgsMy0BYQtZIqqM1qGU7QI0ZkahhotDM0CFojKzQyegYraBGjMzQMs+nMa0DJ6Bz27IWoZmiMLdma2DGOiTOnZKsiI3zoNAzNAzy6cxGoZLYjm0NKhaBkakYUa1mtAzjbMbpklkZxvnTLcZPQMKNKzWpGZoHPotazNCM8+jOmaEZPQM8t86bsiDQOfWdazWpGc7RWdVRmaBnn0ZgaBmaBmtJGrCCwx0VkFhE7QJ0EqwiNoGUGZojG1ZLpkRtAlozMsM6bE2yFojN2yFoGRYS6ZE6IhtkLRGWsWUAAAAQAUAAAEtGdxYCBAFgwmpC4sABRUmgmABnpnoAA5qSdM9AESmemVmrTUADPTJNQJQAy0z0sAJWAZa47WAnKpuEVzQDBZ641sBAAGWuRqAABlpF0ASgBjtloNAGWuSagKwAy1ys1AlYmZaZ6IAKAJnploMAM9MjYTAAnPbGtWnAAZaZ6UwIIuAqaAAIvOtGnAATNTVtMBBF56DEwi4KcsYged5mgAAGWkWMAIvMtyxiZNTQwAQgqWMTJTk0EDloTTAAz0zsoAAAAhNFMABMSaM7xZoc7NlIbPJmkqS6w0LICpUmzhGhALTGy3mGkqC6yoshlZVmbmdFOAvNwbEkUSlnTG7LEookI1w1qiSLgiqvKi3jcXjedbkOKJY86zNiQoQZaZaVQiGkGeuG1MlxWV51qRUUQysrxroJJaJCNMtLKJcMQZ6ZaVQnBnpkauAollY6Z1qJwNBnplrQ0Q5chUXQBBnpnWjQNBClzWgmABnplqDTCKkbllCBZa5GrTAETWdlCYZ3I2mDAmpZQgE0KpoBApaLEDQgqKATIuLG0wAAAlpjEwAEOTMIOLXm3Tra5l7GmOXI65eoBcx0izNlz2bHD3kUrEUETpAm8TWc8joFidZy9Ym2sxrmlqhYdZIr5pOtXmc3VlqTeHSSVzm0Zs0z25jW7URL4j0CkYaY9Qs7467Hh0xK0DGiiS0Q7DDSdagsljPbOxuiJKZnG0UOnLmaCY0rpFOXM0DG50sktyxntmhNsh2ETrmUWELQMaWtZuyM1rNSyzN2RnG+VUUErQM51kk1RBbMadmbsInWSW6MzQIjWRFshWGTqjM1DJbSQ6ZBoGToEWEFohlEGiM1YIsJnWTN0zN2GWsWNpgAAAk2IYJgE1JnjtJ5PqZhpydcHRzdOQR1ZHF3Y9RxbLoF5vo4nT5/oc5n1xoRplqAATWZeWjPN6elmfJ3ZkbMGApFSmghVydmCc+xuVzdPOu/J1eenR08vXE8Ho4HB32zPm0zN+nPQ5Y6szfDfEz6aDltc5p2cfWMYZ3noACgBlrlqgALPXMsBQAM9MzQTGAZXFowFaBM9MtBkMrK8jVpjAUz0yTUBRgZaZ6WMCUmpRXnoAAZa5VYmNoFNSWAAgVRRSAcXA3LGJhneZqJgIJvPQYAZ3mOpobmiQYwQIQVFACBCLcsacg5oACamhtMAAAhMKAAACaRjpkyzNFzIbGTNZhGl40aEIqZDYhGhmw0wssgLzJNXmyzMLzeR0PNlvIXSZlNzINTIFty7GkIWuTWkNsbNCFGmTitHAaGYaZqTYhxoZheN51vjTiqzBa42WZhoZgtefStDNxeTitjMjRQjSFFbvGpdHkItMXWryDVZMLxspSovMmtqycavINMnnXQQo1MnS0xs0MxdFMpWmFGjzRpmQauA0M2VKRo4CiAbyo0ebLhIdZs0eTLycGzzZRIF40akBeZBpWLNXANwGilFEoemVFqUNSGjgNJlFVDLUgVlqNpgAAEJopiBiBoDG4sACU5NBMEANMYBKYUNAARpnoAAZ3mW1QJgs9MjVyxgKkCWDVJpMtM9BjAAM9MtQacLPTKtBMaZBnpnWjTgBBnedaicABF5agAMAy1z0AAM9MywAAVZ65pQ0qqWkXnY2moCTPXKxzQTnrBbAYAs9M60acAFZ3noMTBNCrPQGgeWuJqAAAk5KYAARU0MAJqRVNiYgjTMsYA0Rc0MAI0kmlQmMhgUmEqpFcWCYQMGwCXI2mNNEXFjaYCAYCEwBDAAAyqaAQKagtoGnIVNDEyQCwQNBN56AAGemZo5YxAZaZmjAaYsNNLAUTSZa52MQNyEaZ6A5ZWOmZdJgIDPTI0aIpCDO5rQTgTRntjoUhDcsz1w2pgSvLTJNGAAKstcU1AVDSZa46lAhiZncWNpiz1yNAAADO861AgaKy0z0GJwJzS0zsYAZa5mgmAApcmgmABneegwAmoC4oaYGWuZo0wTDO4sYMSqBtMYBIBQATUiqaAAkAoAIqCnNDQEXnZQmAAACAAAGgaAxGjA5+k0lWUDCakdZ0WQi1DNTMNDJhphB1GLNcyTZ5Bo8g0zUnQZhoZMp5UamYaGTJ1ws0Mw0MwemFlkBpm8zc56NjENcnmdBlUaGYVDitnko2WZS0x0LM1GhlQtufStTGo0xqK1eZGqgLxrOtzNxajA205tq0UqLICdcqqyVF5uK2IRouTY0hwbPNlPMFrhoWQFqQWmLNjINciTd5hoQDkRoQFkBOmNmjyDSZRdZUWQGmTg3M2WQgvlo6jINYSKvJmhANILEDQhXLAAkApNBFomnkaJwGa6CqzsYACYhggAAAAyiszh0faQucOw5ek0loKmgFIzDcs42dQcZ0cV5ndpnJtCZVJg0BlpkbPHYBBNZhqZ6AShXxwegcnUNNEaZagAPLXEx6eTsA4djp59/LOzp5eiA4u0meeK9BpwxBneeouXq4i+nzvQJ15tyjms2jmg7zDYcYQdmdcZ1a8fWPnvIvbHWmuYjpcURpnZQgeWmZpz74krPpNM9cq1AgDmNNOTetTnUdKedLTn6BmfMdsXibvn3GJkgi0wQBnWfMdz5ekIy5T0ax2BiCLgtpimucy3mDbXkg75aHUUMQLPRFxzwdk+fqdjnEo5uk0mMjfm1s1y25Cto0M8KzJ6a2ODXWToaYACEyRobQMERFMx2pHG+rMy6ABMFU0Lm6ZBUHJPcg5evA5upbnHl35mfQg1AGmhed6PMR1Toc+vNBa6ecvsQcRfSci25zH0+bqBoI0y1G0BlrkRpbOPqnQXH2Ymk2Rz9SDhnuitGuSOt56GekWGejOXpjQ48utk83ejPDtxFow5OqNDPPpxDeaEqDK40rA2Ii0EXndOoqHnpmaef6Aef3GNdGVwagQc3SVydWepzdAw5+jMnTPUxdUPm6eU30ixtAkI0ABAcsdNGelBxadMC0mhiYs9MzQAWO6M89bOTTcGElOaDDeSWA50Rk9JFza6GXQMgYK0yMOrMbABhFxZNgAAxMYAkwmbkY0ZTVmZoiI2zE7Zk9EZt2ZlszWiBWElBnZRJSJz2zKbBDCZuCxhldoynShNgMDLSbEqCVQZ6TYmwWesFKkS2ExpmWNktszVM510sh0zG50JdBDojDRaVJREZ750OiMnqiM986bpxBYYaTpUFkZmhXPoaGbsInXMpWEFhGXRmMsJKZjRZBoGc7IyosgsM52zG6ZDoIVoCmQWGNqyDQM1pAmWSUExrAygRQZN0SrCZ0kTbINAzLBFhmtZMbtkLRmNNkumRG0Eugl0EXFjEwAAAoABAJgkwypMEwUaZjaRciC89BOWCAsAACbzsaSKioNBMHLDOoNRMYgi89AaBiDPXLQYAJyF56AICLyNRMBgs9MjUAGgTzZYENIM9cdRiYCCNMtBgBnpkaNA0AZaZGwmABnpnpQ04Q0Za5aUwQ87gtpgALPTM1AGgIuLGAE1JGkWAA8tcy2mAAk0U0xoCKmhgCjTMdJjAFnpBoACYZ3FgwCLgbVADIGFABNSFTQJhDTKExTcDYAAZ6Z6A0wAAAYMQAACBENQaTgjpzrMtQy3FCvPQJcg0GomCaI0z0EmCjTMtpg5YoqS2mABnrnYwBNoz0y1GAE1AtMtBgCy2xNGmMAMtMjYTBNGdTRaASaIuLKQABEXlrTE4I0gbTAAWO2VaVLAFCqLptENAZaZaVSTDPTM0ExoAioNRAwRGmWgxA0IV52MAIvM0csYApcmjljEyKiigAi8x1NDEBFSaCBgiLzsoSKioKqWNyCchoSFKUVWbNFADlFvNGsyjRwFpIVzYNMAAAGAAA0AkwzTRjvy7GmWuBTWhJckMQGgZq0MpkFhk3Zk9AzjbMHTIVsznWROmQaIx0WhDoJLyJ0WhmaozW0mVVRC0DON8xlMzLRksNjZWyFoGFUxKwgsMbVkGQbFhhpOxBYRG2Y1ZEGhWee+QzQM3TMbViVhJQZUtCC2Z575jTojLbE1jaBrQILDKiiDQMnYQyiSwidOU6G6INAzWkgWEFhlRZLoInXMVOiFoiJ1gZTILDG5RlvnuKdJBqSxWQMGMFNwFJgMIaYwBTcjYAmiaixtAxAAxgAACYJVJCcmG/Ojr4O/M5OqpL56zNnnqXy9HOPSpJ24+oUwzTXl6ChMWWuJsJkXDGscTuOXY0MMze4wL6MNx5TqLTCDqOSl6srlFc5mz4+sfMsztmeUra+IXYszqfN0DEEXFgxDRmZ3hRO+QdD5tTPp5+gaEVneZblkzz7lcu+R0UsxboXncdKLO0aiZGmWgxAY65GXVnZltlsKbzNRAZa8Q+vnDdwhrXlGaMWuOxzY9FGjOYrbPcSaLBiAMhajVYkc26NtFgbZb8pDsOrCgrRM4Z22Dn6EQb8Ze1UKpoloKACakGmDES0xgBFwWACaIuaGDEAABQAAAACAjO4LEipUmiSMC7J1iipAMNsxb50Z59CI2y1G5YZaZmgBnYzi06JOfesjn1z6gRoRbZydTRyPXU4n0A89szXHYJtM5a3yNOPsRx9GtC4uriNuvi7RiCby0GICaRzaLQnLcM9Cjn6ctQBDy1yNHLFQh46ZmyQWQiNcqHnYWQC0x0KeYXBBtCZVZo1hQbmYTploTeVlqWWpB1lRVQCVQbQBTgKUhsZhoZsnTGzR5sqCTSsqLIAioKoC5QZ7Y2WSFwSaEMz3gKIDUzRpKRThlEhNTQDBRpIwolXIXFDAAAACmIAQxAJyQhGhLCWiyWCcivPQABRcA6CFcmdxsQaMyWuYOmZzqGRoicOsMa0DGyiHYQaIxs0MjUM52gl2yFoGcb5jKZBYRj05gaBk9GYU7ILDMtGdLQgsM6sMbnUgtE575gWyCwidcyigQ0Z3GhJQIYZ6Z6AAGekFDAADPTMsYABFRoDAE0TcWAATcFAwTCQCgYAzO4sGARcjqaAAM7g0ABMIvPQGgIvMtpgARU0MGKagppjTRFTQwAi4KBimpFcWMAAAALQADJGhKkZzUlDQTUFtUJMIuLAAU1JQ0KKgLz0Kc0LPTMtORuQCWWCGAZ3noNpDBEaZ6DBDhyW5YxNTLXJNQABBF5momNCIvPQYIaAy1x1ByyhInTHUaQOKksAaEEVBsgGgIqLATGAZ6Zag5YZ6ZlsABBnpBoAABFxYxME0RpnoAA89MjRpgASAU0DAM9M9BgBNSOpoBoUXBoAA0Z3GgABnpmW5oAZDTG0DzuCnNDTRncWMTCLzLaQ5cFVNDAATAAsTAAEwU0jPLaCTQMp2gbGCaJ0zZZmjWJRqQioEPTKjQgLyrM2UhRAMlmiTGJE6Y6jSAEyNM7KEhy4NHLKJB51mbOGVIis6g1EFIRnrhqUSDcMi87GSFpBG2OgyQqHmbPNlqQrNwbEBqZhOmNlEo1MwWmVlEBUCNSAszC4JNiGUQDvKiyAsgFplRoQF5uDZ5ssgAQaEBoZgtM2aEMuBFVDKJY86ktoGCM9JsQwWesDYxDZmyiVoiVpAm2SWGNOiSwznXMZYTOkDqaBoGJgAUAMQMECaJz0goAUXBTQDSFeegCAmpKTBJojSNBDCY0yLGySgzKAGySgxtaEFhmaIypWSWExrA22SWiI1yLdBJQROuRZTIWiMrVkjBFBlU6EjAGGdzYCYRpmUxiGCz1yNU0AIm4oYMQwzuLATFnpmaCYABF5mjQMAis9BgDQEaZ6DBDz0yNRMYBIBQAwCLz0BphNSOpYwBRcGgAJoz1z0GAGd5ltMGBnSoBoIvMtzQAGWmegNAZ6QWDFGmY6TBpgAAAxMGgYAJonPTE1UoqRFEsYIWmWgCASRomCTRGmdlCAz0zNBMEIlyy0AxBnrjqMQrJEm4sbljzvM1EwBDz0zNAAADO8zVxQ0kTpjoMTAQRedjEDEyNMdhADioNGIaAed5liY0BFxY3LGhEVFDACKg0EwWeR1xUGgAAEXnZQmCAnTPQYgM9MzRpgJktBYA0wy0z0G0wi8yqihtARUltA00Z646lCAz0zLqWMQS4ZYkVnWZpWYaLMC8aNHmFwpNzMNISNGmAMAAQH/xAAC/9oADAMBAAIAAwAAACEEEEV5xikEAFqT1BWlMFXsH8kHsFVf2kvFkUHGEF0En0EH2nEHHkEFHV133kmE3G2UUkkklHHG0WmH30kl0Xl3HmWmElcoACHX30EEFR74LiQgghy0oEEcFUMFP2lq0HPmG/G3mFEEEkEFEEXG1GkEkV2nVmHFGFXGXHUnUG2kE0HU2EVFH0H311mGkVX0H3zyzRX30EEFYa7wAbIr4JfqvMLG2rPLa8LJIbNOt/72E3FHGH2HFEn20EFO0UTGmVH2GFUU31EUlFEk0FG0m1FUUXk00EDkFmUnnRDAB3310k15j1XHZQBDnRQHEFWksFOFE62GsE0v3EkFkEHF1X0kEkF0V02EEEG0/qE3mU1mkFEEw2kGUUUmE2F1EWEXkU3kmXFHADATEXHX31rR7aDK4Dyw0y0WmUX8WeU2JHWcFGn1X0V01VGH3mEWEEXUn0FUE3eeOGEFmW2EG0GkmkHklGk30W12mWUHknmkElFwABREEEH32zbp7qYoJKh15n8mNVOMOFu9FG2GFf2w0n111HFFEGHHXls9W0GmvGuky0UEGVGEEGXG10VHX2lUVm0nEEViHACTgCYwwIEV0EGFTS2gzhwlygW2Uk81UFU8nV22H20En233303E0EN3Jc9/c/8AJrX9vnDD9tBNBdpBRBAZtFlBB5B1NpdtZtBVttBBRBVoAot99RBBsgAKy221amfyHff7vNd8hVZJtlJld58xlcxN9nL3LRxjHHXrrP37VHLhFVVZlFV15ed4J1BRB5dlBVN599h94VBsNBAQI59pNBFs2FoJ18hBqNNJlpxtlZB1Fl99Z9JFNJFDFXzFfWpmBZWp+/z3RR79rlhdNO1NVRFtPlNpR9dNBVtR9FLd/wDkdCVXIWJGCHfYfYSUBmXPTXrtmpfQRXdUYQbPRTebWTQVXXZz2c66eS3vkmoskol3LQdyUa9ZFKaaRZS+/oBFfddfdTcUSQYffTQbVcRARXEILeQfaUVKsgpiu4rmkm4UcbSBacZcdZQVVRWZaE88LdyW4+Qxcf8A0/OVfu3sCEPGX20mFnmVPNnmE2kW0XUEkRV3mnBWhwxghr4y3Wkf21Uzrj5QCSlaH0H0nXEk2k2yBFjH1t3Xe3s/vcNM55sK7bbrpJMIu8Ms/OiP+OMcccce6l30E32V1kU2Hk3W0DTTxUBjQQzAEX/21XQqz4AiwCyX3X210EFnV0KD3OP/ADDBfT3nXzDDvq3+/f66mOzLX3DDDTtvblLjfn5fvR99h9xd9NhtVphF1uA411QoUUQQp1/5tNMyS226agCjxlphZB1Rdht99Bt99x5TVLnZVJN1lFxh5L5r3L63F5xR59T7lrTtN8d5Rd5E5hxxBB51BQ9wuccIWmGCSESt9/B15ES4GcUAVvtBFBBhR5VhVCepT3pPbLH1PDHLT52b7CbT+r++XDDh3r/7J7TtLTLTBDTVd559thJNZhtRhN8U8owN08IMMQ99/FJRoqUy80QR2x1d1lVpFVZpuiRjfFT3nPJ/PP8A8x+h28558g3niw4wU/8Aevds+EMefv0sNHn0VXkHX0ElGUHGXzTyBEThxTSR2FdX22nbrYb7LMasG300mGlknkWlwFUUHiw/F31i3sC2vl020fluNl+uj/wPPw+ehNVU3x3wV22X2UV3A1WylFByaw6JDqgo7bZEH8XWkkLzDlGnlkkEn0Wk7UDCX6KH4IkqPfP3P/8A/rB+6mefWCR+KLWrPXvbDxrX9DXX/trDtpNRJRNNJxpJRB5dABtl5wVpVxEBF7lhJt+6SLL61BllhNFx5pZlJvOBz/d7J9rVD7rXDZzbR/NTLFW+xbjVT3rzB7vZv/V3BlfZ5BBpJdN9FtNZZ11gNxBBYNJot1pdBJJBlIfu1EsJp9BVFt5dZdoFIl19dpNZlnjz3V/zfnjV6dHrpqzdayFCDP8A3w02JwWb5TXTdaQJeTWSeXS9Xt/rjyrZXOQ7rqqfSWcYRYHHmdWASHVWcRXaZRUKTISbDe3061z543y8ywvqw94ktngn1mw25/8A6PaJEJMsNV0XUF1VVVXHlEmlEnGnCGUX3WUkF0CmkOEkFGIapq4yE8UE3FnH3WGz0X0hSH0NmUkns9y9ON+sntj9OUq+GVlzNGOcQdlFSUWWkEkmHFXnmE00nF3Eq7USmWVvrKLYw4kEOE00nyjhAjFXnX2EE3lFU1A0A33X3Gv1182scEvu/wDDH7DXOjmrnyHnTb3DJrBZZxBtVVNFtdVFJ5l99FB9xppgJtpRAhM0UoBNhJFVpQggEE45w1tdBlJNJlQBQ1lNphRdhJxDLZf/AA0/yfj88t9q7wy/z90w1e7de9RUQWfTWUWSZZUVSUecZVTaFRVScAXmmCHffcebSYmmkNHFCKTcDURbfAfUfaSSfUNQRTdAw4Q3UD+6C1f03W3wU11N5WQcYYSAWVTbLQUeYaobScX296hwpg+uQIIFlGpkpjYSYYRaXMBAeEOeTZccaYbWefYfSQSVXfRScRX83Yz+/wDffud+ceMs1Ofcdt8/kOu2snEmGUmlHleXMWWmmlbXk12AE1wByR5o6pykHWXHVxDYDiU1wFE0EVVEHlmUHW1m1W3XnE1ueUuMOts9vP8AjHjfV/HNvnDNVDp5Jl5hW1l9Bdn18RJ71YqIGBx0VEMMEImmyWl9JBdl1awciq4ZcVNlF9Rx5F1z1hlB9FFJFZs5JJdJVNz1PNHndzDIHZohNR9yFJER5Sts5piJbPxv6PiGCSeeGyqAmGau4yuiSdx9BNR5C4goM5pURpldhJtN5JNhltBRRFldxs9pN7Tr7r/znHf7Tzpr3gVBpB95ZRxVj9R59h5ZdF3VB6VQugC6Qw9sBZcImgqKpFR59JtEEw4IYc4BVp5x5Jfpp1F19JFlR19RcZtBJtFdnZDz7/JN3Rn/ACHUeVaTRYffR8YzfVTSVcR+RaldHtJtrqsatn9pvptsudWUfWeVCCCFKIHHYSTXq2Qq00rRbNYXfUafemVfXSaaUWAaFwdcSfdfWecGx51zzo418/qcVlQdBY71diMLvkigJBdJIbDMpPlrTeVdedQOCDnOAfDPBefUTQRTZcTTXDQXVZWfaTadYaZSURRQVYTTIaeRTRWRYzZZWRVVdzWXWTW4UbdYjeesfrvLFSFJdkElItmffSfaSTiLBIpAZKPEObUZQ2RX+dY+W/QQaRbWXTbTcaedVcdcXcRSfceJTEcy7QK6eXxWyYdw/aoR6w4gunpqutkjqitKtmmkpffeZVbQZCKDZXbRbdXKTSXb6XRdVUedUXQnQVr62jTVTZaRUMRQdRScfaDWfXU8fW4WZ/Y2SSGSTZe7DHhOirPjvKubFFZjFOOLUcQXSbYdtDOSTfTRSUSUVbfTbXbdYQSXSMQRX2WTVQSaQSXYVSXUXXXfSCccRcwURyVa9V7fY7dewahBEtZOvHquorXnFauMppnQSQSTWQfPXjUYVVaVZUVWTW2VWSedZaRSR/Va7QbXae/VcjbPeXfQTERUqa044i/wwYfwZiRaky9lGuOTsJIsMjuqlpvEIhvtvubSQUTRcUaacZQTZeQaYTeTeSQUaUffXfYT9fRudQTcWfVdWZecdVdRGcYCUWcZ7YX/AEncVZXWpUEmn21H4FTIk7WHGW4wGKTJBTWkEEmVEXvbJ30m1lGXEUkl30kEFC2UlVGU3X0skUGkVskF2lWVkHE3W0VXEVn0/Hn/AJ5DN6B5uVRnpl9hAkUOFyFJ81mia2i+MiBxBd//xAAC/9oADAMBAAIAAwAAABBMNsZm+P66vonNYutfhNfAMRsNjftR1eSdZMHaEHQEnYFbdErk1A03CXTW1z00DnO4n7UXuEHi199so7MnFidtM+I555gV/P5+30OMNcVW299v/MMZn7+T/wCwTo3jlvXk/XYLWvNa9ZgBB6BQNRqd9kRh6lst5UlpoRzg1GhdXFRMVrl5LZKVB89RB9LvL3WvTT/7h9DDjV/vn/1VZp9c1s4huyZA5Rktx1N4A4wl2SqTbuTvOt66MyXnQq8bfK656Sey3nC3GerydXCPrPa2ay6SyWWDae76G+v3v3jBVfLOZlWdrXHT/iPr3PW/ykLoevdjrIf3APOJBOBBcZNK14V9mFdMtdCBY/ys5FLVlh9+hIvJJHVJJhbhPTFWxyy1L/3i+/HP/f5N737NNwPd9tPjnqnuHybvg7Mfe1lXkXvCJ+dFINVkJ5G9E9piVJ0dpYduXbcx1/x5Y9SNpfptQJRJxqlKWGNYVDd7LvKujr/rH5hXDjX1Jl5RBdh/iJCoe0ac8sykYm+mQGUebUq6yLaddG9KMUUHWgMOYjg7UX+Gq66mqe6Ca++CpPt3KHSGAG33DqT3X/8AwU7/AEMV2Pc/euKM+vfovvOat8A+benTffa2XqVGD3Z3XD0WwFekrM8tJN9DudDv4cui0GYHXQHPkD20W8UPH1fEWO0vH+4aKoK5KavP+/2lNOu//uVXnW6kUxXBiRDQoA8J6qyDboArBfZzt02CN/MfUlNr+er+sYcAcPQFWIW3wlXVZ1Ql5GpEXi0lY2feMb6PIKN/ZfMtqEU8M8sHL9LI/KLUuYWGJ0bOme2fqNV4mGw2B09yNOi87Fr2kbW7uJIxx6RoGgCBt157uYX9jW1cZq4bb4Y6ZRJCU7e57ebPvcO+10+MvsmY/JK1Qm91S11SGiGEJk+6+0q3ESGgcsxfN2H+4Y4Ip7IprAWX/GWOkyQ90sYt6d7jjH12V2XPEm4X5O8ZspeJMcLdOO23mOtPtQUmEFMgxgkCKKaT9qh4qrYqqiArJSOqbVAogYJ1MknPFcfzLJTa00YTRzwDhgQTLLz2SShaAwpigci4LLurvPu/eFEuZlXde9ff0MWeMOjQ7+rlNbVDnUXxBUTlCM1CuDuubO9+iwsLo5a466Mqf59KevkMtqv+4fZ95H1kXVpm27iizUbvo/ss8adtd9ufTXte9duW8EfOtcf8uaEXQGwVnJLjD/8Amnn4j67XKP7m12/2bje6qS7n7CXKTTof7cXPKbo3vk9p3V3Jt8t5upMwWV/HierHLX33o1vGvO3r1PRNpjII+2ee6IC4OGNBIIEAEkAiQ+f80sUAZF5sRTE/HKD6EIosUk+CoS+UYHsUaYgjI+u6Owie2DC/JzPHFZJ5NbBh5/3by3Zz5rTLXQ1hOVdAFE9hyCagn/EHfe7g/jSLT92vKyaHSnGueDfQba3Lg3jMbHSTQ3vYlNGhK9lMNZmlY0JXT/fOHLzbnD15HP7q3RLZrvfWZuvq9589g1ZniSwvnMjfiP8AN7zv793v9/6nxr4lpg24P1i60q90J/5u6g/7ObbOaNSbEbBhbGCE/wAM/CcOcNMel2+HXHJ+2d123zUj4J5orKqy+o2XV6bLC2l7CBRXh711dTnxytytPxZJEa3arnZq1IQBBP7255iJTJRh+aq+6rH+1umGc3tmG0UV0fHlEJMu9qb4Uol37Xkg6Igw055xYYmrKL+S9cZddT6KZ5MpaVaqP5uL/wCvrkrr4DaSDyLDgZJOJsFNWl9iFmN1j4CWZ/vKiirBZH9BJ6qtxsQNwi0ciu2U8Wb5VXm0D3k3EEu4+TOHzUP/AKW1KjwAtuJ8/M5g9yH9+LzuK/CWzDZeoTHQcmVfrTsnT9ssmt36g2shYfWUYat++Uh2+omiIgFgpgq/o3JZo/JtYBLiuu3K85n58Zud4+Qk0Ysiemvtxv35ajLIogAgtCG6BuBEiCCMoUARTDTrs1hCSXXSdUUYUt/oEFj/AJNBC52VVko1S0h1hAnaMK9NK9fqNOb4rf8A+eCq6GD6Dnz+/Gb261in27O5JoJBSRC5t2R1BtWa7bzqGHOqWWiPhV/xdtSM8EdJrmc+SKgyguqTuC9IvI3Q2wMU4OyB62SvGcCpS3Iurs1wNa46Ktyl68KGjmhaCl6WmauqOiyS2FNKXWGukZdZ1bZhljt1NabrDDpU86N5ex85VYVsjoR8Z58/0UDYTHQXjavP6HiH+TSj2qPuLqPXwzx25tIFeJxs1piZvuNHBHvPSm77X2WO7G/rfTiNhZ1xyXfnX5hcTVh5xQVJO1cnc94xZc9QptunTQ/7uzjt2W3KjCnO3Dij6H7IHh4LtkF+tROplm1OOhSjTu7iCTLq6a2vedxHvSV9915aPE0fffHrQA70OA2rQYKrqmwgLGaYoXWC0WM5iOFbceygKikG+F24oYmokP4CGwbISi+S1sSaekgEVcxF0lmLnHtz1rVk6xt5JhaD+qIBxIaAleAohxSB5qJteB9YFy95On/4PPaj7m3jPPqzHsHHCLWPz0fz6fgkJ6RtmDLcOUyluLyRamKvHaOTXXXhNRsz5dxJ5uTTBXLQIdw5kpQV5idREtZe5N4JshlwfvgrX2rfeP2r7TD3ILr0rSD1UTlSVCSZh/xuTrcZzKLIC/1Dp6C3GvHLDrxVRFK9ZJtRmgHmp1H8fOu8sup7md/0SNqwemgQUwdM46t4sgu4WsOiYamvqIz0iW6FoKTu2hgn7nlykQGQRcBZRhxZJ9RXJt5R7Vx9NrNxhpdeRLXXTKB/lxc9kpFcxF0RNKlpIFo1x19hF/bS7bqzmnb6HfsrvxFUxxuFVWNz4VSlHavHSLoiTFG7JPNVLzWjO+rbxLRhf595t1Knf3v77X/4B69GTpINhGd1qRh8949hrBhXRluZf0fivD0hvsTbzZSPbKznONCMfwzDOr72Hg+OdevpHV99tKl5Al1H7RxjxltNJyfv3XvPjjKae+JMapc0hqmDky6uKyOFIIS+OmGwhRNGw2GqiYCOebcUSQEFQ4U8R+C5qyrjwo+Jf7ZQVV7Paf3S7H5bhZXt5ppZGvrjhz3SjxN+tGftmhVW59HkL7h8RxettClVKRliBQF1GZQglBiR8/b8XvOrKSX06+ijroz6CylCG9u8BrnqDjGxz1TpZz9J9Vp9VXjv9vK3z73rGD/sfrgxJE/MzZu5hm31Y5R+Rl4BSKieAMs0Mfc3eU8OLcqOsCEmyYUaFmIg4ghxZNpx1hl11TrBpJtGRpFhlN5rD3c+aJOiOb4mra0ii2y360OmG5DzNY4Rr+Crj6nPYYyYp61BDF4TT8/LY3nYbg/TLDLWz4DTZ/ZZ/F5XtK3fSpXjb/6NN59515Jn34pONKRZ2pv1FfBZeFxWFujsWNJw1BatJSZNkJ4VViZdCZRfpylnQLnQLqUfkzPIvfkSB7z5endvh9p1uZ/S5fFhxixZNJxxRby9qG6qKy+0WWGyoxlK5z6jCyJ8D5Y9D6nZIbzJmTwCK2Ovmu1i84cp484iuwSdeuV0Eh7x3yZnzRvVJRVlBrn1ZpZBOlNRhVlJSNGvtKNZtpAdmthCBbyXfazSD10lJFD3K/L6vzyVuhhUV1fl5Tr+vLMnbUbeoX16bdTDy/yGm1WzlXJ+i2/Vr+535bjqJVRRxtJ4d9+HG5FxJENm9JuxJqU9QlWVBGZxAJNmRJElZa9U1BKJZQ9tW9K7L8f3ATaUPlif1jTwLaSCbHXpDpiHPyphV0xFTRyZpN//xAAqEQACAQUBAQEBAAECBwEAAAABEAARICExQVEwQAKBA2ESEyIjMkJxUP/aAAgBAgEBPwD8ht4WfhwvgZQ2IUHwM7QfC+BBi47dZX8h/IWUHws2jd3AyhsMPjKG3w2idKFx2haP1fz/ACf6NBmf1/J/k0Iof1DarKvjK6GHxY9h3Zj9VJT8Qg3P+2aj/h/zP9P/AMx/1Un+vT/mY/quBCKH6FCzrMEMMG7uBlDYYfAzu3hZZ2gyzaULR9DeDQ1n9f2Dr+aSsP8AR/o1J+pQvKIyht8L4GeIbDD4ztBCcLLO0Lju0oQ/tqZX5VMFuYaypRmYNyplZwysrOM8XRdxnaBmPPxC/Hv3P6RceM7Q2+F8DPENiG06DO0N3FnaFxQZZQQ+h+NCqX0MoqOhgEIdDKGEalJQwg1lDAMykoZQ0L4GUBkXcZ2hu48Z3YbChcfwH8hKDHf/AIhOGC07Q2xovgdNLosqq4R5OypglTKmkqaQE1lTWAYrKwbnTMzMJVcTKKrKyv5DebxucXAztDbBQnDAuPpQ29gvgZQ2+F8Z3BBtGcZJpOSqzA//AF+BZ/RRUWJj1Y9hpYZj2Cldw09mPZh4ZpMLFTMeyg9WPZwvgtAy+F8FoWZxlnZlJSUMoZTEAMoZQyhgBlDKGZlDKFUP4TaULjeN3cuOzbw2EwBjbD4yh8BOlD7VP5yhcUWdobYhXLRP62UNvhfBCEdobF3H1BlniE6UHxlC42D9eJUeTExMQmY8gpXUx5diYmJiYmJiB8LGpiUE6uhYmJQLFBMTEO5idlRMTEx7Mew8mPZiY9mPZiYmJikx7Mew0xmY9mHim5j39JuF52hth8Z4hCht8LOgztDYfC+BnaG7jxCHaHXxlB8LP4j9TBYdobsK4zxCHaHXwvgZ2hsPhfAztBhniGxOlCFcNofCz++plTCX1AyplZU0MrAZXErKyusCVgP+whOTbWgL4GSgciVXC+BnaBy+FniG9Tsx5B/8n+JjycMrMeQ08mPINzHkx5K4N2PIKeW4/GVwss7QY0XxniG50oPjOgztDYY0XwM7Q2xpniG50oPhZ4hthlC4/I3UMoXmUM4ZQyhmWdwCzhfAqGHiAyJ0ykG7uBnaAzKLhVJwM7+B4uwjKHXws8QYZQ/XlZlTMypmbKrhmXWVKJnZmVKqZWcVZXAVYdypgJrKlVwZUyplTQSplTCTWVKqZUyuJUyphriVMBMJzKmAyplYCZUyphJlTMyplSqmVMqZUyplTKmVMqZU/i4WbTaHw3FDYh2g+F8DO0NvhfAztC48Qh2UHwsoMWiwsfUWUlFSwuhuoZQymAyhsQjMIgHxO0Bl8LpgSkpCMoDL4gERKTptCpKX0hEp+UfAMob+PAzuGDYRg6xq47Q2+F8Z2hthm0PhZQhQsP3NwsNgtG2HwvgZ2hsMMvgZ2ht8L4ztDbDPIV0oPhZ4hD8R+jExMTHsx6sezEx7KQU9mPZj2YePZj2Y9hXRMezHsFM5mPZj2YpMeyg9nAzuY9gGbcezjO5iYmJiYpuYmIaYzMQQ7Mx7BSY9swseyg9YdPoEIbx8BaNsPjLO0Nhi7gZ2hu7gZ2gjBpCFnaD5YfxhCH8g2w6YZZ2hsWFcZZ2uvhfAztDdx4hOlfzuFc+AZ+gQh+pmPLghOGY8XBMTHkxMTEO5jyB+qgmKf5mJiw7mPIKVmPJiYoZjyY8mKCY8mPIdzFnDMeImVgp5DMeQfMfcIQ/U3h8L4GeM7Q2+F8/y+BnaG3ws6DO0N3FCFBC03lCH5iH8RQht4GeM7Q2+F8/yyztDbD4EIdobuIlCih8Bti4/Q/jrBZX/AGRosQzHiO9IHNmPJjycVbDtDd3BaDl1NDKmVMrKmVMqZU/EMMs/MQw3Bj4FCH5CFC7jLKG2HxlDb4fgPsUPqYfwkZ+xQFhXGWdobYEoZQzkoZQwjMoYBlUsLKFxQ/8AxyZU/ImVKJQfCqmcZfUCayplSqlcZQ3AuFllD4BhllH8QtKDKHxK6IUNsaL4zxnaG2HxlDb4bihcUGLR8h8x+cQoQoaL5KShhVIUBl8L4GUNvlxQdLQwz9huH4D6D7Dr4XXAsKKG3wvjKGw+FllD7FD4G0/KnyFxZ2gxdxnjOyhth8ZQ2Hw3FBn5lC0fA2f/xAAkEQACAgIDAQADAQEBAQAAAAABEAARIEEhMDFRAkBhUHESgf/aAAgBAwEBPwBnqOAYRewwx4iyxgYWdPZY8RyDCOQ6j/hBjwIu+Q9ljxF7GQRZeyx4jkGPEch+me4kD2Agix2gcZVKP3IjLZYRZeyx4i9hhhFhjrsSxjY77/Lgz8vPJ+F/+eRiMQjB4jhpBjxFnIIsvZY8RQmxloIvf+HSAA86gx4jrDS+/wDWPEXsPZYRZyHiL2OgvbDGBg6hD+vUqCUhKEONKhKmpUI4lShK5D2WIRnsseIvY7hiP8cYl7DDHiL2HsoQeI+I4bLHiL2OvZ/xuMbEsSxLCsYE+S5c3LEt2ICKliEipYliXyMgeJcPjL2WPEdPYYY86AjkOgfrghBjo2GGEXsZBaLqUJU2VUACNVKEoVKFsDAAYVzlUqVhWAH6ohXPE/LybC2WPEXb2wwi9hn0oP8AJ7DHpekUcDTHiOnvrCLGB77ly5/8MBMv+S5cHE3hZ+Q38y5uc46Cs/HfIx5+GAy4TxLlzYly/wCGXycSZcsS+RLdy5oS1YliXzCRLEsSxLEsSxOJY+yxARLH7tPZYRy3kPAi9h3yWEfHsPZ7h4j0FlUGUeg/qhhF/GfZaDHgRew9ljxHyBbDvkseIsesMeBHT30bxKP6YnM5nP1mc9nM5h9y5x2HuUZzB5OYbqczmG5zOcB4+Zz8nN9Bvh82GL+Y82OMSVcH6Q7R4i/jPrGJ1kPWPEWfQ9ljxHIMI6exiXsMI/qjztHiL2HthjxF7DHqMHkMMCPoeyx4jkGPEdPYYRewwj2joHjqVAFVKhhp1/TK/phAsSpX9MrmVK/pgEr+mEQDj04VK5Er+mV/TK5PJlf0yv6ZX9Mr+mEcSpX9MPolSlUqAcSoRxKlSuZUqAKj9guvUb45lH7KP3I+ZBUfso/ZR+4c/ZR+48/egwMQwLYYY8RZ9GQ2tQeIozYY9LHiLPoeyx4jp7DDCOnsMIssdAwMEMGZliWMARLEsWJY+yx9nEsfZYgIqWPq4WxLlicWiRBucQ+QeCcKx9Ww9mWhVeo1TPolj7LE2WPEXsMMI6yCLOJxOJ6ihgKMoY0JQlCUHQlCxKC2qECMqUFQWwwx5KENVABKhqxKEoShZlCUIJQhlCECbgEoQAShKCoTiUJQVCUIAJQhAqUJQVCUFQlCUJQVShA6VCUIMyhYmxCgjdiFDH49hGbOWhjsMMeIvYd8lGDxFn0Mb/6x4jplhFnEwYGDA9RV/wAly5cBl9J0rEsXLEsTZlicQK+IMb5wJWkTLEsS7IlhbliWIDx4ZauXL5EuWrC0JYysSxLVy8bEJV53L/ROR6dmBBFnT2jgPGEfQ9lGDxF7DGAhRmx2nEwMYD9QsvbDHiLOnsPZY8RgR0jNljxF7DDHgRe2N4nEwdgzMEszl8/Jz8nPx3iWLln4ufjHiN0zfHD5scMX8Y8hz5vxjxcrmc34xfxi6HCN8cZC+ern5OfjHUMiq6zlswIMeIsjIMeIjjpHiL2GGPEegwIoswLfUBxBkXvqOYQY8RZ075YY8WstljxF7D+oweI+PeQ/bOFYc/cS9h7YnM5g8w5nyczmbyF16jdZblH7KP2DzGuWFR+wDgIjz9cjtOQxCL2HssMeIs+h7YYRZeyx4i9hhjxHT2wjAx0BntKtWMwi9h7LDHiLPoe2GEWXsseIvYYY8R094ntsdAzLPTUqV0B1iQ94UgOEQyqg9YREpULEoShABKEoKhK6CjgIP1T1cwIssfohhFl7LHiL2GOsI5BG/wBXY6h4jkGEewMI4WJYm5csQHiWISKliWJYsZawt3Acdj98YgcSpSqVKlQY1KRdciUq5yHiIFShKE4y/HxF7DDHiPQWf0h0bGZY6BBgX+Xj2Mgx4izBDh+PiL2GGPEdPfaewwdBCr9AYll7GQYPCJl47LHmN8joOu4I9hg6DiMyyxKQRZ0z6HssMeI5D0/8D/HxF7DDCOu4dJgxHQWEMR0BhFl7D2WGPAizkEXsZBHx7YYxDGViAiXLYw//xAA3EAABAgQDBgUDBAIDAQEBAAABAAIDERIgMTJRECFBUmFxEyJCcoEEM2IjMECRQ6EUgsFTsYP/2gAIAQEAAT8C/YKGFhtNrrhaczbm4WnM25mFrsW97mer3G13p91zcXd7X4fIuGd/xbF+27tcM7/i2JkNzPV7rX4s73Mw+Ta7My5uFvr+LThZLY1SGikFIKkaKW8qkKgKkKSLVSqO6p6qnqi3qgFLrs36ozTQVI6rfqt63revMvMvMvPot81M6KZ0U+in0U+iq6KpVKpT3qYUwpqaGJ/gFCw2m03Nwt9QuZlFpxF0PKLTi3vc3j3td6e9zcX+61+HyLhmf8Wxftu7XD7j/i2Jk/q5nq91rsWd7mYfJtdnZczKLfX8WuwKFrcPm31G02lCwpv8nj/ANptNptKbhb6haUzKLTmF0PILTi25nq9xtf6PdczF/utfh8i4Z3/FsX7bu1wzu+LYuT+rofr9xtdmZ3uZl+Taczfm0qHkFvr+LX5Sha3/ANt9RtNpQtbbx/a4/tcf4DrT+0eFpTcBb6hdDyC05m3QsgtdmZ3uh+r3GySf6PdczF/utiZfkXDO/wCLYmR1wzv+LYmT5F0P1+42vzQ+90LJ8m05m3Myi31/Frspub/7b6rTacELR/E428f4DrSVMKoKpVBTVSrHVV9FV0RPRVHlUzyqo8qqdyokywTa9FN3Kpu5VN3Kpu5VvqwUzopnRTOi36Ik6JhdTgpu5VU7lVTuRTdyrzVDcpu5VN3KpnlUzyqp3KodVOCqfyf7VT+T/aqdyKp/IjVMblM6KZ5VM8qmeVTPKmT37uJUzyqo8pUzyqo8qfM07vUpnRTPKpnlVR5Sp9E2c3buKn0U+iq/Eqf4lRN7ZS0VXRVfiVV+JVf4lVdCmnzP3FVdFV3VXQqsdVFP6bh0VY6rxGqtuqrbqq26oOFbzPRVt1VQ1VQ1VTdQopFHyFMa2w/V7ja/PD72Pe1omSgQd4ULL8m05m28EzKLfX8WuylC1v8A7b67XcLShaLeNvG3jbxt4/wCpKlUhUhPisYocRr+CkFLZxtOI2mIwOpOwpuAt42lNwFvEXMyhOMmkyTHB7Z7TmbczA9za/FnuuZ6/da/D5FwxdbEyOtkhmcpKQVI0VI0T2iWHEKkaKluioboqG6KhuiY0b93FUN0VIVKpTmibVQ3RUhUNX1AE2BQ4YkmNElSFQOqoHVUojeFT3VPUqnqVR1Kp6lAblT1Kp6lU9SpdSpebFU9SqfyKp/Iqn8iiN2JUuqkeZSOqkdVv1QCk7VSdqvPqF5ui3zW9eZTdopu0TqlN+im7RTOimdFM6IE6Kroquiq6KpT6KvoVX0Kr6FVqrfgqlUFWFUFNTCqCmFNT3qdnG3j/AOwxDPcFDjB52OY2eChZ3WcbSokYMCZ9YHGRZJfUnzBNwHZFNwFvG0puAt9QuZlCjGTFA+387XZmfN0PA+42vxZ7rmev3WxMB3Fj4hwaoReR5kMz/i2L9t1wzv+LX4fIuZ6vcbXZmbK2cwU58UHCJF2Q8tpzNuZkFvr+LXYFC1tjnBomU/6p0/KFC+pqMiLDaUP3+OyQUhoqQpb1IKkKQUlLeqQqVT3VPVS3/wDinncmDyhEeZuyLDqxUCHImT9jPEqNWz1WuUWboganeFCbqV5nGZTMreyOCGFvqtKblFvqFpwTMoUfAJkZjWgGe052/N0PA9za/FnuuZ6/da/D5G15k0qE3YM7/i2Lkdc3PE+LYmHyLmcfcbXZmKLvMkIW5RGUHcVAbv2QsgtOZtg2Q8je1vr+LX5Sm4Wt497PqHTfJMhAb3J5aXigJuG11pwQtFvG3jbxt428f4BxUQEt3JkfdSQQQmCe/YQmQaXTnZxtKjQXmTmHemfTPcZvURgDEzI3sjghhb6rSm5Rb6x2ublC+oO+SitDGdSvpRKHsOdnzczC1+aH7rmer3WxMPkbX5UzLsb9yJ8WxftuuGeJ8WxMvyLofq9xtdmZ8qKDMOT47QPLvKhNLnElNEn7IWQWnM20pmUW+v4tflKbha3j32lRKjFMkWxnneoMAN3nGx3CwlGM2cuKbsJkmxQ6/jbxt4/ter+Bxt47XAkbjJNnLfiuNvHa4TElDnTIjBFDC31WnBNwFpzjtacEzKFHlOZwTnOjOCY2loGx33GfN0PL8m1+LO9zPX7rYuX5FhqZgNyD3E5E3PE+LYv2zc3PE+LYmA9wuZ6vcbXZ2fOx0IEprZKWyFkFpzNuZlFvq+LX5Cm4Wt497IraXB4+V4jScUHN1sdwsK3l6h4bI06FDhmc9rxNpUIunI7eNvH9rjbx/gOnNebRefRefovMt63qR1UnaqR1VO/FU9VR+RVHUqjqVLeqVSqVQEWoNCoCpCoCpCA3qkKkKgKkIt3IASVIVAVA6qlEeYKlUhUqgdVQE1u4IwmHFN+nhtwCoHVUotFbQqQqVSqB1/tUpjRL5Kp7qnqVR1P9qnunDe3uqAqR1VPUqnqVT1KYM3uKo6lU9SqepVP5FPG75Cp6lU/kVSeYqk8xUjzJuZ+9SPMpO5lJ3MpO5k+dJ3qTuZebVebVefULzITqcvN0Xn6Lz9F59An1S4YhCvovNoFN+gU38qm/l/2mT37uJUzopnRTdyqZ5UZ1N3KbuVTPKqncqqdyIudyqEXUDyqZ5VWeQqo8pVR5CnONTfKqjyqo8pVR5CqjylFx5UDIZSqjyFVfiVV+JVf4lT34FVfiVV0Kr/Eqv8AEpzvKdxQd0Kr6FVjqqwqwmnHuqgqwqgqmlGFCmmthtwAVQ1VQ1UwnkIEKamtyIam7Ny3bAdkht428beNpxtOP8DjbxtGNvG1+BQtGJtdgU3AWnOO1zcBafuN7G6Fk+Ta/Mzvcz1e42xMB3Fzc8T4tiZDcMz7YmA9wuZx9xtOZt0PKLTmFzcLfX8WuwKFo428VJSCpCpCcAgApDRUjRUjRUjRBo0VDdFQ3RUNVAQaqQqAqQpKSpVPVU9SpdVJS6qR1UjqpHXZvW9b1vW+a3revMvMuP8AA428bRbxtdhcMTa7BC312nBMyi0529jdCyD5tfmh+65nq91sTAdxc3O/4tiZDc3M+1+A7i5nq9xtOZnzdDyC05haUzKLfX8WuylC1vHvac1rkLR+0cf4hx/gcf2hb6rXYXDMbXZShb6/i0qHkb2tP3B2N0PKLX5ofe5nq9xtfgO4ubni9xbEyG5meJ3tiYD3C6H6/cbXfcZ83Qvtt7Wn7jextKZlFvr+LXZShaOPe05rXIWi0fvnH9o4/wADjaMbRb6rX4XDE2vwN3+T4tOBUPI3tafut7G6HlFr80Pv/wCXN4+42xMB7hc3PE7i2N9t1zM8XuP/AMti4N9wuZ6/cbXfch/N0L7be1p+43sbSmZRb6rXZShaMT3tOf4tchYU39/jacf2jj/AnvVQ1VbdVW3VVt1QcvEbqvEbqvEaqwg5VKpVdCquhU9+Cq6KroVV+JVZ5SnEngqncirPIVUeUqo8pVR5SmkzO5VHkKrPIVWeUqr8SnOMspU+iq/EqroVX+JVXQoRmuiGnfLEKv8AEqroVX+JVf4lF3lO4ph8o3HBV/iU6KG4gqr8Sq/xcqvONxwVfQqroVX+JVf4lV/iUxxpylV/iV4n4uVf4uXifg5OdNzNxxVf4lV/iV4n4u/peJ+Lv6VfQqG+dW44qodVUOqrHX+lWOqimbR7gqwq2qsKtqqCa7zxFWFWFW3VeIzVRHtLCJqtuqrZqq28wVTdQqhqmkVP7qY1UxqpqaiYD3BTGyY1UwpjVQzvf7lOx2dnzacFB+2ztafuDsbTgoeRu0kDeUHA7wV6rXZSha3F3e05rX4IWFMwtGNvG3jacbTacf4Et6pCpCkFIIbJKWwW8bXXNxda676LfGiu1s8R3/IDOEkUzK3tsiGr6iGzTftP3h7U50/qGDQWw8gtfmh97ofq9xtiYD3C5ueJ8WxMh2yUhoqRohi7uqRoqW6BUN5QqW6KI0SHcKluipboqGcoTzKOxowVDNE1oNW7iohax7BQN5Xhs0VAUWTWOcoRrDSeq8Nq8JqeGtY52gUA+IyZEt68NvX+1DY2lp6KgdVF8rOMyvpwXMJJOOqpVIqTo0olMuMlSqe68Mdf7Uc0M3YqCz9Ns8ZKlUBfVbmgKFDlDb2VAmqVSpdSqepTx5Smt3YqnqVT1Kp6lU/kUBvO9SOqkeZSdzKTuZEGob1J3MpP5lJ/P/pSfzJwdLFAO1Un6rzr9TUIh/RNmvP0Xn6Lz9F5kJzXmU3aKbtF5tFN08FN2imdFN2imdFv0Uzoquiq6KpE71NVKpVIlVKpTVQXH+AMbChYUNkxtc6RX/JM/KyahxQ/htfc3F1r8LfqHUwnKCWwmgu0TIrH5Tt+n/UjxYnwEcCmZR22fTeeLFi/A2uMok9GL6Sbi+KeJ3IEHjZCyNtfnh9zdD9XuOwuaMTJAg4GeyKQGzJ4hMiNeJtM9jvqITDIu36BAzExsqazxHOMhND6qESBv37Yn1DIe7E6Lx/EqaWyMp3NzRO9r+HuG0PYcHD+1DnE+qLuE9jPV7k0+J9V2/8ANv1bvK0alQhIQfnb9Y6UKWpUBpbCaDshfbb22RnVOJ4N3fKhNphtHTZFeGGZ5VBDokVs+9n1Dq4lI4KHkb2U0PqYJfQH708+LG3ayGz1Dta/KULRi6042nBC1tvG042nG04qX7Jx/fKGawoWFBRiQ1NkGpjyYhE92z6h3mA1RMOExfTOqe87Xf8AtzfVbFy2/XZGd1ma57jw3BfSwzTU7HhsjmUJ56KBEphBkNs3cU2LGqLHtbhwTMjey+odTBeei+mdF8MNhtG7iVAiRHPeHEGWmz6x9O7UKFAc5janGUsAjBYIsMCdkLI212eH3NrokV03MyhfTkmHM4zRMhNMafqXVvw4JjGsEmjZ9+IXOyNMgoMOhvCZUV9ENzlBg1Q58XHeVhsYPHjvJyhOhMc2Utkd9EJzl9LDFFZxKiNEojtZXMzRPdbEwb7hspP1MySQ3gAo7YMKGWNHmkvpoPhs35jiqnxnODTJo4o+NCqLXmXFfSQ6WVHEp7wxpcUB9TEk6qjoj4kSMGuxbuTvuQ/lGJEivLYZkBiV4f1DXNDXuO/eSj+t9XL0s2EgAzQjvplDhz3I/UfUsa4RWAE4KBDqI5W/7KixqSGtE3lOhfVEfdkU+J4jmtd6cy+mZJpcfVs8d73EQh8qJF+phDzUma+nh+Wspm6GJ6Jk47i45V9QYDfLDb5tdF9JD31abDnHa1+UoKYHGwYm04i04IWtt42nFCw42nG02nEfvlDGwoWFN4p7Kgv+PHw8QSUAeHFc3psiQWxMUPpWNx3919L/AJO6bFY5xaDv2P4XN9VsTC17GvbS4Jv0rBExJ2/UfZf2UCPDhw5YvTIbvO92JCZkb2X10/AMtd6H1DaBDhAzlJQoYht//dn1wM2HRN+ohFgNQ7KHOJFr4DYCDgdkH7TO1r88P5scJtI1CgvoAhv3FQvV7io8/BfLRfTOaYLZfOw4FQXtYyh24iIg4ETCisrhuaoDnNAhuhu3ceG2ETAe9pBkTiEDMT2RmeJCc1QI7Wjw37iE97C0ycD83MzRPdY4yBRcXMbPnC4JsH6hrSwPaG/7X/HkwcTUJnY2F9RC8rKSOq8Bz8zvXvHDZ9XOUM8A7ej9VDOTzHRQGHxIr3DeoxIkRyuX0khAbh1UWOJEM39V9JDohT4u37PqzuYJ+UnemvhNY3zNwUQ/8iIxowCa0NAAwX0++PHJxmnODRvX00NrojnS3T3bPq3lsLdx3JrWwofQJ368VjfRipbvhRif+OZKFQPphM7pb0WNix2tZlA3lNaGiQ2HOO1sck/UbppuAUVjnObIfOyK8sbMCaG8IYu72nEWnBC1tvG04oWG02m04j98rjYU2wpsQVS2zGuwZtjqIYdLivpmzcXbH8O9zcXd7X4bS9rcTt/yfFgYxuDQE/K7smZG9tga1uDQNp3xf+i/4sCc6EABgor6W9V9MDVuw2QftM7Wuzw/m6Fg73HYGMDphontjMaaTL1C5ueJ3scxjszQVEhQmsNLAMFGeWjdjNNMxY3NE91j8CvS33i5nH3HaGtGAGx2dnyj9HBJnvToQ8J7GCUwmiQA6bHtDmkETUL6eDIOoVAqB6S2RPpmPdVMg9EyAxmG89VBZRQONO/ZFheIyS/45J/UiF3RBoDp9EcCmAGEAdEPo4AM5FQWUxY27SWwxCYwaMBij9wdrXgScZIYWjE2nEWuwQtbbxtOP7RtNpxH75XmnivPqv1NV59UQ7VAO5lJ2qpfzKl/MqXcyfDOIXjt5yDovEiuPlcV/wAY4vciAD5CVDj8xKP1HLNCFFimZmmwqRKZVH5FObhvVPdU9SqPyKo/Iot6oNVH5FUfk5eH+bv7VH5uTofUrw+p/tUfm5Rm4b01m4eYqg87lT5sxVH5lUHnciQMYqMVn/1KP1DfyKH1A0cv+RrUEN4n4i//AKlUnmKl+picFT+RT30+oprHxDOaZCpG4qk8xTW+UeYqk85VB53Kg/8A0cvDP/0ci3zs8x4qk8xVLucqb66alS7nKk7mUNp83mOYqTuZSdzKTuZSdzJ4O7zcVJ3OVv51v/8AoqTjUpP5/wDSANTt6k7mUn8y8/MvPzBRX7iKppoe90yvNqF+pqF+p0X6v4ptc34Yr9T8V+p0U4mjUfE0Cc1zZd0Ih6Kp2gVT9Apv0CqfoEye/uVN2im7RVP5R/am/l/2nF9TNym/ReJLh/teL0XjjlK8f8SmRQAAvEPBv+1UeVVO5FUeQok14cFUeVVO5Cqjyqp3IqnSPkUMuoHlVR5CpnRRIxytG9Q20DCaJNQ8vBVHlVR5SqjyFVfiU5xkfIUCeVVdCq/xKr6FV9CquhXifiV4g0K8QaFeINHf0nO3jcVUqx1VYVYTnCSDwvEavEZqq2qtqa4KoKtuqrbqq26qoTVQ1VQUwphEia3KYUxqphEjbNTRtNpx/gDGwoWFBGDDOLAmsa3AL6hhcFXupY1Q4DfUEIMMcLHcO9zOPe1+2I2YTYjZbyAUY0PmR+p8xkF48Z2C8P6h+vyh9I/iQh9GziSj9NDATYcOkbuCiOadzWqHCLjJf8Y6heBEbg5UR6sf9rw4xxJ/tN+m1Ka0NG7bD+23ta7PD+dr275rxdQQvGh6pkWHv38SvEh8wXjQ+ZH6howXjxDg1OfG0QhxXYmS/wCP+SMNjRvKB5ZhfqzlUgHku3qiJzLw4nMvDfzFeBqUYQDULW5n97Ynp9wRYCjC0Koicypi8ypi6oMicyoicHFUxdVTF1VMTmRY6bZleEeZeCEIbV4bNEWNkmw2loRgywVURqbGbx3Ix28N68R5dgq3LxXcq8YcQV40PVeMzqmxmSC8dnVeM92VqhwpbzjsOa04FC0Ym04i0jcULRbxUlJSCkFJSCpCpCpbopBSCpGipGipCpCkpKkKkIhUhUhUBUojf/AGNhQsKbZQzGkIY2u4WlM497X8O9j4DXL/AIo5k2BCDsLX5SohPhblDLQ2qe9QBv2/5P8AracFD+23ta7Oz5skDwXhQ+VMhMIO71Ff8eGvAhoQ2abInp9w2nzxyEAAh5npmeJ3tiZDc3NE72v4e4XM49za/PD7m04FQsje2wxi/cwIwt0yoLGynJbvEl0UlJGGCvBajCEkyE0gFeE1BoG05ha7ApuFoxNrsW2nApuH7XG042m02m0/vlDGwoWFN2PeGhV/UO3jBQolY63OxHe5nHvbE4d7hndbEyu7ICbfhf8AHE9xTW0jb/lPttOBUL7bO1pzs+boeB9xtien3DbEDmvrai6I5NbJMzRO9sTJcMz+9sT0+4XN49za7ND72nAqF9tnbZDd4Ty1ydE8Tc0buKY2QX+X/ra7AqHlFrs47WuylNwtGJtdiLTgU3D9rjacULDabXWn98oWFNsKbskYkXeohpavpxIEoYm04jvczj3tfw73DO62O4NY5QvqJulTb/mPttOBUP7bO1rvuwvm6DlPuNsT0+4XQ88X3Wxcn9XNzRPdbE9PuF0P1e42uzw/m04FQsje2x8Jr8U1gaN2z/J/1tOBUPI3tac47Wuynsm4WjMbXcELHYFMwtGJt42nFCw42m02n98oETKrbqq26qtuqLgmuCravEaq2ovCa8IvCf8AUhpyp0bxCmuaABv/AKTXSJXiDqvFb1/peK3r/S8VvX+kX4bivEGh/peIOv8AS8RvX+l4jev9LxB1/pNcqx1XiN6rxB1/peIOv9JzsMcV4g6/0vEHX+l4jeq8RqrCDvO5VtXisXiNTo7AnkvmVBlUvEavEahGYdf6VbVUBFnvyrxAvEZ1/peIxeI1F7ZJkRtIG/8ApeKzr/S8Vi8VvX+l4rESC+Ge6rCravEZqq2arxGapjgG/JVbNV4jOZeK1Vs1Ce8bu68Rmq8VnMvFh8wXiw+ZeLD5kxwDom/iq2aqtnMFW3UKtnMFFc0sO9eIzmCrZzBVN1VTdVW3UJpFT+6qGqqGqmFMaqKRJvuCmNVMKe2GR5t/qO2YnLY7Oz5UxYcCoWRva0/c/wCtm+adgVDyN7Wu+63ta7KUzAWz85tfw72uwTMLeNpzWuxQsNptNpx/fKCkpKSIQsKapKLBLsMUPpnjfPeocX0uxTcTacRc212IubnfZFra8zCe6JR0koUN53gpjSMVLb6z2tOCbgLXfch/N0PA9za/0+7ZEeGDqhCdE3lBoAkpJmL++ySkpBRcn9KQVI0VI0VI0VLdAmgTf3UhoqW6BUt0CobyhPaPLu9SpboqG6Lw26BUN0CoboFDaJHd6iqGcoVDOUKhuiobonNbUzcvDZyheGzlXhMnOSMNmic2eCbCigVDDRQ6HtnJUNVDVSFSK/hUNVAVAVARYJFNY0gbl4TV4YXht6rw2qhtaoCpVAVA6otEk1okqB1VA6qjqVT3VPnKo6n+1R1Ko6lUdSnNw3lU9Sqeql1Kp/Iot3YprOpVH5FUHmKpPMVSeYqR1UjqqTzKR5lI6ogzxUjqpO5lJ3MpO5kQdVI6rzarzarzaozW9ebVeZefVGa3rzarzrzIzW9eZeZebojOaH7xTbChYU3Cx8JrlCZTO05haUzC12Le9zcz7fqB+k5fT5LR913YWuynsm5W9rXfcZ83Q8vybYvo9ye6kTUNtRqKEaHVTtZmf3ti5LmZn97Ynp9wuh4H3G12eH3NpnDcTLcf9KsCGB0X04lVZ/k+LXZSm5Rac47WuwKbgLfW61/p72nBMwt42nG02uQsNpQsKH7xTbChYU20WnMLSmYWuxb3ubi62LkKaAMBaPvP7C12U9kzKO1pzt+boeX5NsT0e5RuAVPkkFHaA5gbim4DYzNE72xMlzcX97Yvo94uZx7m1+eH82/UO3SUNs9yaJCz/J8Wuynsm4C05/i04FMwFvqNruHdCwpuFvG042m1yFjkLChY7H98pthTcLChYU205hczC12ZtzcXd7YuQoW/5Xdha7KeyblHa133GdjdCyfJtf6PcozZyK8WLKVKhwXF03bWYxPdbFyXNzP72xPR7roeB9xtdmZ3t+oY4yc0YKCZubb/AJf+trspTcBafufFrsCmYC31Wu4IWtwtONptNrkLChY604/vlCwoYWFNwsKZxtOYWlQ8tr87LmYv72xvtm4fdd2Fr8juyh5G9rT91vY3Qcn97S8AyU96iej3XMzRPdbFMmf1czNE91sT0e66HgfcbXZmd7SoMqG9rf8AN/1tfld2TMotOf4tOBTMot9Ztfw7oWswtOa02m1yFhQsKFhx/fKE5lSdqvNqvNqpHVAHVSdzKTtVJ/MpO5kA7VSdzKTtVJ/MpO1QB1Un8ypfzql/OqYnOqXTG9SdzKT+ZSfzKT+ZSdzJgMsVJ/MpP5v9KT+ZSic3+kQZjeqX/wD0/wBKmJz/AOkA/n/0pROb/SlE5/8ASYHzd5uKk/mUovP/AKUonMP6UonOP6Tw+ne5SfzKUTmH9KUTn/0v1OYf0vPzKTqz5uClE5/9KUXnH9Iti84/pSi8w/pOEWRm/wD0m1Ujev1OYf0vPqv1OYKUTmCIfUN6Aic3+lKJzD+lKJzD+l+pzD+lKJzBQg6jNxUovMP6UovMP6X6uoUovMP6Tw/yzdxXn1Xn1C/V1C/V1C/V1CAdM71+pqF+pqF+p0X6moUSqlefov1Oi8/RfqdF+r+KFc34Yrz9F5+i/U0C/U0CfX5ZyxX6nRTiaBTi6BTiaBTiaBQ6pHDMVOJo1TiaBTi6NU4mgTvEqZhivPoFN/KFOLoFOJyhTfxATC+kSAkpv5Qqn8qqfyf7VUTk/wBqbq8u+Sm7lVT+VVP5FU/k/wBp5dSdyaXyHl/2qn8qrfyf7VT+RVO5FN1eVVP5P9qp3Iqn8iqdyKp0j5U0ullVR5VW7kKrdyFVnkKmasFUeVVnkKqPKVWeUpx6Ko8qq6FV/iVX+JVXQph6KroVV0Kr6FVdCp71V0VfQqvoVX0KLuiq6LxPxKr6FV9Ci9B3dVKpVIuVfQrxOhVSr6FF25A9FX0KqVfdFyBVYVYVY6qcz++U2woWFNwsKbxtOYWlMyi05hcz1d7YmW4Z3fFr8ruyZkb2tP3W9jdDyC1/o91zMX+62Jl+Rc3M/vbE9HuF0PA9za7ND73Qsgt/y/8AW12U9kzKLf8AJ8WnApuAt9fxa62SbacbXWlCw2lCwoWHFD94pthTbHJuFhTbTnFrsEzLacwuZ6u9sXJcPuP+LX5HdkzK3tafut7G6FkFsTFnuuh4xPdbFy/IuZmie62L6fcLmYHubX54fc3QsgtP3B7bX5T2TcBb6/i04JmAt9fxa/C5tpzWm0oWFCx2CbY5Cw5kP3ihibCm2FNsKbxt9QtdgmYC31i6Hx72xctw+4/4tflPZNyjtafut9puhZBa/wBPe5mL/dbFy/IuZmf3tiej3C5n/ptfnhd7oOQWn7g9tr8juybgLf8AJ8WnApmAt9fxa/BC0W8bXcELHIWFCx2CFjkLDj++UMbCm2FCwplvqtOCbgLTnFzOPe2Ll+RcPuP+LX5XdkzKO1p+632m6HkFsXGH77oeMT3WxcvyLmZone2J6fcLoeB7m12eH3uhZBafuj22uynsm5Rb/k+LTgU3C31WvwQtbx728bXcELHIWFCwoWFCw4/vlVSK8QdU76hjUyOxyrag4Ktuqrbqq26pz2yxTYjZYqtuq8RnMq2arxGcwTHN1VbdV4jOYKtmqrbqFUKsVW3mCrbqq26hVt1Cc9uoTXtkN68RnMF4jOYKtvMFWzmCqbViFW3mCqbqFW3UKtuoVbdQmObrxVTdQqm6hVN1VQ1URzZYjEIPZzBVN5gq2cwVTdQqhqgR4j9+iqbqFU3VVN1CrbqFEIodv4JhFI38FW3mCZFa7iqm6hVN1CLh4jd/AqtuqqbqFU3UKpuoUxqobhSN6qbqFMaqYUxqnkTZv4oObqpjVTGqmNVMapjhN+/1KY1VTdVMaqoaqI5sseKrbqFUNVUFMaqoapjhXE7qpuqqbqFW3mCqbqE8jy7/AFKYUwpjVTGqmNUwjfv9RUxqpjVTGx5E2b+KqbqFUNVNTCqGqhZBafuDsp7Zp+V3ZMyi31/FrsCm4W+v4tfgha3E2nG11rkFPacELDgm2G05v3yuKKd54kk9rW4LggFJSCkiEApBUjRUhUjRBoUgqRoqRoqRopCakNFSNFQ3RUt0CIGia0SwVLdAqW6BOoaJkJhY8bgqRVgqRoqRoqRoqRoqW6BQ2iSpGipboqW6KluieGgYcVSNFS3RFrdAmCcY6KhugQAqcqW6BUjRUt0VDdAntFDt3BMApHZRpBuChsAbgqW6KkaBeXxAN2CpGioboFGDZSkmMbSNwVI0TAKQqRoqRoqRoqG6JzRNu7iqRoqW6KluipGipGiY0ebuqG6KhuioboqG6BRGiWHEKlugVDdFSFQ3RUN0TWibt3FUN0CoboF4bOUKhvKE9oFO7iqRoqRoqG6KhuipGiaBv3cSqG6KhugXhs0VLdE5rZs3cVQzlCobovDboFQ3QLw2coTAKQqG6Lw2coXhs0C8NmgRa2sCXBeEzlC8NnKvDZovCZyow2gHcmtElQF4bdFQF4bdFS2vDgqGqhqoCoCLAgxpC8Nq8MdVQOq8Mdf7VO9UBU91QNSqOpTm7kGBUKgdVQqVSqFQOqo7qnui1eGOqo6leH1K8PqVQqVQqOqo6otVCoCpVCpUlSqVSqVSFSqVSixBgVAVAVAUpH98rioh3FQyK5lVeI/dgjuCP1MjKSaZiewOBwKcQAh9SxAzTnAL/kucZQ2zQLpbwnRaQmujv37gFEi0N6pn1T5+ZTXqtdgm4BfUOIZuX07SGTJxUeID5QoLKGKLFIfJqZFeN0QWw8tj4ganR5ymOKhxnuiS2RDJpUBu6rVOe1uKhxWl7tr44aZATTvqB4cxihE8SC4puA7I+aLLbEMgjuchgi4DEomt+xzqRNNivEgocabpGx/p73Q8X+62JgO4ubi7vbE9Puuh4fJtfizvdDyi133G9ja7KU3AWnP8WnBC31WuwQt4m02m0oWFCwoWG3j++VxUfIU1s8VCDAPKomCg/T1eYlDcFHJwChQqN6+oyryBolioW5gX1TvTqvp2BrE7BNnEjKUl9SC54CZ9KOJ2eq12CCisqaqfqTukZKF9PTvdiok6Svpm75nFRhMBMyiyHl2nBNLZkuUWLVuAX07JCrXZFMyGobgownFaF4MMkhBPyFMMMTLt54BSqOCoogkdE51LQmMJBdOQX07nGeyODUJJsL9QVabI4mAmweM0ARxUUTcoUqQooAispsfizvczF/utiYDuLm4v72xPT7hdDw+Tsmp7H4s7oWw8otP3G9ja7ApmAtOf4tOCbhb6rX5ShbxNpxtchY5CwoWFCwofwyuKeyoKHBkDNf8AH37nSRb5ZKFpsc3eCgojZhQ4DRv2PgVOBnsOChQw0k7IzeKY8HZ67X4IW+v4W62HlsMBqewBsgOKZlGyX6yOCeIvqUOGZnznb/x4c1RvbLAKL9t/ZRvQU5z4kmgblCZQ3Y5ocg0CJ8bDvdLbFHFCK8NAElCY4uqKmBidr8Yfe5nr91r8B3FzcX97Ynp910PD5Nk0/FndC2FkFrvuN7G12U9kzKLTmtOBTcBac1r8ChaMTacULHIWOQsKFhQsdghZx/geqwpthTcLCmbZbPVa/BC312lMyi2Jiz3bad81MBH9R6Znid7Yv23dlwUhZ6/jZLaVCaKG7tkeF4jZJkw0Tx2PzQ/dcz1+62LgPcLm4v72xPR7hdDwPc2vxh+5TthZBa77jextdlPZQ8otP3Pi04FNwFvqtflKFozG042uQschaLChY7D+IURvVJ1VLuZSdzKTuZAHVefVfqar9TojUhVJefovP0Xn0CJfomzU3aKbtFU/lU3aKZngpnRTdopu5VN3KnEywU3aKp3Kqncv+1U7lU3cqm6vBTdoqncqqdyqp3KiXaJpdLBVP5P9qp/Kqn8n+1U/kT6iW7uKm7RVO5VU7lTml3BNFODUJzduU3cqm7lVT+T/AGqncqeTQ7dwU3aKbuVTdyqbuVVO5VN1eHBTdyqp/Kpu5VN3Kpu5VDqoG5VP5FU7lVTuVVO5P9o1Tbu4qbtFU7lVTuVVO5VN3Km1ebd6lN+gU36BTfopv5U+sjDiFN+gU4mgU36BTicoU4nKEKpu7qb9Apv0Cm/QKb9An1bsMV+poFOJoFOJoFOLoFOJoEyvfhiV59Apv0U39FN+idV5e68+gXn0Cm/QKb9Apv0Ch1BoU3aKb9FN/Kpv0RJqG5Tdopu0U3cqm7lRL+VML5Dcqncqm7RVP5P9qp3KpmrDgpnRTdyqbuVVHlRcZYJpMsFPop9FUeUqs8pRcasqqPKqvxKq6FV/iU527BBx0VXRVfiVX+JVX4lT34KroqjopnRVfiiTPBVO5VUdFUeVVHlTidEC7RVO5VM6Ko8qKBOim7RTdyqZ0RJQmpnRTdopv0RJQLlNym9Tf0RqQmvMt63rj/AOYWFCwoYWFNt9Vr8ELeJtdgmZRa/Fve5uLu9sTI7td/k/62lQ8jbXYt73Q8X+61+HyLm4u72v4e4XQ8D3Nr8Wd7oeUWnMLSm4WnP8WnApuFpzWuwKFst6lYcULDaULChYULDbx/gcbDaUMLCm2jMbX4XDMbXYJuAtfizvczF/e2L9t13+Q+204KF9tva1x80Pvcz1e62Jh8i5uLu9sQ5fcLmYHubX4s73Q8gtOcdrTgmZRafuDtacCm4C05rXYIW+o2lCw2lCwoWFCw28f4BxsNpQsKZhaMTa/C4Zja/ApmUWuzMub6u+ye2LkN3+Q9hacCoeRva12eH3uZ6/dbEwHcXNzP72xPT7hczA9za7Fve6HlFrvuN7WnBMyi05/i12BTcLTn+LXYFC0ZjaULDaULDghYULDbx/gHHbNFCwoWFMtGJtfhcMxtflKbgLTmbcz1d7YuQ3f5T7bTgmZR2tfnZ83Q/X7rYmA7i5mZ/e2L6fcLmce5tfmZ3uhZBafuN7G04FMyi05vi12UpuFvr+LX5ShbxNpxCFjkLChYcELChY5Czif4DlX0To7QeKEdp1VQQO9VBVt1VQ1RITSNVMaqYU0U20Zja+5uY2vylNwFrvuQ7mce5tiZTd/ld2FpwKh5G9rX54fe6H6/dbFwHcXNzRO9sSW7uhbDOb3HbNTTzvZ3UxrsmpqahkBuKqGqmphTCd9xvZTsOCh5RaT+oO1rspTMBac/xa/KU20Zja7EIWOQKmpqaJQU1MKYRIQUwqhqqm6olAhVBVhVBOKqVQVYVSqxXmc6aH7zk7BN3xd6fQ0KGZt2SCpCpCkEGhUNXhtXhtRYE1u5UBUBUBUoN3lRXUJomJzVPUqnqUW9VR1Ko6lUfkVQeYqnqUGqnqVR1K8P8AIqjqU5m47ygN2Kp6lU9SqepVPUojzBU9SqepVH5FUfkVT+RTW47+Kp6lUdSqepVPUqIPKd5UQ0yxxVPUqj8ivD/J39qjqVT5zv4IbyRMqnqVR+RVH5FFu470GbhiqOpVH5FUfkVR+RTm+Zm8qlU9SqepVHUqnqmN3v8AcqAvDHX+1QFSnj/9CpCoCoCpCpCa0VO7qhuioboqG6KMMJKQpb3VDdFQ3RUN0VDdFSExo37uKoboqG6Khui8NmiLGgt3KhuiLWATkvEh8qAY4TAVDdExjZYKhuiobovCZovDZoi0VhUt0VDdFQ3RUNVITWgheGzReG1eG3ReG3RUNqVIVAVKoCLdxQaqAqQqAqFT5lQFQqFQi3cg1UqlUqlBu9UhUBUBUqLpNQ2zG9eGFQF4YRYgxuioCoCoCLRJCSpCpCpCkgFJSUgiENskdjzKSCc9jU2K1xlsDm6/vOTzuQdJyk+K7otzGprgTuU0HT2FNsKbhaMSvqHTeAoeRu11zcTa/KULTmF0PD5NsXL8hRzMhqbgLCZRH9goe989hcG4oOBUR4aFDeHYWuzM2vjGcmpv1A9WOxnq91sTL8jbNCIx2B2AyL+68Vmu1+9yfuDPcLofq9xtdizvsjNe6Ul4Yawzxkvp8Dsh5Bac47WnBNO4WnP8WnAoW+q2oFC0Y2OMgszlUGhMitdtchY7BMbLYYjRxVbdVUCNyGx0aWChxa05Bye+SqdOabgorpYJoiTmTsiOluRYJTcocPzzUYvpk1D6ckbyvp3HeP3Xp6hsDnIAAKJN75Jm5+5PfvkmiQ2FN2ueG4oRp8EME6I4u8q8YiU9j4zp7k2KRig3xIie8MCbGaU2IHYJ1pQOKEVs7HnyovDQmPa7DZUJyTnBqMQucnOdqocbg5T2w8Pm2Nl+Qm+aJsiPqKg1S37HeKC4OUBEyE00mK9ASR87iqqXtLdN9r88P52tkyc0ZvdMpok0BeIGTnxeVMSnwUOMXvlLdwUWL4dO7FTe7fNGK5wkob57jsiunuUJpqmnGQmmTc5yc3eEMAolUpgps8VEwb7hsdU9AvbuKaZjYzj7ja/FnfY+KG9U+NXJg+VDEhshZBZEjFkQCW5OiVOElDbLeosQ4BQXRPVsiOkExuB2PdSEIz6+myI6l0+iZGqMqbHZSm4WuMiU6t6gOdgdkWJwCNQ3qE6ptoxNjjMqmSHmTqGjqoBMzsKFhQUVxnJOb5d6aCoYxQUV3ALFMZJRjIKHUpVFCENj/uKZBGyNVVMBBr3HeoYlsiOkFCZK+ana5Fs1DYQ4op8N09yYyS8Lzz2lDa8TcgAAuCqLZ7kAXOCdgmUjFOM3KA2Qmo2bZ9ON5KdwtKc4ucQNUYNDcd6hnyBVPMTdqnukEycnKK7evpQZkopzpRJpodEPRRBThomANFR+E/zPn1sh5bY2X5UEYp2BTIbXb0ABsiCqKfhASCeKmkKBDLcdjw5s5YINPl3IYKYCnPY7Mza6E1xRZJ4GyIN3/Ypzy+TeAUKHSFFqdG//ABUfp0rw6Rv1CaPMU7ApkMlASUVlTZKEJVIN37CJhAblF9PuC4LA4KmabsZx7m1+aH32Gprz3VJbJyaZjZDyiyNCL3TTIdLxPTYwN44obH5kzDY4VPXht2R+CZlFjsCm4Wxp75IVkKGySOBkmQnT8ye1MEhaMTtdgmhHFOhHgUYRkobZbChtiPIO5T3IKkItBVAkpSU5BFjnHcmQjxUk4AoNCpGxwmF4cjaNlInO6W2Wye1yBs42t20gqQCCpGipCknQJlMhAEoBOhhyMJoG5QhIJ/DvacFAhedxUUEyQEmyVXhuO5eeK5PaGw5JkMOfvQkBuRT4JLkAAJJ7anS6LwYk14MqbIWW2JgO+3w2zntaP1H2vyu7INnT22RIlZpGChiTRsdmZY5s5HTYzfV7ihCaDPZSJzlsi4DuNtG/a3PE72xcG+4XM9XuNrsWd9paCJLwuqAkFDyi0/cb2OyQ2uAIKh5RsLd89sWZeBJMEhY7Keybhb6ypWPwQtHGySOO2WxyG0tBRwQsKxQG1yFjrW/uGx6pVKkpHVb9VJ2q8y868yBKqdoqjoqjoi78U127BVdFX0KrGhVYQKqCqCqCmE5w3KoKoKtuqqbqi4JjhvXiM1VbdU4QnYoGGMJKI8KQPFBzRxVbdVU3VVt1VQr+FU3VVN1VbdVWzmXiM1UNwpVbdVW3VVt1VTdU8gy38VWFW3VVDVVt1VW/FBwrcq26qtuq8RmqrbqnPbSeya9oaJ6KLEmKW/Khho3leIzVeI3VF4L2qsLxG6qtqraqgobse68RvVVhVjqvEHVPcCMDiq+hVfQrxPwcvE/Fy8T8SmuNT93FV/iVX+JVf4lVnlKiOmB5eIQceVVHlVbuRVu5FUeVMJ827ipnlUzoqjyqo8qJM27uKmdFN3Kqncqm7lUzoodUsFN3Kpv5VN2im7RGdQ3Kp2iqfyqp3Kpu5VU6WVNnJTOimdFUeVTPKpmrBTPKp9FUdFUdETuO5Aqo6Ko6Ko8qqPKpmrBT6Ko8qrOiq6IndggeiqOiqPKqzyqrogSpnRVHRVHRT6IqZUzoqjopnRFeZTcpvU3ret68y8y86NSDXKTtVJ2qk7mRB1Uuql1UlSiFSqVSFJN/cNjkLONhTbRaMdklJSRG8KSkpBSRCYMVIKQUgpBPG5SUgpBSUgpeZSCkpBSGipGihjyBSUlIKQTuHdSUgpKQUkM71JSUgpJ48juyaPK3sqRopKWx33GfKkpWM497YmHyLm5n97YuA9wuZx72uxZ3uh5Rac4tOCZlFpzWuwKbb6rXYIWttONptNpQschYcbR/AfbxsKbaLRibTiLSmf8Atr7v8h7XQ8otiej3XNzvtflPZDAWu+4z5uZx7m2Ll+Rc3M/vbEwHuFzPV7rX4s73QsotOcWnApmFpz/FrspTcLfVa5C1tpxtchYULHIWOQ/Zb/AdbxsKba21uJtdiLSmYfNr+He71ntaVDyi1+LO9zc77YmR3ZNwFk0c7fm5nHubYmHyLmZn97YmA7i5nq9xtd6e90PLacwtOCbhac1rsChbxtfghaLTja60oWHBCw/tN/gOQsONosKZa3jacRaU213Dvd6zacEzKLX5md7m5n2vyO7JuFpzt+bmce5tfh83NzP72u/9uZ6/da7Fve5mW05hacE3C31WuwKbbxtfgha205rXIWOwQsKFh/ZKb/AcplRIjgE0xNFUi5VKpTCqCCnYy1vG05haUzC13DvcM7rXYFQ8jbYmZne5uaJ3tiZHdk3AWnO3sboeDvcbX4fNzcz+9sTD5FzPX7rX+nvdDIptdnbacEzAWnP8WuwKbb6rX4IWTQU1PZNHMpqYUwphFAqY1UxqqgnEIOVQVYVYRcqlV0VXRVdESpnRVO0U3aKblvW9eZb0Zpv8ByCibSpKSpUlJUhUqlUoBb15tV5tV5kKl51+ovOpvRqU3qbtFN2im7RTdomTU3aKp2iqdyqo6JxO5TOiqOiqOiqOiqdyqZqwU3cqqfyqp/KqncqJdLKml0sFU/lVTtFU/lVT+VOqm3dxUzopu0VTtFU7RPi0NmQmE7zqpu0U3aKp3KqncqdVI7kKtFN2im7QKb9Apv6LzTXn6Kbhog4nCSm/ovP0UOrze4rz9F5l5ui8/RRKpDuF5tV59VJ/MpO1W/VAb3b+KkdVI8ypPMVSdSnDdjxUuqkqepVPUqnqmjN3VKp6qjuqE9uTuqQqAqAjmACpCawSVAXhtXhtXhtRaJqgLw2rwwvDCoEkGhUhUBUBUhEb1JUqhUIt3INVKpVKpUlSqVSqU4INVAVKoCpQCpCpCpCpUt6ksXqlSRCkpKSkiFJSUthCFht42FD+A5DBPdJwTHz2OdvQKFlXmsFotOIuba7Ed7avOWoZja7ApuAtdmbb9S6pwYOGK+nyfNr8pQtOYdtn1DvLJfTiTTth4H3G2JgO4ubmf3tiYfIub6vda/091MbHmQUJvqOxmFpzCyaOBTcLTG86FjsCm2+q15CFot4p7pBMbtKmF4jUHA7ChYULDbxsKb/AK4Iib0AAiiC6IpOLpBQ5ouXjiaBVMzsiRHTk1Nr4oKsprphPiUhMiVJpnO05htLwDLa212IRMkyI5ztsPeXOTcTbGn4ZkoZ8g2TG0xG1N2PeGjejEiuwXiShVEb1BYXOmUz1d7YmR1zj+oOxQcneYpm4KY2MiDDrbEwHcbQ8VEJz+AWA3rxHVOlqoZmETITTHPLumyK6e5Qy4GXBOMggYm1uLu9sV0qe63xDPY7zvltZhY9/BeI4P3qe5TmsQmNLZqJEpCFRbNNe6SY+ZkdkZ/BBsym7giZBeIXFAI5Sm4WnMUHmewmSJe5RJqFOkImSnNOeeCd4gUGI4u2Oi6JjpjZEL6im1koYJ73Hc1Qapb1EfJNBchDClsNptNvGw4JuH8ByCiQ3EzCayJPZQFIBM9Si4IMa1syhgoeVPwTGzM1JYKqs7k0SanibgnlrQoGX5tOYbS0FASUWNLcEC8ColGPogZhPiUoRnfCdiF9Q6TB3UDJsEQOmENwU8y8bchFM968begn5SmZR2UYyEtVAzHZFfN1Ce2TQoWQIziRDogGtCiOMV/QKGylqMQMLtZqFGr3YGyJkKFj9wUxUOyc7RALFNzqJgoTRL5tfh8ja4+c90xqjTkExmKAkomIQEgnYFS8v9IAJ4mEwzG1uLu9sXAd1DwTjIFQhunth5bDMu3IN8wmovBoTBJqLjVIbKCTNylNkgmNpCl+pPY1ocSSpSdsjO30qGyQ2HBNwtdmQGyLwUyqE3BeZxUtyk8HcE4OlvUFqeeCaza/e6Sa2SiZUxqkiw1zKaNk9jkLDa7hbxsOCb/AcmlTCmFNE79gElFmdwTYbjmUk0SCIQbJFPEwobQBse2a8PVQsLfUNrHEkpybBNRLk9hc3cvDlSENwUw56zulwRzBPhh4kUxlIkjgoENwJJ2PduPdQmT3qJvfIJwlJTlD+E13kKbgFGxamgDYIZ8QkqJvewIbk1/hl25FzohUGFLeUTIEqE2tznFRTTEhysiZDaVSK/hSUlJ6a2SfKSgHcbYuA9w20ic5bWCRf32EA7XiQ+QgiZKHidrcXd7XcO+x4mEMNrMNrzvkmtknZ2qQ2U7DgmYbANgaQUc/xsLBOe04JtvqNkk/BCxwmFDwT2kpoPHYUBv2EAoCWx2wpjSDschY5DZNTGqcd6rbqqgqwqwp71UqlV0RduTf4Dk3BSVKpRaqeqkUGuqXmQmplTOin0U1MKpqqCqCmEwjephTU9hxG0ADYUzBSUYyamQqk1tKOZtwAJKAAC8IVTTmTcCpJ+5u4IYBETQG12dnzsLQcQg0DZF3w3JsUtEgN6hwyXVOsi5HXf5B2uZbFwHcKamphVDVVN1QcKnb1W3VVt1VbdVW3VPILVW1VNVTVW3VVtTXCbu6qVYVYVfdOdgg7oquir6FeIeUqromOMsFV0VXRccqq6InzBT6Ko6KroqjoidxTTuVR0VR0UzopnRb6lMqfRVdFV0U0CquirOiqOiq6KfmU1UdFNVHROM0C7RVO0UzoqnaKbtE2pTKm5TKmVvmvMvMvMvMjUvMvMt63ozQB1UjqqTqpFEKlUqgKkKSkpKSkpb1Ttdgm/wAApuH7Ix2y2SVKpCpCpCaBMqkKgLwwqFSqVSqVSdVSmjcqeqcxxcgwjiqTqiDUFJSOqkdVJ2q36oA796k7VFruYql3MpO1TmmWKpOqkdVS7VUnVUnmRaam71LqpHVSOqkdVI6pkMTJ6qk6qk8xVJ5iqDzFOaacSqeqkdVT1KpOpUjqpeYdlSqVSqFQmhUqkKkKgJ7QJd1QNFQ3RUN0VA0VDdEAJlUhUhSCkFEy/IUlLbJNxd3td6e6lazC04i0puFvG12CFvG1yFrbeNptdaULDbxsdgh++UU39kY2FCwpuJtONpTcLTmFzePe12BQtP3G3M9Xe2JkN3+QdroWX5NsTAdxc3M/vbEy/Iubi7va/wBPe5mFrswQsKbhbxtOBQt9Vr0LW28bXYhCxyFjkLDjbxsdgm/wHJmH7PGwoWFN42nG0puFpzC5vG1+UoWu+4y5nHvbFyG7/J/1uZh8m1/Dvc3M+2Jl+bm5n97X8O90PC04i04JmFpzWuwKbb6ja5C1tvG12NrkLHIWHG3jY7AofwHJv7PG0bSim2nEWlMwtOYXN42vym4/cbczj3tflu/yD23Q8Pk2xMB3Fzcz+9sTL83NzP72v4d7mYWnEWnBMwtOf4tdlKbb6ja5CwptvG12NrkLHIWHG0YnZMKacdyH8AqRXm1XmU3aKZ0U1UqgpoHep2DadjbTiLTgmYWnMLm2uwQtOdth2Q8Pm2Jlu/yfF0LL8m1/D3C5uZ/e2Lk+Rc3M/va/Ae65mFpxFpTMLTmtdgU3C31G1yGye1pUwphTU16lNVKoKoIneg5VKpVJxU1UdFUdFM6IzW9b15l5tUZzUlSqVSpb1SqQpJ2CH8Apth2SUlJS3qlUKlSKAK3rzLzLegVUqlUqlPeqlUFUFW1FwTTuCmphTCmET5gphTU1MKYTSFMaqYU1MKIRSgQphTCmFNE+cKamp7JqHh8qampqYUU+VTCqGqmNVU3VVN1UxV8KYVQVQVQUwoZACqCqCqCqUTfLuqlV0VXQqroquiE6nKZ0VR0VR0VTtFEmWrevMvOvOvMhOZXmXmXmXmT5yW/VSOqkdVI6qR1TQpKSp6qSI3hSVPVSUlJNCkpKlUojeqVJSVKIQCpVKoVClvVKpUlSiFJUqlUqSAVKkpKS4qSkpKSI3qSkpbHWm042jGx+CH8Aptht42i0Y7JKWw4qSkqVSEWoDcpKSpCpCl5gqVSqVQFSE0KkKgKkKkJzdypVIVKpCkvUFJSVIVKpCYNypCpCpCpCe0UqlUhUhUjRSC9XwpKSkpKSZgpbZJ/DvslY3M/vbEy3DM61+Hzcy12IuZhac1rsChbxtcha231WnG13BCx3C05rRibHYIfwCm8bDaMbRaMbTmFrsE3C31C5nHva/Lcc4uhZbX4fN3r+LmYWu4d7m5n97YmW4ZnWxMPm5mFrsW3MwtOa12BQt42uQtbbxNrsbXIWO4IWHNaLHfwSm4mw2jNaLRjacwtdgm4C317J2N/9tdhd6/i0pmW2Jh8i7/J8XQ8truHe5uLu9r8twzOtfh82BwOGxmFrsRczC05ha7AoW8Ta9CwptvG042uQsfiELPVaLH/wSp7yquiqVQRIU7ONoxtGNpxtdgm4W+q5nHva/C71/FpUPKLYmA73f5Pi6FkFr/T3ubmf3tiZbhnda/D52xXSYV9Px2MwtdiLmWnN8WuwKbb6ja9CwptvE2nGyacpqYVQVQTjvVQVYVfRVnRTdPBVO0U3aKb150KtVv1UjqqTqnD9n//EACkQAAIBAgQGAwEBAQEAAAAAAAABESAxECFRYUFxkaGx8DCB8eHBQNH/2gAIAQEAAT8h+C0tfCuVNlLqeRSzMjpXvUst835p9bapIA8UzM+VUnr0p9Tf/hgu2p5eYvNV3Op9Har3N6V6jpdmW8YIqHhhEEENCFoKoeXFm0NpGwbIhEbB6Sc7qR3ESiGrITfqOYcw3xuktRD1IBIXNRgIKNaPqJa0fQ+hOlE6HUvZYJawlqJ6i645hHR9CG5AWYbwnECOv/WLcqqoZYpfkpfxgM8r44Tu4sQ2fLqf06Kn1N6vc2+Puwp3uflV59Pu7Ve5vT5lLsztqX4KclUvc3n4i5USNlSsqK9PGnjjGEZ4wQK7/gtFb4VyqKlYpfmpsq3l0uqd/wD5U2Iawu5IqfW2pte2f/DhJ06Vzn5fGXevFT+jX4usZ2NP+GLwSeWWU2vm80KovQqLC2h1FdTxpV1PGnj/AOC0VHBS7oVF/NTY6s30nS7VHyqXao968VWY6MGV8sVPt7KloT3zq97al45Hxxe9M/jLu/ilstemdPnUuzO3pdBGAVqbXzY8cOKnhFg8a2h1eNPGnjS6XF/wkySSRBvG4QNwvIbm10ENRzB0rMbo3xu8WVoL/Q1Wl9nuZ7mKLPuJdXkyoLc6pACiK3hmexm5N11Mr/0S73GJyPYz2M9zF+4f6yBV5GbZgD1M9DHmxy3FDr5i1gkz/s3xv+oyrXcbw9ZG+PUy22I74DfdUb7AJ6iLNZzJ6yWskEwlmF/IlrJD7UKX/iepGaXGvBzCGnQR/gbHQTpTLHuTE3i+jx32InAQ0NubYT1YfpHEF/QT7IStSVqThCnS+14oyEkLUyUepvT5lLu5HYfF9oWKni5qeLkqbwqLH/zIVDpcX/As4YG2bA4U9C1unubGCDgxjDvMUxkN2wsZ2VMdtNlWaVM7Yd6iUKwtqo2x71+KvZa0Qdr8VXcymCWfR1eFT2FEEBV0SGhtI2Rs+hwt/QWiNobE2+A+zTiDaI79SG/UierfgS7D3k2O5At7iC36jE92Pe6m51M3OoguL6iePxI69TPQz2Mh/Ugl/oKaOX1Jf2Jf2JFMm+WViRTCQSB8iTxcbw3eAgnamz6Gy6EfwYXHyJ2k6EbLqeljSWRsetAfcWAJLjOYcw5GJ1xCF6EQ/gQ0ZczEBr4ibxNwjJvG6jeRAamBOEjapcf/AAXDcGjCuRDzhnTSRVkcPh3ImzJSpWcyLvjS/VC1nZU/5psO2pfbdLsdoSG4sczY+ptV7nWn0tnVdzKfVa0TWyN7jzHNcbSe5tT2FT9Twp9zep6Q/XfgkdruCRJSQSrpyQrFjm/NPkYSNiY7MeeT8Q0cotp4ubon5kZmmNyzJizx4eYqLSzCMIFfCMeOMIggQtDaRtjYI8BtGwbREa4CGr6kVx6jmCg3/BYImE84VPGaYywZwTZl7XGsh4CZcMOCm4lgXMJcAUouyF4tcqf8U2M7Sl9h03OR24+VuLiSLuMhNNJpyn8Feq1pb1aOrzabHpnjIEIeeHtbfGu68KbPtnVb7M6Gdw/BNXCi4ZkD81mZdtCO4fmnzMW8Ds/jA7csU+Ri2P2JDw2nMj7UcVxLGPBzFai8W/OOk6TpP/g2B74jRMrDGmuWEjJNcj4fDSWjKSU89SNJWO0F4scqf8U2s7Sl99S7HaEidLEflMahzk+GFttU8r80+hs6rudTZ9s6K1h3vj8Y7zwpse+dVnqzp7rwEEFOalH00EvOblsUxK0YeR5p87HjhY+R2NLpO3LVN3MoZCqUzLt+EcRKHmFQKs7DysIjY6hYL4jpOk70v/gOwVE4nTOaiIqeeJk0m8giSfEeVPJzHyY+SlPNypvHZqnuVNzkdmcacgks9EIX8Fh2FS57Z0+vtVl+902/fPFqUamZ20ItZqd940+D5q7jwFQs+znVb6M6fS2IkkTE5FYhM8cH6z809o8eODszt6XjMg7UTJTfz8WOSsgrJsPWXrR5BUHNbXEs4PY1I6eRwEMQTzFW+AOk70uk/wDg5CCdInQ6kh9C4jXgvShglxCWsngrIFghuQ1fUhq+pzOopIh2wds2e+Ama2wOZ1Ob1ZzOoiV+pCHP6iXaerPQxIteoho2ZDc0pGr4vqbnUxwO/ViGVpT9l5J1k9DZHV9WcomzndSG/Ujv1Eqc824W59RhnnzNyE36iP8AQh/UJFx6hEGecOwtzqze6mR/oe9ntZrXzh5p7572epk/6mvb/wDQ9TJYAe0jeCZV0qeg9cuhv+iPWkepC56X0ehEafQjT6HsRzI4ouGFPuydJn+gePJP/YbjRn+w/SNj1FpRl5XOPWz1scl/VHvY/wB14PazfdTc9UbzqjgnEbnN8dzfHqIQ3sIuRZmTdgHoLAsxmHoSZyPZRM5j6UN8/CJ/xw3pQ83+JMvhaEC/yIfwNjoOf0Ob0EzvwG6b5ZSmauW4GyNsbyMlnxGuJDUhqTqIDyQy1JWo5XgWiCcRTzjJlUN0mFQ2T/va7S6fZFi+JdkdlT3Sl2Z2Xx0afRenufj489VrV6m1Pgeau8Xin1Ovxp5viiK32LpZYpdInSLKb+bCCCENLpIG0bCNghLmQrG2NkbIeiNCNhhto2xMjcJGvU53UjuPOQ3OdgJ6h57snqNxiE05ucxzYPqNAsD6HIjO/wD4FTVBlzpby03hW+LXeRYqXZypuchpft8aO+8qfQ2q8inP7edXc+Hxnu14Io9lqL4of2aVdrS2Xs6bHyOwpdN2hZT5VPhptXMsodnUV6hUO9LuKh3/AOQYqaeboZc6XZTeFT4tPaFip4adjOwfGbJ91PcfHx57LWr3GlOWpbo/FLx7uYvnMmdi+Llj5Hb0uyl2pZTfTWeVNq50napdS7iodxUiod/+QYqLLlDL38S7V49SVl8T2g/TU+i2qbveaW6ny+PHj2c6vYaU+F5+NT1etE117e1Lsdi+LVj5DdGl28qewLfiqxSt+6VjLKVd0u4qGFTKh3VUvmZFHbGywD0gmWR3wZ73Qn16Cc8mfYjo+hH+GE48jmEyngEkiZHx9Ue+serai7Y18XoQ4JzBxlATSvJhMvSsEgpMsIusDb/melHtRPoA9HJHBRJcIT5+Ml/Ibb1yHCE5nZYJsv8AzPWsAoik3Q8n+Is3+R7kelExtPdbGT/NHpQ4Ei3Bmi/8S4XvA2uhm10M2+oJv8MRcXO5z+jOd0Zu9jc7PATxrrhsc3oSuM+mG2IjWY2RnRE/UJv/AGNkIPlZp4NsbQhqiGo6vL+gtRErU2hnRJtBF3jIUdK/AnBWthc5HBacJUtU+nG5yO0wkSNkJcRWkGnxHbyp7Qt+J7XKl+4YnFsmNSbNS3SdJyqLkKi387IMbCNlG0h6AmbIIYlzZBGMYYxswijuFTYxWocCZTxeSCMHlFcYRQxOkwzi1Fj3HyIX8Rv4r3Tx8bek1qTqeFEHiYQtCGiNobAVNcWTwbI/OOP2DYECSX9jb9Dbj/kEQLkn9iVwjrKvESYybrqJNkZWZpZZnEY2j+jb7my+rIccS5IT2TJseY/IMRLpxPc2RdDsFmPDc8COr6jiXsRqyUGckdX1I69Q5JnqEi2cslmZjKUnmQ36nM6ipC3LeuhCXP2HAv1I6vqcz6lv+h6GcQdjIZuuAmSdFIOKLm5N8bzobjoaswe9HtWGepDeYwBsOhGpEA1IjVAXKhJrE6EbA2XUkHwTqLR9cF7WM8ywSWonrORlxAtrORkdGR0ZmoSbkNyOA3PzmNnwnBi6leyUbxOHQDPpqriSEMmrzjZ9qlneYzg0MKif8XkvsdxEynmWJeDHbCyDtDswzN2uIiXZr7i3HcuQkIR8nR2VPpNKrMEplSbsTyhNnOC8kkiyvExphnWcwxCLDWWDYUQPBNpOCVhI66dw5iZH6vNV23xTb7M8G0rsZw3yQZGd1/Sw84kozT4oF7+Eh3FzeO7FpeS6hd/Y7M7Fhy6G7EhLNZsJVZJhwLbMLHirZ9nbBolLcIiw8OpPJsgJQh0xumWqnvqbPKqsodhKGK6pVIiCCBAhGLuIjCBAvnXBUOMWNhxjxBF9RTMhYNRywpS/0iBcMbVyUsv5qblMti8v44y+wgi/8lg1cONxvQOqZzeY7QPX3yL7yGFgruM2ZA45plg5IafcjOWCjaTOaecqjsqY9A6USI0nmRvAnJhmbFOayUseJErcDJwwzUMijmyWnMS4tyNillzHJypjWgSSJKywTmJsQKzqkrRgxRey+xdMzPzEsxOd9VelsqX9Hjgs45jIDeXCz8kPuP8AwJseX3MfIRbk7TbiPiMjsW+V3Yghpwj5Mu0UmrSJHJPWjJ5EGTmtI0zIO4Pvg4mhQPTbq52kWBjOiYSK7TaaEiW1Vh7GpVz4NrQZeHhg0ytLjMk9QuBnlZtOJHWmBLY3CQtg7QW+i54d0p7MtQ8o0U0dx/waNSrvjwqRUXKqL510XwNh5ibQ35/NMsXoYxvE7XRezcXuMgAwyfZUsv5vi36QmR5qLNJiyWDxlyIblnBIVV3MtDtBKpOD6DL0aDhBGOLuwcQVmZBGy5hsnaXCJLOPkOzqCH3eAsdyxdRS41tpZZPMbI6Mm6YiWUpQm+CSibpja6MbT0FJkp2ZrQ1lzQmyeTJiY7ZDMFqSYe0Ya4XXNCdwbnY5NMkFT6m1Ei0QwEz/ANSJZaqCdEJnMOJV31EnhNy1zIy7m4TqwTJJVZyZ5dAvEnaXY4ylB0JVPExO2UOU4Ea2oeETUGJmWktDMz6mciq4Q09wXUfGwxtw0+8GFXOFZNpIzbHecQzbwNE6SyQk2hSRlKbMnUnCUgFdUJVgwJrIjgdsWqArGeymIHaW1Dat8eS98bx0PAsoTMVFwqLlVF85XCoZpobIltTxa7oiU1k0xuwuSbJKXzPQ74eITQ6gdLNjEZUkqJw43sofS+1Sg7odrGk1DUnboUYomJqU8y+xf+pYgSRJaIU3VYnXkhmOzqDvvCpIwdoVaksZgWb+01L0Piju6IazZPNGdxC40ByW6PY2pz6Qqm3PhQncsK5KMF9WhZjsnkJoGQNjkXTBEJHwZkclos3NQcsN9m1Gey1GkbNV37TgrOw5lMS5qVa1DQuhcoO0FoSnA6JE5HAVN/Rg6UHeqclExctcqGd/S8feKi6W0M4qeOqQsXTcKi5VZfOiWBGkJaBGn0ND6GuHtR6UelD1AvnZomWfFA46AOGWjNX3sKUqbqLtJzJgwFwC9LNcuc/Ue9npZJf+ozULzzfU9LM//phU/wCgq7fnqJEjN/6DJVsxi0nAE89Abf1PWRwt+0JcXkjXc6CAksjcSNx9JpkUIzXNEJvsSjjG5orF/wBkxiZOfMa2cyJu43G9thyse6j3ke4j1UOUj54uWB+gjOO2zyPeRlX9EQYKDe9Ee9HvR60iPJreBF/A9sidDsLKaT4PDL7zKnfI9SPShqOSTyHq6Q2arZZJCe8hbdA9KNr7z3zFyznd0OXuE+JfUfB7gzz5ywMoOOQ1oF/YORcx8PrH6Q0YJcY016m364M1lGUl48TItnmNrlDXgj+xqBq5SJ5lZCbxfoLX9Ubjqj9xEAy3fU/YRvzedUTZhZaoWTLJHuI3ok25PiPkmwy6QWr6rCvcRMGlcAjrMTL0o9SPWhPLL0o/LPwT9ILESxZ9Da6Dm9Dn9Bt7iSs+gma9D2I3uxviUyb9GwzTkQt03kPWOOCeoWobY3kSLiaJWpDUhqOpE0SSiR80J0WhfMy4L4VxjuZAmhaJyuBHOE+LHFErLaVjfyKXUrFzWOYJZoy5Ium4F+B8syJk/MdpS5IbWZcOjiEN7huESqIewo11LETuTIl/7OB8TmA0oYwVDEjB2Z2un3NsZ1W5BXzqjWboKKcZcIjZk1BsWhuQ4lZnoPZN9n0To2qf9hOsC7ulSb83PU/WJPOUfua8iJcKfb2pXIXBjZCOxQmw56OJjwE1IWTORnMOSbiFxGJE1xOZcDkmjNOZPzc8xnWFbGE2cFkbaEi/SQqUDedBxv8AwLqbeS0GtcX0PIwGrRBa5CIwg7QtIxg7gggjGrCCBX0C5EIghECZsgghEIhCGhDQ2jaQ0k2kbCNk2g5rG0bbDbY9AS6EcDaFiwLmENyBBfM7DZvhbKDggcJNS/Tdz02VLxKH82YuK3QYL41EklkqH6Ip9XQdoNCMyxYcfq9N7kdrp9bah3yMbOAfj4C+jNh9RK4PqIcJYsxCN08k4X0J8lAykWp2HxT3i81N0vgmi3443pNKe0Oz4MXkZiWROtjU2YaTI9shoQL2JYi0aEHLi0SwLHtqeyLFPcVZUdtUK7pbqiouQqGtTwiovQvn3PiXFg9Ni4PMnKhLiu/iJ1Dw6n6SputxEJ8ReQ/QuBYrtvOCx7ZnYabT1lU/q8fhTAxzULRC0O2+Kb3Neau1+KbAKnOvVnT3zxT2h2HCGjgyL2bOzIx+/Ons2dn8TdqW6e7qKo7Qeknm6X8WNmhYycAqOAVqL0L5rC9ixsGyosLBjiLELySduI/xHMs51PgCp8emUuKyGKtaioVnb5p7Znaae2q+n1pSjQiBug8U3OflV7G1NplTZSu88Ke0Mi9uD9OSeqIhgdvq9PbM7Z8Ud+LfKnufiHYD5Ke6pYXwywKkqaouQvmtFpHiptjViSN45nQm4kETVn0Idn0IIp9iJSTWwmlm4kUPMj4dBsdYej1jY6wtuFzQ1hbfWNrrCdw6w28OsRJ5O57kyL+GbZephTsscBaPWPUx6kzdfRi3+jFz5w44DRxfRkHF9GJ9m+jFLu3pBPCZxmQkcX0ZvvoziXUE7XoxuINZktzVnoz2Mbz6M3X0YwyU20FI2VLiN7qG4+jIf6GXMuOTFxnJdxzehvUGF0l5Ny+3hdsJran7wqC82UThDwEFy2hnREbDyOa6G1xhv2BBRuvOCfsG0NofrCWYuPsNKbgJvAbiNt1LgJaQ3EQ1RK1JRwkUrUlanGMySMsrJ+AtRErUlaknYDL6xNFl+s8VPETktHDU7N4ZNDciYqOxZ2VKyfKloZKi4WqVdVKizS4RU1RaK1FgXzWC5shoQ0ICBciCCEIWDES8qCCYy8EZgSoh91LpQdyLGMPAIwg4IG8mTWbWgTsLmIM0sgRgu3wgggXNyOyWMYW21GME9rjhCIIPEILQngQ6FQ0ENBF9fwQtCGhHQ2kIk3PyNhD0RsjbEX/kWksv8G0PziL/AMj8QXUEWQm4ehtyW/SJ/wDyPxhuVH/6n5B+QbM2YgqGbfg/MNscEyNXUZJdCFNKyS5EEsNVozafU2Dj59SQNo2+7Of1Ob1ONLakpcBsvqxv4PqxK/piXwfVjUmXA5nUjv1OZ1ZvdTJy9tSENzqZudTIf0FDj1EGnPgRFH+p62etnGMz1F+wkuImE/6jJZjIscmSH9PCGIpnmN6bo32D4gFq8ZvUicghRwBrh7SNMXjYt5ARrRGh0E1iWsjSOZHMsBaWjnRzrCyE/wDAcXP4Wwy0L+oERJu9Pe02Fzm/jzvKbfoMmsa0tk03cjtFPZ1W9GtLdsTKGvHjFPhvj6e1NzmvNXp7fG3tNafYaUrmKq+oUgZ5B2y2qNHvOnsWdpS1M7Jj9CleCoKi4WaeKm2Ki4VHBUKi2leiz5/HzpW0rKGJm6e5psPI/jROvV1+QuXxC7kdmp7ep7m9N/LHfOG616LCBZks68LDsvim9zXmr3dvji31Z09z4UwIt2PZMxMSofvzp70dtSmV0u2Oy+cyxlqniE6FyCovQqGGyobIsJJwtGwnCwL5/Hz+JLVS4viDtU90Klqt7KVS3cjtXxo9jenxBqq4DVAk6m5ecfc2puc15FT7O1Pg1PPr509+8Uv5CGaGORTNvrOntWdsqbFPsmdlTOZcqfNSZapbOIWNwqLhfD2llFgqLQvnPmySa02QwknBi7mpaoN3Oll9gvjEr4nd5GeZp8fHaEY18sVZrshkJ26cIWlHtbUyj38qm+r/ABT4NUfdvS/UeKbGJKgOji93p7odiqbNLtjsKfAvix2HpXRKh80LFHAKhBaLaduCMXyC+ejZnE9aI/Mj8x/iIJ9SPWj2If5yFkfcj3o9iHxjPZfCiepHqR6EML6kepHrQvxD4vZhf0LDvQsCf47WD1IelBO8g9CsGf5iuaK9BcZMHHwQSSW1ygX4sCbYQBGl0JYYOGcCVwPBDgQZBEM9UPILlOHQiZI0ehH8B+AWjmHwOIUOXJQUuZImBt/8RfJxOG+LnR/HgqzFsQoEtPoehEfxkfzkfxmRUvnkRPgcj0o5+k9KJXlq6tzFvHMecT6s9sy3Od3TCmegniFPj6pmaDEDhMcpkq7xzNDrmRx+Z+iQxfoP3Gfvn6TP3y7JM1if7T9w/bHwuoJn+qTlAD9w2HU2Q2Aumi4E8DZdTZ9T0PDOTuosqLyuHwO7Bvax/uHvEWkQnPfZ7GX8/UbJHWWout32b/qj9JD/AKSPURfTtY3R+osK2Ma4zXFq+2GkEgmyYlcSKZPBRvnhi3KENnLMKKuPQiBRBT4M2egjoz7D5iRWZkBI/wDyI6MahNkTMu4gENGQ06BcWZss5nQ2n0HpdBlRfNaXOk+VFtJYeSlqew8ynz6rqW/zXkVMPrlT3Q7TS/raVd4/NN/IFS07f+KfQ3FT7e3xUz3WtPfPFLEpXZ6vT3o7FUQOn7A7b4hclzEQQRixg0QhCsYEzQkQQQKshCMUQkiCCBMsEEEC5FmEIgTL/wADc6LSyiwt0WHHzp8im4WqfL+O3ua81P0KXeDtlLVdn+/zSnr0FT6+1Pqbip9TZU2Vb2WtPpNKnmlut3mnux21Lpr3I7KlgqLHMTp4+dDPCKi9Co4aElo1FwsospWiz/jSwtp2UWHmpfxAmN5PMVPl0+dVdtS7sdq+Pnn+ab+XV721Nv3zq9fb46sftnT3nxV5fmnunmnvB2ypdJ2x2VLBUedFlDL3zpaKouxFhwllFtK4OThJZSsi+depWU7VSa/Onh5Om8dtTdbMVK5cynN6L1dvT74di/4OX0tmKnuvimx7Zipb26VMqWn0s6e8ePj/AHbzT347Slul7QscqX40+dU2XEnix0r+alw07aElrxzhZUV858Kxrv2CuXJZ5TG7iLKiQWARUhP4TbG1Gy3UEplLmTMcO2p+8ZZwykX9w2PU/SP1iC/MLqarI/XE23XP1D9gmVqKBWe4fvH6R+kfrCycqsx+8fvD0PU2wwi+43GP/Qj/APQ/YE7/ANjZlvM+o/eNj1P2j9Yby1xb6wy35BO2rGftH7QqxpBJnAftH7x+kbYQnST9I2hvI2g/lMp9hqy9TbG0NobQVnS82xBwm26mz6kBksFD/sbPqbptjZdRDMX5Ezh6kd+sfqD43WM5SPILWRvI2BtjaCykn9DaC03U3EStRKZLvAv7Q9MJdUbxsjIh7+SUZErUkh98hqiVrhDVDdYN0VhKxeBOPYDqFLJUeVFhOLO4FixiiceAVHAOQxfMN8MbITRJJlgL4FVYJIxSIJ4SECzV7YENBaRDQRoIhZG0bA2h6A0JsI2fQ2xtjSm2NkbA/KF08vQgMh+VhysIRyJonoQrksbI2Rtuhtuh+QSOSuzbdDa9Bu4OhtBay5ohaI2p/HGToyZqD8Is5WR+UbI2vQ/GFchcWWrBMomb0EmUkekPxB7Icl4D8IRWDMSlmhcDbD2UjbdDaG2Nv0FMkdkbXobU2xtCRNI7A2hsT8YRVpP7H5RsOhsGx6GxLPDMnO5DbfpH4Br9ARwRZUbI2xs+hFZTbD6yP7Gx6H5xsThQLbR/4H/AJLpgz/nEH/gNSJcTan4B+FgWQSG3YbbhtjYmyGQlmCAy4GzhtvAOItw2DafUyLPqKGz6kMSJRFaerNzqZudTHq9Qio521OZ1EuvUfskP6CVc+puOo01fU3uohv1HufUSyyGr6m91ENeoe/qEzxNzqIv/ANCH9CH9Bw4vqJdX1IavqR1dRKuLqJXFkHqcwjv1IavqNEuPUSkdWR1Z9hpuIo7kdyO4rEnHz64HCi+OaCEZJSuI2jz4Am/C16htItYx6bH3GYhE0IZbyH9iBwGYre0MsIGdCwFGyFJSf4pvHZGujcYCDPWcxiZu82RzzG6gTZwLF2PO/NKqRGrJDIDWU9sQQPDMKZY4CTEY82ASUexi4+Mmn0OzElcCeEFmuTQ+NyxyFeQuYhUPBcoRIiFwgfHxKyou97Vdzp9VqKn09qbOWKm77Z4LHunirzqfWbU9qztq1JOFwtVL8Kb9Rdym4VFon8NY6DLKCLRUMr/gOxEOs0YPPnES44RISsNQ65A1YDgIthHKMlIEpxmxoGUOycCRIQmTFIb3sJJKEf5qLUOclci2r6Rl3To4IaWrwPksfehIW9MXYsY3iQNrIytoyWa+BxywIlx5MyAeURDMg7TVdIjFnfoNntXOysJUuo300Nzc5u4pRuUsG511BFOm6ME8wTpSoWQ5DFqclwFR+qIAKZl0N79KljcatU0eztUipbN7Z4QwMfrPFTzvNUFR2TG6XxC5yLGM4Pw+MU+tTaFQ+S54FWyNkPhJJZgTwRbinB3F/wADMISoo1zODVmSO1MeOD8pMDNqwh6NWEGlohKwuY45XOEsIrCVa6YLwpaGLVQxXCGuqG8mWMWMuZYrwsmIzNPBSSlFxJp5Hzk0GQIalQXjTY1ySTJO6iuLiSMnLShMXF5vC6ISsKx8AoWDFC8BYWRXJX/0caBTacfd2qv5vxy93anwhU3PbMdD39sSxfqPz8RO5Ha02eWCx7Q7SlsnLBOhNlgsGN1hYyNkLKP9lmCwswvGx0rPiRhfMzgosEhunYxZYWfeKTQYvGm4Wqhk9lNjMtI/RiwhfzHfMZrSt/h2DxTmTvEk1TXASLJKh+/MQkTnGEMkjWY0IIfiTlCK7SzweN2Haq/m0+o1q93aqlQz0WtPsbMQTJwk8zzjNZO5HZ0tZT7Q7al2cqX6ZZQ6nYFiy37pvl9j0O1K14IoEqOIvnTKjSc3Q9djCj8CNHoc3QasGUiCQnQJJoBk2RsB6c2HUluhwY9TPSz3M97P6UUNvU9bwb0M9jFYcB7WaHeetnrZC/8AYisK/vCvaznB7GPNxhXc9rF+sf6x5OV8x69we2312PUz2PAPWx1OXmFk5Op7me9nvZ72JmZVzC03U9LPez3scX/oZLrI9jPWx/rwR2njGo9rPWz0M9TPYx5QS6cz9Y/WNr1Nt1GhtFuTxMz/AEP0D9Q/dP2CN+Wf+D9Y/YNLqH7wzqSsk/2s/XMjjcz9s/bIFAUg2HU1ENj1He1JmST/AHH6x+sfpEASXHybDqaC9TbdTa9S11mbPqbXqbbqbbqQnk6iGQiNT1M9rwD1scFh62exnsZuupMbSAM9ZPXjxQmZZWN4TCZSJ085ERlrJhMphOYlrNyb0nqITOLWm5NwboY0CAQET1MdtWwB/tPY8PAeQ+nBaKGohFsaBGwjYRsidZwQonYThqbxfM/iBYWsFispVyIo4xZjAxJTbCWMF07AgihkQQRg/v0qxWxgg416zIosZ21PpbUQQJ1dNr2zEsYIE9+lNtUf1uOMECe/QVPnUrn7MVFjLHLGMLVLsCxywgjDwVKEEEYQXcEEYJkxQQLkJEEYJkIQQQWUIFyEIoKmvmY7aSuKhYosLKHXNUMaikbMdti8LIL4l7QVK7TySTje5DdFTlWreBU5XzqbPtmKn19qJMikMWKS9fYVPmeae/CofNyLTb4p7Y7anwiov1U6S5UrRUW0lypW1KxeBfMyzSQsXyLaLaB/BtUM8Onsjs1SvXfimS/m4LF24sZqaTtDLylPePAmSTi+fNFR7rUVL+vTF4WmVPotcFj72wviXcBUXuR2lNul2RbqCp1tPciovVSqLad6nbUqjj+dlrng3iNm6LC2i0s+PCodQ7A7amPXJwQyS3m4zh4fkVK7LzQy5yOzCxY3V8BMZJJJdz6Xj2sxUM9PamwypaV6s8Fi0bjeP+C67Q7SmyFR2LLfKlkqRbSu98UWFlFtK9TtpNYahFKF8rHzsNlxkKaFqQyhEmbuA2xqiEshtDcIajqB1GM4NgTjYLGRng4STh2Z2yJofI51WmkePjeRYzgqS7dnYBUd68Cok8miTN7WYnQz2dsMsWuvhGUUqgUolENUQ1ETysn8GwJWqIaohqiGoqqBsCGpuI3ENmTxENSVqSiS5yG43ATJJJwgqO0OwpYEyaBZhJODdXGcQ2EkodQK1IENSGoqLjIhqbxvDCuMbxsjaC2rmuNw3cJDQk3xiO5DMJaf8xlywo85BMNpGd7iiTaNg2BlojaNgi4CfAS8FzjnEdxF4SqeebELRsz2Mn/Qys2M3/oetkv6H7Y3/sZzzZP+xL+x6WSSLjV9j4Zrakibf2J/2Pczjr4i/QT/ALEv6Ev6k/6iHKVxL+x62TwhDtApWbhkyYp5989rL5B62KS5ZJxIIJ1uJ/7Ev6mT/wBSdTbqLvJlqetl8909rPazdhvjsKHF9T2Mj/QUP/cUOLqKfMHN6m/1DmdSOr6iUlf+mFzepz+pz8Oybf4omi0lyGdxdEKGIUTCPgMqaXm0Ngbc2ooEubNgPjINbK4hBtBhXA2+EbeEi4RDJ4M2hsMJsDXwEmVhdgb74NEuXAm4HtJHc5gr6BcI5nXC53Ujqx2tjmdSGrIashqzVMSfc52R1ZHURI53U5hzCG5lSRpICgyqBgbZsi0xNshRsGwbQ1SEESOhtCEhCEQQEIGtAsL4zeoSUDXAJ/Iy9GYJp7imBlk2ODYghbZY7KHp3h9oLiwraihYvDqkWU+XSy77Z0+5ubCCQrbCVhIAfAX4WAzc83wF8cFPfvxjNw5cTIJIkJpqTzqXhPbPFok23kOWpowRL0eBSRis9BIRLCcbKR7+2EFt4krS5mTrYvVCouchUE5xTYCo7QtVPHypaDh1LnOiUZmmS9EvE5aiafHBsqWZkO4yS5DImEDfSLRuEcIH3KBshRDyJ1RkmkmSVxwsEcSHC7wIY0SyYgiHnckuYRGuwvjYhYx4nUhSREcCFymnLMbFcIkYswkVSFPE0PAhgnonMbykklaNHCZPuWLk/SEznImxaudEjCU33HYSSSSLbwyWMS5sOKZi7MVYUDdn+mW7/BixP3qWiftIrmesvCZ2GZ92QrDMhzx3EalxcSxrJGbXlnHIWsIVsc45ISW0kW7UTlJ0N1vDBk7irgKG2ARBdHkiKd2TI+Mib7EiUlLsZ/I2WSQgys1mOd3FhZrYaS9rDTmplifM7QjSFFyPMuJmySySJDhtaC15z4PGLCSTj7+2DCEpColpt4t8/wA0Z20MxyFsF0uxbXJjUmtcJPVi3qiEvZFS5bgJiVN9B0iGjo7VlihkieiJbhwh1N8xZ4LWdnxGVBj5HenuMWOjLAksx2oVht4RbSteHJ4iTDC2HoWjQSfMRDJdRMzk4gVzLIzFoCQhFSVkXlM1hkaux02+NMjGIieLwRCdBMh+RmuRUFbgxyZeRBEMzUX2Hg9R3MzTdcie0JGBO+w4ayQ+QebBY2nGosIhuYzNkQmyCnCs7gJ+ljROME9xJjU29zFxQXp6CWoYWSWDPIxUZ15TJZ3mCf1C2ThzmhJCWWDEglSN90SMOWEflJMQUrkhYRbDQbbhCRJTlPC65+MZg8mKRcRDWz0kFypXC15mcO4sBrYvOTihM1p+w6Ynl6MvDyQiwZzkmSu8ou3rhMIiQsM1LEzLqJSbFywsp3s7YWXnIWVOIhDWGWKhMTQ3CYshl+QRK2Gd09CyIyB8BaQhZfIRsCx7NlinMgl5CwIIeZPWRkZqhOrZITSd5jkczxcg05hLtnhEWUERDMbBsctCSGiKCQlTATQIBQQszQgJTIMsE63MiWWEEF754N0lyKU6IIIYRwY9A4FReJjYzRAyElEt0HlZWwZwnBOGbIC9jXDFcnNF4hZ4PIWolxI3YayYsj12IB4DQFQSQlgk6s7sWkthDbcNR7xznghoaVe78io7CJDFJhngxcnKlOsFI+iFkd5Wo1J4eV4FixkXwcXaAjxYN6NmWHo9RDEmYWHa/GCxeHYUECUVx7m2GQ5MsjLknjQiEPTX2FtLHLDgZORhJA4Fg6jwDkp0d+LVL7CEi4CxultN/M6EqsWhECRYNCGxdS1mJFLaNygixbIahs0LGTi+VGNuBQ4ktXgIlgXOfUnaI2Rs8OtSN1DOIZeIiX4BtMzmQXOeMYxx8wtc38RINxO7jgWeEboUwyEGExvSoiSC9PjE89I2mE2ZtDItEVUxfzhtubM2hDVwTdwFuF3NgReRIOc4wG3NjgL7zkSijJwFzGTuINufA9qE0QS7SbvY9SE6z7CdN+hzxCU5vdj0I5/Q2Og2egjasHbRiX+ZCJ7BH+J6lg5xPNPGBkE8KmSGWd9kHNh6/qbrqb/qbg+4T3PD7rqetjgHuZ7GepnvZ72Otp6Zm26mdZHM9rwDawLir1MzJI5nqZ7mOVMfsymR63j17mODsEaeE70e9oOSWWA3JvDejktcBMb43JPWPcA1Ib03huCZkPLjRAJh3NhaFEWdwJwsjaNpG0huOYj9D6Eal0Fg5Zqsd98cUwn1E9Rzs5mZ4kxUTJ1+OMEOimVEUbTNPMgggeCCCEQhFIhECBA6wQIaG0RExYRwcTaNo2jaEdQkNpG0R0Ngg35GwQ0NhG0HBYIwMDYNgVL6yBsENDYI6C9jBE2iIj7B0oZ8iBAggk6iBAggaPLIRlhBkV+k4RhGHYvBCo9brhGMCLrkEEYZd7/NWak7ViVF7kdhRBZ5Co7IsRBBGHHyWMEY2CCCDiwgggtCxjCsIwsFRZ8QTJ/x2PArDxdBzj50OnNU7ymw4uanh54zinSGzs6buRV3C8U9+O2VPb/Haz75ipbpvFVFS3cok9HYXxLtWKjtCxTaCo7AsUu6m0Whl1UqOAsotwLGynwUneh/8B4FakyRPA1+ZI8GWUvPNwYxMbrk4Tg2Re5iScJH7GDoXaVezqlU9yvFEjPI1D9DGcD9MJ4ThJZ6s8JJwWV9sxUM7F4p9FqL4uu9rCptU9uxUXuRapTLyp7Yt+L5F8iqjgFRb8Ks4RUO9Dt/xFg2TiPBDLmIeDFlDLqXeCotMifOm/kCHQu2qbx2lDMlT7peKGd+LHKhnYBPGcIerjTa5BUMy8t4Fii1cgqb+Z8d2vunt2Ki5yLdL8ae2LFTx02uaLKHQjEVFy+IbalUO9DZFvzPC0STKSHobFljMsyOjIC1zdQykgNrB2OLmTiy7nqiwnCwaZbum4E6W7AqH6Q88ilJGqe2+KGZOeOyqQsYwefTzpscnkVDOweBE4Is+2YnjJJdzKXzNPCScGkz1JJwkZfQyUSSSOpciC5RKJJJHyBE49kNkiScW8wqPIPkSSiUQHRDUhqSiAyzCTU3kbyNwdCNTaG0N0aQjEeb0FC2M5xPULeJeGGYNsbaHnPqfTDkXLPnZYWiptLcUQiBczMJSA1EkjKBzjZK7G6kaiMA5hEbhnMieCBPiSHoIlayRsI2xtDbDhsIk8uNNI7ry8RUp/xSuIjC/biE+wUWOEX7MD7GehjNPDEpssC1+X2HGpLNOA256mP9Q7LaxAyJZDZH6mHbAbjyUwJ6A5jeQTzMtTYE6BDkawD6HOOboOJfsJcXYRo9D1I9aIJuW+rob832GIJ6TM8gt4lqyf8AbAcwW3feR1fU53U5uoaavqIUDMc3qN/6ZdazIB/OhK1LmBAQ+RsmxisDDCwtnEkRWwjEgQ1ZmriowxI4LyJEgNCBLmIwI4ERLNo2sKA1MYHwbISaERGQkIkCAiBCBAhChCCCBBEEYOhZjXyssLAqQItwQlQh2wMYrsbQWuDG8CxdhqGP1hIjFln3USxQp6RVROgIvqp7l+KeYBzCNNNLsSxUt1hJY+N+R9wx9jrT7rUVPt7U2fTMVN9Ey44uJJLsdncdsLdPYPGYEjsxugPkwnBuEKhlkNKxk7Isp4qYCz4llDqs85ZxmLFArm8W3C2lbS4RUOg2TLPneFBOaWgsHTRCYOeRFKfAQkPJQSGQeg3Bqka0aCN5iJjnQ2c3J0NcJweFWEsYMs+8Zw7sSjbsSbhhJzE/GDknFk4oc3vQkTrNPB5D8T4sUQSb6IeTlWg7fQtuXrzm2ZWM0PDthUPBbVRmeYoJzicx5IXcuL582LCcPRamWDHEozbjJzmHJ2v/AANz1mT498jCPB8UTk5bsZ8SJE654GIRTJCGgWyEows0NThcSRBLm4C4Q1ItRtJ5C4OIuYRkNZMxrLmGZH7MkQkCM8YoxIYdoWKWgGIJCFpJZLEGUl6E8QiZcFs0hDsTlI5OA5Taw2sZtBlzDdoIDW6SuXYREq4YlTVHD8O8WvljBlhZgIRSZIyGh2uRJSLg2Y4sDJ9DMjwGNCRDaRsbQJkZcQIyHcvBPF4BMkvpAiRGuFbiLFoRjEQXEk5od2MQXEMoPCBripKXAUW24m5hVeBj0chpUnbiQkOSlxNJ2wdA+xGsZINrHBodCgltGVcWLy/AESZQUcboWYyM2sz6eIkUCNDkO4DvLuZzxlg8Xy+meCHLpiJS7iZDXMe3N8RaQibTwFwCdId7cLEmj6j4ESSIlGCZbF0u8bHN4todl6iPUJjNawjERn2F0TiBunYwRSbAoDiRhS4YZNCAm+FzlUJJQsJwExZIzZvUSAlmRRDzgHJhazHZBVxKMM2lhKDR9hCRAficRCWCTXCypVF1Bk0LxZ87LBEG4bmIO2AmJA7TtXAbtwkQiJBGAxqESMG2E2pYSGW4sWMEM0lJQ4H9aFZahtqHcRLMzdpLaKEO9wAQaFzkI9jCJeogSsPDwiHrYm3gxyaHZGZ5ni4jNcTkV8zFhBAnJyzNltBE0XsLccEbgBDtyvyFi6FYPDOhweYSockOSOBOniNdHQcJcU+o1Fg2oyTrg1KgclO3phdcVyL0ZYRBHPr8LdDo0ZUW2DoG5IhEdgydptZ4JFhc5FnCHBqh5FjA3lZ4vm5FlP8AkJiZkQESTmWEYQhbEJAzVMRVmE4wKEmYmzBM0IsY2Nu4iwahshsiSGptBMBA3zdweOJdGR0ZzjOZFn/CQRGuHMRLUNPEmGMZ5sYye1iBBvm6PURIzG4Q1IDeCQy0DLBpUaGSK7HcUIWmGVDJxXEhCthejiGrUcBZ1eH6BAzEK1SOWJCFaCvA6ryd8fEknZE0Mazt+EYIcQWvm8Zwze1mJCGpuGyNiK5LNp9jYmzNgbAvTivJFxGwWoRjeEMp5yGhtvobDIaCSx3G6znYJSQT3hC6S1EtQm07bE9Y5tgngEsAa8jgOSZUsSN5kcDaJiQkHNPIclYngKJITk4J6CBPTAMSwgssR2yLkhhsm0bZLwIBcp9TnRzmcsxbiNRGsjWLqNVN4bg3nhpKJNZI6ESJEjISEECZiz52PlSO6FhAy9hGBpCQhhPQHpFkUAQMjRmOYlqzejeLsfxDbUL94FkSN2XQS1N1ivBMOLXFrRot4b0cZlQrOb83JuzdFxOIn1G8N4b834xuppPRnIs2cJtRvBthFvB5LcczOd9R72ZuLIQLcvdkTnYwg5ItEbc00NkbAjMWZsGwbSNgRL0XIaECCEQEQIRCIRCFjBQQiBo8jIIxy/eIhEEFjLWEYvxIwgguci0ggggjOQiCCC1cy0jCBxhgggirehYRhwC+CZdTx0XDKv8AhbKHcTxdFODixY2QoKiyKiz4wOw9J2xYqe1dS92nICpfe+avU3pzBKn29qfY3q9banxaWeZ09i6VjLVLfbT2xbTxU2LmWU21V8wHDSsU8dF0s+d4MweLFg8EFR48XgvoMsYNkkjZFgZNCVDPJjOGQLFT2TqfLm05vo81Tl5vNXub028sWLeHeLxT4nkWCx9vanwxU+R1ZUXORnXlT4RUdkWfFWfZbQ6cHGKiwL4TgpW+QqOOlW/OxCyh3FRAWLsLm6S54LBndU2lihnl0s8gsZwCZNHauh4W83BY3uaonB955JwnBsf2a0IaBli8O0eKX7HnFY9v8YzhbyxU+Z0+eKi5yLfxDtCxVSotXMsosdWc4qLAqOHnSvVTTJJJGKUbyIaiplvzNYlmQyEwNQOQLaR3wGogQ1JwY+boQJm6Gd1SuYs1NDwnDi5iovllPbMVBGZualobmqn688Vj7G9EDpIixeHaPBIsb3pnisW6TxT2oVPmZJJJJ54sJJGyY+XGSTwixk7YbJhOEkgmSiSUOoXMfIkgStRtQKVzeN4gNScwlIYhOgjchuQPsSQJ1wHiPpmshMSeYgE4hPUlqzmeBLIgbRERJi35mRg4udJJECA1EuIlqOO7FpzHvJEidA5NktDlZynIPJZDGt4iMXeI6m8bxvCbxvEdSGpuD1DMZ8TbG8iJvIlMyEpZvG8bxHUzHYS6kNSGpJHUZTz4iGpDUjqPWQicPivItZGyNsbcauAcRjeN03zdN4gO7w9zDiMlvtZLRnOwk9RLWPJi7I6LYeC1xXknSToQnoROw+onD3zPofU50RrEgz4oiI3Zvzfj1g6L8RPqyWpLUT1eGc7OYc5PVjGQc5znNgyfIWDM5jJZk4sMEaHhgpYwRIDMxAiQIEIRIkdCIiAkwQIEsJEY8IqLdNznRdLfnZYXMiiseAqDL3hGDRcIRAaEITLgiQNgRAuBEibGA1KBAiPAE586YhUshJBsEMCOg0voZHQjgQHpCn9jYNjA2zhHFCTQ2DYNgbSGllECGhDQgQEXU/JAyIRATtiWCCCD0NiCMb/NeaIw71eKWyclVn26W74qHZlilsnKnsi2nj+IdRXCotCpLKLwqVUdx/zVdSr4F2L3Qy5Q8AqLhYpZKh1C8K1KdIVDLPN02+TzU6vzvGcPEFT2TxTd+qu/XimxyCpvc3T5wqHYt02+QqdbTxio4KT41ESosio4Cyi+k8dDLnRb9irz+Gwakpk4OoudDLgvgEjjsicWTk5E4JJG8i14FRK3xy0J4yNl9M6Jwn13wnCcGyc35oR4wrU+tsTRf+hUv2ycJJLXILBuFIrlpw8jqKodqjtqe2LaZJUcHMtJxsqK/mKnVHB8RHQZe6LFzF/wkyiRziJvmqEkXxYjOLHcqGXBMnGyKi4WOVPDS7FmAni8fcT+ONjPBugJJo4vd6u8fmhHg1dg8UMbPzQrU+LTb5BYcyZEltwbNzdPnidDGypthYSSdkWUruCo4OZbRYy2ld7GcLYmSSQ1HzQkN43DdEQYi5hzDcjktBaA2xsoe4UIwpuCBLPiL4P/xAAoEAEAAgECBQQDAQEBAAAAAAABABEhEDFBUWFxkSCBobHR8PHB4TD/2gAIAQEAAT8Q/wDDfh3eUolSibGoErWnuQ0vTOnUgY0vTZNprUSHyfTW9BiP3T7h6P0nKHo2MFfsZQ1IRGuP7Qj6EseKaGLUSES8E+GHpqTm/oekif0wh6VfQ/xL9CRzccPSuP0vPpdqr/1MrWtMB/eiVHXDq1+UJUqVoQ/ZvlSiURn6ZwlSpiUcpj2mUVOJKlaKRAR0PzKlSiYhIguUlZbuGV7CZcF/2n8yfzpTiks/BDGCioNF7dPlAuPsU6/kx+95hRsdmV2Loy/Lp1TdjBunLl18/YSwncDhyXidN4n8aJzxYfolc+nf+jGeE4PmH/KziC9yJcTxBNygxZJjv4Z/bQbh4S04ncYF3OJbxsjHnQ5KVUHjof8AqxUTYaOn+4ej5EI6VNnvNsddroDS9DfTPSWJznP79BKeaHo2Rqjuv2fS/wB3J0r0UBvi+WJEmx01Qjb03DyR6StB4/Qh6fl+ksmc3pJX9LjHR0x/es6muT6Kwj0X94OPQTfxR/t0XW1NYtviEdBnxmO/St39MsNG9KKeUGPXE7Ss3BgfBD0C4Gi0S0yYrNKlQ5TbrcYs/TVqBK0SFW0o0VKTREuIlIQohoet9KTehwhozcQ29Crvwlan7myMNNjAemv7eqpUGUz7b9x0rRYeZ9YejazwbPmHox7n7aV6LjO0L5jGWTjUFUobq9mbNHXNes8DR0IBv5vg+qh2fq+n571Zvn9L6f33LOfrt1xPn92G2taXfo3RdA0Nvy/xCMTMJ8Jnxfpd36ZZemyDKlzjY9NcH6rRImYKh9cNCM5mbNGKS93SNdrOKXHX5Gppi8IaMDA9D6LCB/7qvQMp5Q1uZ97U6Y9jD0fGZ8L0MxMDQTR5QV2H79P6nSDHXegqrkvz6CWx8FfODF9DVHl/MdVLuN6s/hmz0qxeCr0gIf2Pqz6HprFyk0NT+zlrWmKPD6fpZt9L/U88PRyZ+g55Uda6PMqBUx7Erh2ro68To+3VLhSHwTa9DBQfqt6JKglFfQ0NaXfnNmmzTehqCOmxmKwjDQ36mnHDVnHD0KCMIwgaHpX0Xqw4gJKynOIgEuHIxHgjwkY8vcTWs0wr28J/SSz8ML/hj6cCQkv/AGSImF9ydR5I1ZHuQ5prnDQUOwhR+KPA+KL2LyowUcSAuNOPkTnLzOt8kv4HuQKp3XMlGqNxujzPhGj4LJZ+BELCelJksCluZKf+caLv2pOqfZObnsmRZDnKVFC6eIuIqmOyHFPgxKsvGZCl7mL4yIO6yZV7AItpD3GLAdXeyf2yb1eFMyOaGLYlxeyTkJ7x/eI4afhL9U3vkgJ+ZMl+zD+2T9s/M/SIlRheArBP1SYvwz+CT90/MTkVtb0DC3PxxL8RFhfgi1VfeQt1Eo2qiVkqKf8AGJb+ZB2jZu1wdSju4OYkGHjK9yKwrxUG/ISI7icX5Y/AqXnVwVDPyuIi2dmXw9xJZ+BLwGXicgzKr7JOg8zoIjnLOcdKsHW4VSNZ3lnB0uU/XhfNeQQqabJKBBuvszGhGfHk9HzUNHyBLi6u7lTzbMQdVl6o/FpcuM/c66pCLTyNVi8rNujEhlmeh2m97w1qDkaOtZQ1WZv6ias2geg/8wwYDm+YvuL7s/YsRLpCB5vYZiCDC8SPKwJwhUiYK0DRRB4UontLXPqxhlEr7EG5ySoEq4k2O6BAiSoKUIdqVK0qXKsg1pjQCEtEtnKXPtxarjjrWK4JKlR0XOKpWqSiv7i0qUQEwoNwfKcJWlSiK+kXgNaNEgqKPdFQNWURYuX+YGtSt2lzEuAjyCbC2frHkvE/lT+GS/8AChDQcYOZIP8AHP4cVrg9I2X8MAMCILDBkz0y7srVEe7D+5Af+keostWuaUBqjspLyqfKLbryi8IL33jYmbDTgEEGUS9hTixHH2onLjLN/PhgHlSoKr5uU5c4JAl/On9LLDJ3TBAdnBEeBFzpj/twP/hGPgLdx/7UV/OTHjykD4/uTO0KyKR+Bzlj4gW6exOTFZn4wK1xPCZWqNBs29Fc3gxLVlROSQmOZ76eOOIRhh3lG0BxIq4n3Ihx+YxXSCDJjxT2l/8AnL/8Y448cUVfPAl/4JWTn+Qz+OwzsN8p3PE3T4MKxFm2h1GST+lP70w7kAoUbkrzgkRBGEuXLl44Q1fQetYEMS6Ltxyjy6PAFR2ZZsPix7VofehGLhA1ZTI8ZuP5EAAVQ/NBVZG9cGWbujyT4zPgNSOuavL1Y8XP0u92iz84Cw7qgBirGtDnXA9NnD/TrtBhvsfUY/pYPSLCv5/RTjTlIHcgBXCkHmgR1Xw/MN302De3oDNv98fVYfrz6SLf3egC5HKHrnMNhGDszXwKhoTL9nP0/HkZulMsnxISeZ0rV39v2+kkPNKVr0q9dcWUhLYXYF2GNz8MYLlSoZZEqBKgzm1KGUiRFTe7wCUgEqUXlErpOlKxPBDlJbv4o/8AInFr4jhUlxs0y0VxkHIfLGqgfdDbeRN1nlm9mEP/AAPSy3uy7HKHatlvvHAFUHowYhNunKPWQpzCMqmmcF7bCMT5fQxoagAFLA94qvpg84QtRZ+i5S4hwGWy8kGOjDg0hr8aXz8noJXrkB0dPkoEPpmKpbYOdQyEeOCw+wLEbGDM+wvj0GgrqejcZSXOkj0Mw/Tsemmb9hDRN0VRD1Cg8dHi5OpUZkHMPuXaw/8AAMmH7+MNTQh6HKC+lE81qFOazCSmskbOTUFKOTDKo7k3Et+ju0rVhrMjAizPsMw7B9KFudPvV0N9/L+yemt01KoY4CV3iVlgjYSgQZgq1zG/kauiWxrcXg1Ll6bnvCEvRciHoUDL0dA9G1COlT6Ybeg9daukGdwxCK5LDg1ACjkd4wimYNlubLK0YfAfRek2huDwXFDI8bZYXECI7/SxPiT4qHoNz6Xw2fBx9BdxrY9O5HfZQ+JtUbjcZLpDJ5gha6j4U1Z30b1ivsHqvwf3egWPB1SD0oUOW9wPSwv4n5MIwtk5kIKVnOgdzkSej4h9krL6WpcvmOjq06peTD03zxOiyoXD1IZECg3wx1a44EDvH4R3TMLGUIE+R90WXpUGXgEmiaVXfT42Po3Oz71Zxny8+GQ9JDQ9YCEJclwsZhgdjtBgT4CB6CKNGKOCMkIp2EB3YIrBE5zhBlqEs0uLnDQNU0rTiQ9GzD0fVDW9L1PUzbSlSh4EuLLJIS4dctRYQPIGDjAFZcNRolKiIfOIDCc4Ig3EhnagKnI0s1sHkfvQrVh2WZStuMvS4npZe7VS4tRiy3uoqBchuABRhncTP8XsfM2gjNPZ1vxBg63L5P1fps18G+14a3FhXZuze4emjYbN8ZegIMTByobnlHoQN20RVj3SRi6tvd6+ic/Thz309QuSeDDW/RMx30fA4wQMzFLsEBooQpVwKvowl36uXqSaXJPjMt7H0vErg+9GCWg8uVdiGhpl09Q3L+NgBDydxiVQl5Ahq8dmbNGKhWXamUWN5S4TqgYE4tDEDLKIVMRxV5eheNTQPRST0bEPRj7Ybav/AJss484T+xOX+rtOj5f8l0zFcWFG2PApC7PxRPF4glTa32lfF7xRurpZUUlfPAnDd2JAVzMe/lAtvIYcZe6in/SIYQ8wcWdB8s6zyzj29kSo2fLLKOCNNU+WVXzdUD4TVFfZC5KdzHYeBxixTh3QNADkQL7vyxa780cl0pvySH9TAuB7sLp9lEbC0qVkvbxqiQiYHdIKi2KyolfUjuG2MSoEbBDTul2h/QnW8044+eII5q0gFB5ExcLtI2RN9k74reG+TJhBSuLDZPecAq3OOMmBKHTRf0cS8Ds5Wq9682TaBfEYlip9B1BDcK28PaAuL3hAjeKl6IK1m3a+Nr4hTlvEVu/BB/zSLkEWo4H2ymCE8NSC3v7YbHaLKZLgN7u4jQ1C0YgC2ae78x5fdGG6WrfDW0EvGe8eB5RtfYxPbzvxMvRgRWORXRY3lMcWx/kbsMSN/jKDIPYxnIWzWxvJMuyGAKohzlkyr4NI5SqOK7xTuvYxz34kckhCi3qQEZz3IOnFUBuucCM+zU7j3/KKLS6WRPi9n8pYAHYUmI/OTHn4olsry/qF9U9cV9ymDb3UJTZANn+sSd3rX5TPXv0Qa/qNGUaW3YveJcbtF6tPpWZm1MhSZiBVGYQ72YE4fun9PEWk88wX9kI2ciYYjuwXb4MR3lO8oSMsgOIOIGLnPj5Yf9SW7eeC/mgzHthmBOm8zpopwS2Z+cOVSdNKSWHWVlYOREU5gK54yziwFAWyyCRAp1oS5ZoBxLmJcxPbRetBQfRZ9kNv/O9VjkaUaMC4CtWbjpL9GxCDrbFvaDxENHRHsEv0Ku4l7XevoJyPpHXanxGo6fr+npIAPP7/AKbfqb4baGjBT1+m5yvx/Reja+A19L9rmJzj6GvSM1Y0YfqYw0qGm39mdWDKvfliNaqlXFwvy6UaVCTaJUqVBh7SivMlStKmz8feGtTYOaUYSUSpUp72UMoysu4ErSoGNovufE/jTkHxAYiOAIt+CfyJ/MldYL3T2nIl0s6nyxp3eWDWOMMrPlnEPJLePmnW8oXNLDcdmdPlgz80qYO7aFOlXUEAc39pl2KpiK5U7yd8NLZOYkeWpfLN/wDawdpD/wBmZegy1vRs0Ro6BVCXokVdubXY9DFfTr0/NT4x6Ta8nCOvzU6xGHo2H6Y0NankJ5b6eX4j5w9DHPcvUUv2D6TWkjoLo5H2Ti+m37e3UaVuf3MUNCMpVP0dWVGD5uhXodvzt6SOefxXp+Wg3d6R9GI/e8PQqSNv07/SNiSGp8TUNPjTaQhos3u+iQixOEONWKT0PH0GbUPRsQh6r1NR9QXEu9E8OuNFgHoX6tsIOlxlOr6VyiF4j0MXHyT8kI6JPjstlkR1WPqeE0PQAVcfs+kPnvP1Cj0ofp8EH0Ezbo/H05LkH2QY6OllrsPx9IIrheSeosdH3Q9Dw8/8np2PaGtONXh/TEPR8tFfY+k3+necPQb7ybcIaMx7yHo95JtrUHiTZKlSocpt9CwZwjKlQenx9NsRY9G1D0bUISvU+llqjgdBiAm89DKZSRHXFTjT6XUCVHRhL+fpKu1PiHpTDHF9+lV3kRRKXFyxB0NLWcvu9Sxr3fsl61MFz+CHDV0xP2Z9Nz/asIegBWczxlvo5iub2Ti9/Tt/0ppcHXQ0WEXHkSPR8j0m52ivv3k9JycvsIbaGirvpc3MS9F0fk/cH0fNRNPSr7mGpL2cPyhtoaIDfJFj0YN0jsMDVnzvTfbB6KRshqqMtB1dQNtHRUSbPS+o0WbWbuhhhXmCEuSGNGmm7sR4C9mD7WgP+0b1PkiFHgg968IU2+RM0Ca/yl0iynEvNKRXZ4IK17+Iiod5xi9pdE919MuPxT++QfD1ykufEOJHqO0f9Mama+VYhxC8THZNWdY1AYtxwqfwSfwoK697ZL/8JeQmosvjcUFvaAZVD7W6VpjpwnuQSopKYPrUNjEo/AS1gElbrwikI10TuXZ+Yau7uKsloFyC2uWZf/nFEH6giji9gwVleEKjvMLQFIq845YtmylfWVHG7CXKlwEbCjdxe5ewzMWvoyO72YMbOqqnGbs2bYMhScfnWKahSZsh7ihVwbJHFoVqh7ywXmXJGhWeqHMQH2XwwrJVry4UiN2+RhUjbdqqItJ8MEaJEPUcnnOMl3xELDeVx/5iGyb2Tf8AtIpAEje+MG2X3ln5If8AWgvB5nVs+AxWfmJ03mP/AFCDKmyHE8kICN8zwQhzSXF0rdANCUKheDwgS5331GOYmgNxBvrbolnukHE3BTq8PVHgeB0aQeIrU0EJk1g2ZUhvEHV130yOlw0fmfUH0ID5uG2qyjbwTBCLizwkuGly9LB6w9AybStXA4l6Mwe0eIMvRy2R1p7UNv8Axx6GbJdqEP8AjT+VP50IbfEIkCKRBKq5ZMMBylEQlQvRgFwBpiOoo0VKiYmekEqVCZiEAMSASiACpgJsOBWASkQhzgrp3VFxCJXCAfoYiQhlVuG5kISn6uyZAn3oXKJUqUQGPk/cCY0xNhz+/AmNQIaMf7xJUqVGGK7GKJUCVK0imlaAB1+kiDOk8Tl+CP8AyJ/Ej2OAY6Zv8ffBHjeJG/cc6Q/5cCZWeDgiWGX9kaq+Of8ANoAgUUMLJGD47RTUoidhIxCwvESyJwN92U7gslVrRA4YsWsD/GKGX5E5Jdij4bZS+XgSqoGSpQEGbimG/wAqsRwjwmK6mzK2ubHhiDVsBFavyoc+Y7st7ywDa1ZBTPsqY6+TEhXkPHaFzZYigJYu51/JFXfzTLgJtIEEqKDAiUbdVja4f9FEvB7Im0e5a4U4/eFvMXNOYtZYt/2i35ybB5yP8WM14M5+6T+OT+Mlf4key8gNG0x4fjAXNvZM+ztSYNr7Zig5NiDoF6pGjBvujRi/nTOX4WJP8GCrZOj7TpIXl82PP5YVKsuZUf7TB/poZqsHmbS2jiv/ALjK5lLyqIBxRHN0OKMukkRZGrMsJc7xwX8EzQPiUMg9mfqGd/xM1W+GELBs9Dqeh1eIdHTQi9B2iBomIMRxo3g+wYF2lwL3hCm6iDKECCNxpcF15h8wdL0VEop0aXUNFgek2eih2gO8qgSzfpzYwSzFQtKRrs6KAEN7SmbmiuIqF5QpJpvwlx8tNvYS93JXDczZFNNDT6LZvSX7XHBjCVp+956dRWATrDwB8aNYaVeTG1Naacjvo85lBLvUfyzK5jpucwu7Rh2XvuDBlIZyVOO9zhDkisKlUM2Hq57+OHod54iCKAG6tEtJ+oj40gOBhGCsp7vjogKVs3wrgPeEGf8ALCMu8rJuaQ0Ey427ZQlMx7yuV9tgoZMrlav3HAIlSAp1csuYjFfeyoZGk1nLJfvNmtI1Hbk7mK1g2GG6tBEqfai7Q30YBCANiPFzUPQAjzxj2oarD7n+dK1r7qG2rBAKRNTlMMrSpsmPc0qVHaYRWpiJKIMIMSkpGMCFKyiVCUgK0UcoiUGbf/E9CxYZ8WZEajjQc5cYmDBm5Cr3y3kxB3BPeXsEKRal1KMLh5xueVzhUQfnokVDz+yHo2M32mxiQmHcIbaXAge5+NiUI2l4K2BBe2vuDbGm8wMPfEWwTKwVagvklZorHOPCtv8AlEMoWOrgTnXcRdzZGxQtGENzx8kiGD4JhzbEpMvGAXqtRW3P02Qd2CONUAq0GVlc1sCD9qsakNUpFYstKTkEqkOKUwni8XuwiXk52v8AR4xggJHa5C+U5y+cwSwalRmVKO7DKoKCNwPyjcDwPNR0QDQCVptagTkuhgGlwOWLgIUebhiAQV9BPiZDrcYo/tAldOLHiy1LUYtiw9BVKQVYYV5coXEmDDKzJuwdsK4phiFXPiv3nSwDimwQMb6Vr5MX4xa1Y3cIAbeACC2enHhiUhMXxATGNLWXzvoSQGq8CAxeB6qjIVnOuObDYsl1WGyrL0oK4Q8WAT9E/wAwYQM8K4g40qQeB2igKtBGhnTtstVwQJ+sC0PuxxjuqL17R4EdwcfMLtQkWTDQw/ezqRj8iHa2qNCjYLlhGUy0xDXcdGHo348eh2iJ6GLzQ1YsIit5cvS9Yseg4M2emHpW30PoNXUYgr0EWbQ0veBEhBlB/pBs6U3gmC7UUCChkzuPFWKNkDs3CHDwM8EwecJHocUSvGisqP8AtB9G2Uq5H61ITLZeSGpO4YVInEZSlV9DQBQFBLjUXZld5UxHf/LMTdZy41dN2+IbtD7ZmAsbgcplhs01PMZwj1qWxwtwxf427YvEqGgz28VIYQxS7q0M+NCgelRaZxQMGufqyPKlRQ5hbOkRiKc/um7rq/0jq9cOQOVIRTaIB5KVD94bnBfipvd1zIpbQnuLJYI+kKytrFg5ITNtJrW1h0ZitGLS8MY4G4OrkCMc41NI4CwcSxkFzFSxYRNPjvrpcYlTaiEGQGwOkobUE8o3eMV3IlbvNhypmILCmPRhS5gIqcsHTmeOjkTMTbBFXzi3Az3sszove6SlBVlmG+MFRVtgAzCyx+oOGi19bgYMXAKiFAPwQs+bZuFWk2MpCDdXUtCGoSUrheYurMO16NnL+1yy66njlyzHkqXJAchABwAlbMIrpeZeC3YI7iC1gwy2bv0QRYqDRed9+nEZlBdhay+bkhctDI4NwUCWCuQesWeQq3L4T/O8Qga/AYba1ptvoTEGIasMj1hreFnCDOqV7TbqkNibNDQwNvR8Zm31h69sqzdVBuMdE8Bly9DFCpsaTS58zSEvkzo3Mo5Q1um5tQXvFu7n3FxFm4GpixDWTfD03HmPuVpx8FGFm0OOcuU9lfNzhpvvGLZuNeSZne5/EeDl9MTACZEsZfZ/eu3iBCoY9QbIjIyAPt+LgNRsFBDq+CIDCGE2VjpOQzzrekxZt6LndDfOixOUkF1ss1GuWHTS9GVPfJ8YOiQ0wfEFjLCg8jxgvSuOOOLAepTPorWOwv3LoGlmrlEJG9j3YoOqQry233cMIgQCO4lkYV93R+mhLtYcU3usxlGvJRp3YIu3iFaB9JgbCutqkwmiwKATelEt7nUW5dfkFpggGwUjLsoDkkn/AHcmEMQLCBgQtrnhvx0PEmUXN2lb8JY4xdtFbWUzZX8TD9bJD0bsF3TOCEOy9GyD9vKBDWocyFj0fBmzoabJ93pN/r6HaCXNuu+HowEUPSDVgHMZs9Vf+F80S5SO5DhH7QV37ZM2IkEF5QOxDith4TgDdPsijPgIAqWsm2g4HHxKhKaObFs71RZfEh/So9Rm3FKeWghkPHYhETmjUtAI5dkyyvDzIvjJfgEDBt6Ss/1jtjTwRMbr3YfxU35faAdvkSsWkGYAAfZTgT9n4jN1GWHXCcSW4qOifiUvb3rmJpp6AiGag6/6IZSd1ky50QP+QQ1iJSJBF4KMQ/2XhDn9wR88RIbXZySvQH7n4lsFlo5gDZu6MFjkOkeAVy8AhOXbaKywRvY5n+EJAa0Uom99v4QH/a3+S1v2P4n9b8IO2KijFcFRcKDtX4lG3ui/yDGfJO6dB9vwgVF3nQxFQ5wptvfMCEtebB5g9seAvGdZJBsMdApWh9puX3CkvIx9owJk7QpTPg18GGP8qYKQvAZMOCme1jwR4ypBcSluUHktf9gEGdnpuxW5ayrpQHIgYCBsWgZ+1lE/2SBBumLACvMaWm1QSb3ZEzO0szkR1YCC48n/AKRJNN2LarJvy3JUjEyHO0ybvNaGry3+J0f3v+QbLtMqpuJ7vvWYLzcpLM0dP+IX4J0t/kaoUajusmbhg1XgCUiQHyjyEhYBRypNipl3vU3FPBILLTeWhJzYFtMzNznK7pPZCqALdj7kc8RsGU3gzEoLszHhJ7/lBC0nlYwsIsLYlAO8Srv3hhBEUpzgTI+5OW/uR/7/AOUP8/ECmVZxBFeVzIhxuxLzNS2ZuY96kE42eBAhmc5H3lP82D/6SYwlXw5zLfKn9fDiHmn71BSsuYwpflRCjzRMlK8pju/lFMfViAVZYfzsS/5ZzCS/YxJmHBizAnQz+tOTyixithBG0n9if1orYZW3J006KdBFDJK0rpU5yvLDSWS9Ks9nrND0MOGCAlSpsYavvMa7ILizLzVPZxyGRW1pKw1lNuxuNAcxoTxAAAUanRHXZPt+mmfiWr0h2BjThyB9oG7bh+KbwgD2RegOVz8ykXjzIRVPl1hTKdMQpKRywDgsLl5Sh9aijcJQFZFYx2uVYj0Bjy+JCCRacU4LlKF1wiiPskAFGmHYYrVbXUrTZyJUVGgrY5Qwu0PkIlsPdKWaZh2WKusRnMdiNYROeCLKHuLL/wAxrbklkWXFX4hzPuyi/Bao4r0mMLcLk+IVrVcghUdQzrNTC/dcyl18SFyj3HBmV5qsvqmsjwKQ2ih6Wew+mhGVDZuSTc3VFHfUpbjww6vIxGZIZi+N5mPUeNtwrLncm/U5v5qUqwtwpmwU6wmVYvYMUWK85hNKUZ+C1HUiJA44WBoB5CG0guez2hKO+CIk5iZZVs/szi31U74bFwQv2LXGGZU7xc0UMXwOxDK6+Ld5mZSBCqiAq3/3BKSpSDzJkZRlEoiIBOth9QFSkpKhPJAVKJTlASxVxQ6s6UpAomYjrK8onlDkEeUSpYJbuJ03idBH/jThpB/xS3fxS7hnMb2gQBCFeRonRRXhgHGgl+E6EJhIEpZJ0XzH+pgez5MCDZ6q9bHloBG9Nk4vQspse8JcCwkEQOUUyh2T0/G+m1o8d30tCvE/mGv0LXAJaOQCCNqhL3KUAGwFegTJxzfLYsAJ3jjnWKrMBh0Yi2XCsEGLoq7qEwgGwdtKyNuoVL7YNcR3gm+fMR5dlq21BFeDHFGNl94uYABBc4YZj1iscgcIzCAZiTaAntAX8X6fp/c8kPS5f0vGGon7znD0JLGR/aHot0oT0Zd5LN+/+Ogz26na9pcsTACGWERJUtgAClqQctGtxMakOUwgtRf4E7SgCwMEi5E2vNfnfuG3oVd9PgaXrhMS9LmHcfqbNbnyEdjQdFqYws0NMghL1dVm3VZj6RQwOhp982a3onj0sv8A8FRM4m0NDibffWpsmzu0egvgc4mvVsNAx+CiJnIga/FQ29Bsgx3/AEiyvBfmGhoxEVwUaO+jMAF19E5Qgb7RFLvuUYG955zjo15B9yMeuC/tUVHf89DVnPZeNCy5el1XAvEXqzA6pBDEMiXYomOTBRlM2VLFxYP1OGHoF/q4QN4+g3+xjD0JI2zRhorHQ8Qegq3L7cNWfK/U/c8pRxmD54hack6JOB5oqwZoIBHncOP6xoYaCUKx1j6be4+4ej5GfBPSsXR6R536m30Ku8lwYw0S5cXWUw0t0TbVNPaENHSNhq6J49GPv0kjo9ubIa50r1rN6LTVpuT5GlaYKG13ZiMWkjxccBQROIIEJC+UDVhvstb02w+gmU/Zx9G5vB4ZDQIksplSFOBUAdu8VkrV+8zz0DX9NyhouX16GrrqfWQdGZvQVVxf5+m46IcdMR5BKS4eX0fS0r5Xk6M2g6Ve0+sAlSoTnv7+o76Y/Pp20Jt6MO9+pg3CnxpUESuhBxY58dPeQvQ0/bcpfL6T5aHovh/Qj8KEdGYdQfXp3d7NkdfnIEmGoTvIN6sU7NWYycaBKlyWyVokxqKDqLrvNujLmctsPUS/SzcgsRtAuGC8EvaJOIzzmz94xMy+SGyfhl1S+IiHK3hSwTypa6ndYIueaGzQQFdynBlAX22whAuP2aDFnvyT8HmkAD5aX8LvAmGySApAbAW7M4dWk7gmtNruoNuW6QXq1Ju4N6GhRQrCziO5f5Emo1pt6KkRZWrlwglsJ3Eo8fdFDweBCjCzGCmggRRQLZhmAfu/1LCgrgwAsZqi5F0ebJKeHy/lM1XBY0SrmMqitG6KqwS4sREV/R6Qpv8Ae7RUC5Qycc/tiGhTJpNhzhx0e6HN+GJqOR0YNt8WPLPYWOtaZS4siWUHcSUtMy9SnCMPaJfmjQWEtZn5WJHdDEtgOrEAWYtFsDMDT2ESUTZaWeSf3pR+BCBlXfkGH/Sg+z+yX7P7w/6ZP4SX2QgN74EtqAXhuA2Ud5/an8NFUnCtPJlH/Ulm1Xef1p03mdYhQ8Ty82HIToImUblhKcyJYw5zzZFbN7zpJ0EpzIxzFWzFMVVXglNVqYJ2sQc43TW8VDC+kSCYS2cuNxV+1iYClICIlmrbtZHe4rPRmH7VLBLkGjozp/I8Q1Z0Sxtl65j0ZTHMQ0Z8+FegJ7Sbd/QvFFj0HMbdElTAO8JWgy48O82tGMaRcv8A8A1YzegK1xhykOWjRgIDhCgEBynSIQMI36sBjizYMV4zIDczADaF4ytJGqgQDRBhQeyBKJRGEqIRerKJiUSsFBzMwNKJSVKPc+sRKiHhApal4Ve0QNwlBQw8UDUCQuZOZKcpUolxF8rKrRWUhXuwmDdM/wCUqUSkqKuZTwEDSoiVBPY/OUcp0CIZTkQhOxhNjHUlIaFysHxYKzmdN4gi5fIWdJHlvEt3EP8AhRjA/wCWXb+KI/DP5EeO/tD8KRAFQm3RL8Pgl2/iSsgR2Tn+FMmcLQFnKVsr7JTYCPAI4Su8O+k2uF0TFtVWEWfgSpsD2Spss7Rbfww1VBSuEZ7LoyXl51K6OtzLBVBjoN1sROLJNwZg5Q1iIbjU/sIsV92JNC3dGgRp2X1hzPlmPdDClU7of0Ipt1qyiBdYlLYTLcoS9kSKl0spst3Zh/JOv5pu58aA7RkE2y4pV6djZSKf4SA281P6uCN7umD1sMhTecnzpgT5srCU/Ng8QccUGJjiPux/70/jJvHxzJYfiEP+sTlTf1yB4niEKBv/AF6H/PJ1nglWN3ODA+IlnF4I8D4QLe0Juy7QoH0nKPE4MIOP4IFKXrUDMHxOg8R4HinPiUFicEfEeH4YHH44c8ceamH5BLv/AIs6Y9apwd7TZDQPQem4seJnINLm2LEt0GPKCk6uqXDd5zJawEZW9pfoWCD0DJlvSVyvkhremb1wng9DLqRaPhjXzL76XLhP0nu+l0nL6I7b961ZcCvy+o9V1v2tB9FD+vDE3YDmxDLFtiiXYJMQaWy8v19FzIP3pD0IM5jh+vpdHXAceipgPN/PpP0ZYLE1hvA7WpUEXFPc1W47e76kvi/qLo6Udz9+n9dyljdEH0Gv2bekt9H+GbfR8RmHNqENSR6FwuE2wddubfQ8d0pXoYE26rHO3Vj+eD/2bGMda40GO9BLm1ix9DlydYEHTEM16WaWtACD9nUjDfSg29NXWL8ehnxz7lLJW05pfop1DxqwfR+g5T9Jy9NOof5Q9O1+mfpKjWz+BhkixKy+mQL6O8vQbnniJJuM9608D6PouNtN8Ph6vLP1h6E1IEDVnLbfe9IzcvTDRYrTpMShMQVpbyoHLn9YJWv6DlMT5H09AYfMNvR8/PgPSGbnUH0Z9losEqEZn2mY5OENcxdYNMl0mBoMvRLGrKK7zElwZcSHjGmpF9AdF6N4lavrNGbGLELly5tYrDDXbpr1tTHb3+kZeSw2hoR5R2HqxhrtecDHoYzZww8ehirPwPuZDsem/wC7x9JwfpUV/oY9KwXv/jOEJcWFM2H9Ly/Rv/VhloFt+YVpRW9iC9UK93Rix8T/AB0HW2H9xoPQLfo+vpFv6d4HpRbyPGgdQX8vtw9AiLpdmtxIUEVVmlrArRCuQvmDU0Vn+9j0MeHh+UKr0Cz/AGqDxPTTngXmcPRjDIPRsZnoGixSDxFrsxajNibNWbDvNmlxl7RYxucIRVG2XKIMazeIOj6bhDS4zYyoesIRLIsStIJcGXCFLAxEpLxYzA6G64gB810vXbMX9M+hghWrf1FL9Dvpf41WEOHmBBD0bHhj8uty5kPP6YilTlNC0LB0FpRj/D03N1WfNfRYlrwAFiQq2nLEzdz7ZhtAW6aDFIEZ4hPCXLlxZiK6xdzBgy9GKhyA8dbOelLtqjL0xAjV3e+o6UfqZen4TDBFuTFcDVMnR9talS5V+hLftbehitOX+4ehV3M+Lh6E9+JpeiQ7E2Ho3pcXvqsuBfYmKGDWoo8EWWs2TfC0HTEd5glanOZErQIc4bNFRmC0GrD1JL0wuIJSeR8U732aBVzf2SvpHsQ/kTp4eB8cfvh2TfE9p/UI0bfCPAr7ZT3PaXkRmK3vYMeCvCA/8ZzL+0lwbJeaMQpK+CNmzxm7h4yhk+MqtKdsWEQK0V1mPB8Ycn4Snc+MWdp2EvTexRiV7LtD+GCVgeSD6imwnI/Jlw4HWkE1jY4Ng3i2w85kW/aRFUp6xhVHjdpe1UuipW29kwvz+zvMvx0gXG/XWP6v/ZX97QG8vOANo4L+DCh3f1ziGxnKaK5OcKQZIA4R1cY72oqY23y/uGSLEmTnpLUS7l4SCck9n+xwSOWUKLpxCn+zMqnlb8yyAPf+YUqBWm+bXGzFXn9x/wCq/Mxf6Z+k/Ma3rjbiWcV8mdsjwaerjZ/vl+9ffD09czYWiG4fksMTg9xfmXxedB409xCDVaaJmkVM39mfuGBxP7MeA+MXzeMFUSu9KXTacOb+8N0ea5Y5NNm8z+xRTMolQs5e8QUp5rJuvLLJ7Rw2eeUy+wLVHAvmTFSVW73eiUmGYW0d/P8AE/Sv8hRm7v8AxGq2ELLmuMrwN7j/ACI8aSw8V9pa+S5aAinI/wDBB3+mFo1AZS39/wAT9F+I0Y/X2g1wKAtgzHpS7+HjDiD2EUNS2LlUGAgVxIHIvREOJ8UTSk+2D5vbF2xx9C5xQrnSJbL2Z1PjBywdzNzBcDBUqDehB95iLudocEsOaPv+UUYZoNiUH+5CMJn11BPuVAWnRQYbD3xi/wDzI/8ABJ+2RufVKdI5R4iHH7EyB8c/qJiHaihn2yBfwzsvafpIyx4J+A5UcxG98EP+FECvHUCpP4cpW3hKHanafiCFOU7GkI/58Byu0+2RFBfgmSvggn4Ijv5kQgPuSkz4o8c80F/KlpgounbiVMzS/wDxuXjWAdVhRK0rTLjCExFSmxrUWUrVvTYDnfwQjUAiTelFv1l9Ka/1iDD0Z9/6fgfkTZLjpUuqcn3K9FQg36VM35/TqaJTz+2K9BP2PN6En77kwSiOiTffA+GlSozPP9jBD0MT5G/H05HQ3oxAQYHh9+VCMqfu+eBpUSKiVXcn7ZUo1ZXzfxFa1DT8von6rlKJUolIMOn+pRKlRCfMStHRKJUoiTjOiVKIEqUYuGEqUlJSIgse7KEogR5UA9sJW0QZRylIDMq201lZegKlJRylEqStKSvKU5QBQCQGisO0pFEYIhw2eg1PRWtKYsMJZoIJruLPtNz01YMpWu/Maky6JAyoah/P9+i4/FA2Q9G7qXpXEqI0vUkDh9DoaMvb+9QUXL69K1QDgv8AJqau1zfu1dLuiH5RR1YM/X9NWMwt0vJgozD0CsO4kS46C456ExGaANXQ8/u+hlXLH0ft9J2kA+j9JymIdGjqyn73h6HXdR574dDWl+dPv0kinLMXoWfY0NFL5cKeiseePEuDo6Y2aDoc4PR8OKxoabsWJcsjPgRQf+Dvo67Ya9BvTH3sNRhgonIgy9HkQ0d10CBGe+phoQmSgrtaOr2otV6O06uNRdEDXl+WGoxqe09JmP7VK4P0PT4/yJD0mieb8r00L3lQ1uLPk/pDR05b+WEqGqvon6w9DKiPQy9W35Ghrl+znC9WVKHZ+z0VP2HJDWoLHn9U/fcvTbs4/eG3oz7iFCeT0XNx40+5s9DoOtGiojynNL1YTfpNnoddyLEW3UM982tc3oqXLlzIJUQgZSZSMaXOGkNEvW9LlwZcuLok2zMdGEGGCqPNhVa4DHbcyXLlzbLDvkNWNaIavwTHtpelx2g2W1EWNDUCvSXUAkg6lRmL3/lh9OC/vUNfuYhelwYS7ifKkHQ0Zx3J+3VdL+2lavQxX0/qaGov9jD0lgNPA/WDL1zpySLHoZZa2PwpUNTk5fbg6KaXBXZft0GGl+h/m9Jsef0T4v0tQ4Ze9w1Y67yPxvTi+2G3o2JbIOu2Ou80jU8IQ0SGJ40N4T7YsHo3dVwEfijsNCFjtxUU6PTQFO02w0DWoMIsr0DEJshXCZAD3Qx2BSTDLkEgCHxlAV35QgJjl4xUPaEICjjALIZKjitr7w5FPIDBSK2w4Q87lJ/pOV55gwnslmPgXfOJMQfxU/jJ/KSlDKJQIhGANtSvfxYtSnkGfzETt+PFi1l0jLeC8qSpp8Sd27If8ZHYL+2BbVlLP4ScLPypBbj7I8294fWbkBsWmEHeyUs+BHg+NALG7CW/lh7RpVvFCGxm7IkhldsJRv4k/hIKGbaekzuwvz0iKODogcywRYnv4k/kIfDulK3IRY53J/ASoVq50lmyeyNS4TdsgMSjiw4z+QhwfJP6U3PshaI7d6iU4l5Uuf0Ij+Sf3SP/AHJWIthXcog23lJQt8pB9n7CC7L7Jlz5Wk5xlirsgpYp2QuoM/skf+elkkpQULKzCCvZHaLuIJt4UDsu4I4CN0bxKf8AtP6Ur38hOU/uT+5C8LblDe0/oRbjxohv5pfw+YvgP9ETsnYTIryRrfzSvcxDfykQlBP9J1iXzE6SU5x2LP8AoSkt80EyDzLOZDZ+SBuH/CW3Of8AKWRBBQWXFIyuT+oMpLlynvJuk2IJpcY8f3vFiDpeamb/AEzEEAeMuXoGF55SFS4oFO0ZUBLik398eIQ0Z5QKjbVly4sohizLikUiyixMQQjUMcYYTQCXCwzwjxDV1XMxNCJnS5uRD7QoY2mQ0wVikZVIyhYVbQ5aD4J00qNCZ8JZik/mkt3PiV3B2KnLI/8AOl+6+yZb+Mj/AMYlAKVTwl26+xB/wT+GR/5yPwLXARLbhyj/AMxDfLedEouxnCK8buIxEyGKvBDdPGT+CQp/zQPHwo1L8SJRZ5XWfx0/mpuj9xP5cQThsBuw5R4SL7+ElDPvCMMnJUqpjz4kMBUYa2u4qr8CHC8EX38KP/CRLCrhdJlfGMdJSyvAFwhuMuIzfxkD/EgSrW0xhUh+Bkf+IlLdfAraAdBc0uNP+ZGdax4dYD+NP4hFLvwTkRJgFgcHJmYfjJvPwoHsPtOX4yY2vBHmqmFnQh/w49D7T+aT+Ug6bQoGyCDfgQD8adLP5aO+W9iMswVyHIgYAcxGEUdYDKPGi+47iBZGMAYYN+Al+/iixT4UMIJ2IHsfsR0VoCw2It3X2QJs8Sfy5UUr5VCEXnZXUw2S3sl36cHP8ovC3cQyDwIaOrCy+MVKV9oQDKVfihMuGvZMmr2lW3hi8madpbTE3i6XLTMqNuUD/wC2I35ZYIgD/SoOfmz+wiTpOlorIeioptOB3WfbywBQMgYVT/pRG8RNsjmSxTifdNl8if0s653TLJxTdRvHzT/oU/sYHx80GseVN/O/OKmfKgX58B282B/2RRt8mFGPaUSU+dP+42MMVK91Sh9Klu/nRf8AKimIqjJ7wFn5Srj7m51/NA8vnR437kxBx8yj8jHheRiTj5sob+U5Zvuw5nkx5vkwP/phTF+ZSwPmPX8wJpn3RTe/MCByTbCEJWtEMQZx1O0U3XpLN0mEEyuAAQd4joBKuGWYKjAgqqEsMBvTcYughQnekSGxi8wIRLlvjsDkDH7V2xDR1BJmgPAcFij48gCNkGbiCGiTi+UPgSjKhB5S1t3CwosXKoQGpgsDXlcWiOQRXkYGjpdo7D+9teE3Kl5QoLduDTcAgWlvhoNy5SiMlkUc6JhK5E4rGL8aJUSpfYhy2IZdBokEWw7qWxF+xwmeeP7EBIwr2ywRddxzYrXihZZj+qoYXGPEMBG3sHNjUnYycbzAREzXgm5B1P7uDgNaVAiTL9fBpcdPM+lNuly+mn73RDVZlBfoxEqO/wDr9Bir97ObyvR+h1fTawNr/dgfRl+liXzb0+vRc2e37glaARirssx7R6ThAQNd5GppcYxwGi6UrBAlaOh3hQhptO8akJej0pqwUcNozZNybJUqVB8NB6bjKhoR0Oh13EeWBvUGtWzLdsQcjKSLxDyoGCWOCuEMbNzMs1ujj2jOjsu9QplbzKPE2bOWjCdLXTpe8IhQEoAk7UywQkFAUQwe/wC4VLl6UVfKDwEyEDJEQtgLQoCB5aBc7bUTt41ZneJQMm6I0tDcvMJmoK7jq0c3qNKr3EbPgGVM6/SMJDx+5SGwBLKggXlCg4dmTa4KByJublII9wTjupWa3AwvgShqxl6pMMaKD2IGHIy2qc2jnc0JBKcmjeV0aOrOyGYOJYzkgxLG1QipnFidWGoMgbi85Qgqp7kN5WmA5r7wi6EZYOa+A9DCP7WdQ50uWLuLrwg6suleEtnps/dylwCAYpX+tnNkIaq0Of2S/Rj+tk9BdHWJ0a3ptfrfUNHlOaZL0IMuWgy9eUjiLL0Ky2EuXLl6QG9GXF4o8GtzjEJqKDpsJslxdGdAqXLaFaixoXcUdN4RYuDodtUPoXQJUr07JwnRnWAm/NcQa6XIzTdZWNoqMHhKuJO7NiA1RZsxhEfFfIM2UEvoF8jygUBQFEuC4YXJF42iXC4JthxThAtpJcvT2XPhHoEw/RvElAzbXxUd+/8AeosqXsOdioEy1zxYaOqojAJGQEL5c13maKcX/hM2e23G5cEJkYTM8KS4gzcyObwmCcvphqrRJ1SJ7CATXuxcW0t66FVdGANnS9WCVG68uAACgjHt3JQmAQrDisN27qI5AqyreRrl3v3hqEfS2pX9jfWq0uiL9PJoaMQd5/eq9Fiv9/OKcZbcIefqPLmz0v0nihoRjwftiDL1/YcofFjL1z535+l8pKe00YS41U3jUsizSoEXGpS0eUKXL0XdiZDVmYRtaKDKUes2RS4uidQyaVFSmyDCEyZ1I8ELqVCCNkNL9JrWjNsWuvcUrWtoXUMEgk4Taz4EEgGjeht90HEQcMC2AdDt/CWS5cuZ9uYF0I65QyyLL0HRYCXB0YQfP6GI2jmLGwBWNnvCFMqbT937ss2VUAkDqwdSHyQ8TYsSyD0ZyCoS5iVqyUegy6XBkcmMvXm0u4UMTNHZ+QSKNYRc0lxq3EXn6VmPXX4IehJ+7gQ1dCH68mXDRl6p1osekrfkcMY4i1G3nfJQlsIuMIKef2QYMBFm+v8AsQcQZemYfpUKdrqRYlO586Drf3k+Il6VpnBmEuXEIFhBg6lQdSDM6VDPaS9W3GyYgaUHsmCOzpU37mXGG0SJUBLIhAQjpTFDVdIZj0ZjWhpeoxHukt3JQYcqnyBEzK8ENdQcIQBBfDVAqqfYmU8kOX8of1I8bzSg35VjGG5zZ/Ygtk94PEEwuzC3Rg4sOOYeUY6eF9/hj0IIroH+DOjIelh/kRaQ6FlSCIRdz2z+ec2/xl9iQO0h0T9QghtHlWI7H2JzfEzArEwbSUmC+EXuSeo9jM2aKcG5X8rukuBcRTZALcynweET4HuJzq+2PShWeCGAbRaxmya51j/JjVj4Y08/bDihfGWLlRve4TuWZcX+MeFf2kQrrjkY9gw8ahRkD2/idN4zgre0hTkL2R3Cwm62tpQbb5Q8hJxxObbLyU31mwaU0TFjzfxp3DMcWMhl9hbAwGmLnaDXZnRL9Sg3G+Kjwae/8RIlYAdDSuGkON7Kh/0kf9VHN8/8SuUlNK5gZi+GfFffDN7K1R/7KK1XWt/iMI1UbXdcxr3fdjkx8mAilPRSIb1c4pQAXe+DAOP7pDhP7pi40f2X4j/2EsRZ3NcUy1i5wnuzm1nL/f2iH/P/AJEO2UGe1ykwsEbyITiBLjTKc5/5CpcDMZNic5eXl4Y8I/w43EOFL1l/D7RRVJ9k5z8If85E1vdxJn62NmZf9Cf3CVP+xE/+cX3EJcP+uQ5R4iBvT9QjTpEm4ric+Z/Mh/Bi94vEMA94CZj+wSqDFclHiUP9CE9PZPci35yHhfKAcfvLGV5gjf5lW6jP65IU/KcFeOqgW7p7xRMmKS+85I8xq3HWH+bZc2CVcRKcR/psOJ80xgPaIg1CB6EvpivI2em9L0vS9GbJ8qDozZK3CMIYwhcUcwlShXqwCpRCOLjvoJSBBIzBxtXKJiUgKnbRAgSiAuHL0YLXnAJTlKDhGC+jfwQFQikBW0Ql3Tr8NKJWJRKnfTa7aUSkIoeUMAlEolTcdIhWqxxoVKjPn/tAEiSh4SspP2fgQNCM4H9TAqUSowiWYdv8JUYNMuYdX7IMK0SVLOhMxIyWlH6d0GJUqVEgc/6thKgRCDWdj+pkQJiUSvtMouckJUpKgK/1mASiUTEN95PhpUBoo5QiLMkhjEolSukJtcIaICNIVoLL1mHCHTOyVCt0VARPLTYpSAJRyl2qMIgLQwCVEQ1kxBKaITbHjTEYmTBB9OPUumxhffnDXbHlHZLhMRjgNwjgmKhEsIwYrIhboS5ejFkPMl6JnXYxKegwuDL0ePZULgDQg6xirnF9QUQ0uyO0Vdz9EGGrY3A9G66HygNFxYn3UuXnIly4sqBtb89DNpcue4vBOBHRmHoUXTgeIfjq7wED2L5g6EuWi2G3/SXokqZYuL76LgxYbw1+rdCXLIx4eD8NRYlyyXPJoKE4CQYTjGJ959wLJWrru4r7CVfo2tK9cL+U2QiQdLg5OlOjCQGPQb98OJUNa+r1mTLwKmZn0G4xYNJp3Sm+ghH0Ggy7gRm0FjBn6wcR0OGDKxwZcscWI8tBi4ibzIy6ixTcgydpwjBjNzufem4uixPjwMNbHfze/tUCGJccy7pTBiKkGXCBk5yWtC5cXwocExquDgv+jBYLjR5ovMgo/tUG9GNxV+rnAjTRcJ7LFaGlmjXLjFqM9j9YLoNFS85qEuZvR3oDIgRIC/kvtLarpnS2Z+9TR/A+SbPQvOmS8zoMIs3f7zBx6PkJ8Ugy9V+3WLTOnwNZ0uHPz9Mp7PRsm2GlQ25sgaJMIZxPRbNHTZNurL+CGxD1DL1NLmRGHbRxBlIrJil0NoxUpt65ZvzA6DouIr5VE4RYafefekfQy9mBKlRlRIxPp+oGjUajyOf0nBFZu0KjWzlxIYdIw2P6w1b626P+qXUvXi/JSuPbF40txZugA89LLGjdpX7fAgy4MZ+g8gixL12xV2X1hokSBlmXGDoSuQePQMoPIeEw2jBixYvm+9Fgy5vP0sg4hpcVd59ReFoYl6E635TZ6L/pbTPstRlz6n3ruXOA5RyTPogTh6HLAg6qr9ZmJUNNyOGikYQRUvRjh40ZcrO6YIMxpb3iUbuYr9F6ulytbVEA5Uwi2FZbpVsXAC8yJZWe0PwDAjNIclBYM2My4HvDmnuS7YwXg86Co0kG+MWAizHdCXGLixLW+JHZpcpFEV+zQikufMSh+tjTc3ihHqbLfxLL0KIuZiM8l5iNJLj830REWXGLxGP6WXTbRzHTcm+IjH+5FUNHRNS7iGjDBzncHREwRz/B0BuN6bJ7ZNeJOEvmiyyVKGFjw2TEsZjjLOcdbjmvWdcgG6TJwuUeX8xpmLDfNkKj7J/ej/3I/wDeiZaK7ywdV8TnD/qyzgh/3iHC80JrKBc80hTs8x5SdaU5kd91Cp5EDmShKykOiyvvcVkuXpR7uIqvgjqsDxfcohoGmfHJhFkppuXBIlS9FkfG5zDCUOJLtkhJeGHmdQ8w5bzOm8yywiuM6aXbCUGRHNCGG5KdzGY9QjUAwBmjGDg7+zFdmAIE28GHU8MQ5+IObeECadoYShcEuAMJcv1Lpcudk+QQg5ZIs+AhMIOkyU4ghbIcgw5CXcEMbEabEmDbFd5NlB2IC4mXj5jVh8mBO/lHfXyjrlgOMtEsFXCWQc4V28yf2kPFJZxzACquyJcKJAtongwHGpFr5Wbg0Cs1t1mCk99bYwzSNmOmdF3D99Dulxgb8W5ajJcx6xJdNXtFz5GQ3wwMMDuI3rLRX3QX/aXRTOC9Zb/yrSrHMM0yZ3yw38mGD5SLG/nw0OK7XlYT6rs/xPyOFOH2gY+1y1Dh3hiF4KDKsnZe+Zj5eWT65uQ1isWb2VABDzpxxJFL++DZMnN6ZLDa0bpwJVs+aHAiV8fPAPyop2uc8wQXOb7susTyQLNeSVYPkxe8fLKrsEPCdJ5ZyjG+z5Mt4Sq5ckuZW292cEUB2EeMWcgQRYYmIacnJgO2l2JqBxEg0oonsxeretsQVUDLKzdDiBHiV0jRQUeTe3WO/W8wgbYBilrvacBAJDTd8S+VW0st0lXDAGjKbWwuDcHzMdCPdiV2e7A9qe7GjbuNWMQ5L5Q4fyhzvJgd7dPaRxleSnui1jdd5jw+aU7eVgXS1SFf5Jwjyz+yz+3CFk7sq7vmJ5+TD+hl35JvZeWU/OHnL9mHU8p1PKdbyjqouTLcMy3KQ260A484JkXDhmYs6CdAFRxRmHITp48Exw0TkI8klPBOgmIHGFUZUnQhCQASrt25JmFJjwXkRSMKwMJCiF3Jag+jESBOmtMIoqTqQGQ8QFCCsEoggQPCVHcSgBrnosQO/W5gYyndmNEixKCdofDc4ZzD/vVIe5FRFB0GG5uXmaDXFHlNrt6a+1BCmVq5TdNFy4TDbuHwgYZ3Pdl4cARQ3dLciW2P82W3Q3oUIl7EJtyutQ0N2L0bII4dAYGmJfveE2ggKKll32lRdKYIYCImGMXoPSpczE4H/UkEJZCYALVhg1uKT7gxyYBkeyJKpbQpiYjFSeGvMHasM2Ra0Xp+i5y4R0fmfeXK1ibStZ4QLhylzTYhBPMa5PGBLtu+fuVNpdRma5fYRjxNWYd1D1GDEGXoR4e75m2MNtFXeTPtGlaLFvs4MvRaIMC00wlTEJiO0ymNSkN5zXEbwCKCh3Am3Blko902y4aV5sRmrpKVc2HI0+kMpteEcXi8IN6F6wBDQyovNiMEDmpajdxMDNaJaq3yXEqLeEOzQSRV6zjESKhNxBsRI8rdMTcr4ZbTHovTbUUTIVzJYLpKT2EYEiC6UG0NqIhz2bys5wjFFC6FKTAgXDDOOmcPCYRXHMyntS5ADjEJuhHBRq96ETAvAOkVsobMPtbHIyvsIVUIuigY3ECaAzhYsjDUu5QIwmrWADdi5urc4mnCPRFC88AiyQBhjWepCykvScZZLjLnji+XSoE4QjRYfQnNl2gSwFY5LawDlL2rVE8ouyW0VBcBwYEuAwxlKQr0JxrHoglXIiyw3IZSinm4oZGyWQSXLlgBvATbA3d2OZIsoLdjgTpUkHAbBw6xdKCzoltgulXOUrqHkYvqwC2IJhMH8So2QZetzJcO7WHPJSAqwEfMBFBrinQqE4QZi+bekxprVobIUFLZYnam+WpZVMhkKVGhocucRAXfjBjrrr86i6Yd994GItbxAgN3K/AIpWZZwjtn9Wlw0MAUvPl3JeycXnELAsX63lFNLMLcdBEbCEsS0GIsR478CX0kU1gIMA5cw90soCc0lwgT9FyjvBwIaqHNBTUHnVTDCSzeXKjrgixZae8NBQadWM+d9CpXAyiocJaucQSFSyUq28Vwj7tYy4pYEMVSFGVSP6Wkv94amJlVbPGPBZCEu8qb0rDCi2GDSWyjcKgh6bNpaAHebI4rsXCjXXMqCQHGViXg3iCVyzBF08QDFoFlXLIEqUgmPiaMOSWLEQtV7xKDKRUtxd1DTZHUMtmCn+QhkTBvDkcxgENsXUgnMRTvUVhEYWqBfAQ26K4jVk4EJcVELyio69slYijtBipMtX2ARm5eBsRlDNP3Hh1icKh+uUaiZu+zEsu0AJwSdO7MCPu2AR+1H/iRklCiFVpT1WKjwJ7Q0uQQaYsMuF4qfOitLhpGVp83KBqzDkE2/mqWP4AVfZhMwJtBGYAHVSGPgBMvcIi7qTEO0MvaBOXJl9g0CdLgQwQZVgwwLEgwPSMhjBF3ErjDwwT4YIoSym3gtjBzs4xQHmYjh1AB0Zdugi82Z3CZFwnFzLCVKQ+0YsiBVGVPuEdyX9gJOWLjia7tCNzchgqYMG3yspnMm4W0LoSEGjvo/dBgwgy+DnvzgQXzzBTGXciKUve8WL1hNABVlOdDTgn1jlyUVyyRVaOGI+Xds7GCYURidgGENdk0EgYkDcmiWvlFjA29DP8AaxCHZPQkDCsEkq+g7kuncwsuKhbSHkYNICBYCGrtPl4bSomjyl1mGGco+64QiuQZ2rVKouj908SDdTNaVON85X8k2pEUlRKMZ5uczeiDVTmAUEvgUwqRWLUQEipAjaVnz2lPLgp6MRi2KdLfdZg1MlQbiZUQkq5iKTAymwlAQSLNrNr3jo3RRqBUAY74dyOVQtZMiA2d3nCxGWCKNodR9yWarWFywOqstY5iAIRmYvBOBN69WOCWAK3Is5s2FuCKucqWNhBI4Et60F1zqDkBglkgOoTsEMmhDt8yeYKsauE4iYAor5QgJgYn6yKWYRYxYU5PmUj3gEySqKJzUCpxSx9x+ZGVA0DN+5FrvQ8TcXYlHehzwIg5UnDlAlaOshL0dEGxezoAAWKHvEmT12JULUpY8okVftYykNkBkau6gDQfs8MDMtqVBf8AqwKKiHhHGPbEuLGmCDLnyv2htMrxLsSirCPmYBOwUQPP9+jEPRf6ECyKNt3OoY0vIXaFG8kI4JXSNDMuKipyZuGBLgy4+LBAJyNFl6CwhlgWzCOgPePuCB0sjmNzyIRLJsSpn2o8RDNkhMoc5cEUhBAUcZbBNpqkFNjYGIZhCVDvAozLJZN4BCtEslnOIrclVRtcOmhE9TEmBAXDBGC0QuEobmPC8keei1RTqZXCfclji/aYGyCmnePNPeczwZyVK+IlAyrufsRvp8cDgVP84N4OanMD2h0ntF8XxAG9e0CBdrOMp7RHKYU4M6KW2MG2rbsyppB7Mo7Img90lS5yI0lVS4dtzeoURWAQQXaHKQ4BhMWsL94U3Jo2QdYf0YqqaNoi/sgGAw2nQx4cjdoXHRlG8vEMSVud17dNOTLdGzjcDnftojbVMTLBBBJ94cjKgFVB1qA9jLlylqPIEs5EwLdBYf1IFZj2ZniMuHiSvCvKZKt5Qlva6ooMK4qjdV+DAU5m6FiGE8sE4eaJ2PkRI+tzMRwlmwzoOb/BtGNhUIc/Qgnbwyxq6XMobwd171EQ2fwR/ixHj+IMjAFTY4IrAe5B7P7J/Cx4PjkVCw9yD4l8edV4QDj8k/jIcdEbdq5ukBM3g4XlByMvIeEzZrB8RW23JcGaomryBBKHcmu8vlKCAvCbWl0hxlc0UViwoNCKoWDzRYJqsZlbixFXH5JRxeZfxeEcDXqgd15Ic95hzve5/wAZhBbKlFcJDmX3n94mH/YnNH3JbC4YukhXviH5iYf9of8AfI6TLmCNhGRaEOdk/oTDu8xznGn72Ab/ADhwm+86/wAxZSBmTGZ4J8wfcnvGjENhLkm+8eBIjvVCV1Se5Lrhnbv4TkzUYq7SwJ78TqZgwyAmVlUsZlLEC/8A0lv+0U/mlJLWUN3yypxfMORE+ENENhaHozPbStGDcGmxHaFSYEQnGViNLcIVCuUxECmKCJSU5QlQ4lYAnQjXsTaOktw0nlQPYwQ2J006CdMgFhKODfAOGdDOgjyMIADIJSMQaXSQPhgXBMqDEnKTPsn86X/glkfBHOmW78wHKdMnSToId1DDkEo4IrwTpJ0UwlcfrKcocginBOkQCAWIeJX+niL3hecA2JkuiU5QgjZ8SG5U6EpABA5Sr7fw6VRROyY1+wgEpKJTlAOUr+1shDhMSiD9DggERAiEpEft3gJSAlRgOYPlAx6HjGKDe/vQrX9t0gQImgPdTLsoBKJRKQFNc3zKSiUQCAxmbwHtEpCKESMSipRKRHKH5EWNAIwiVvuZRKXtASk+FASpRGMQ7w2EqEASuiEqVK2glavB3mwlSrNLtQJzi37ug6jLWU6sWbsStAxBZRMxFKnCLZDaDoFM2yYtS4sMOIStGhN71NFCXGDx5sQ1yUbWOpemw7WYS4RcYvZEH0VEYFdxiWTEGovcgLpWlQZV/wA4AmZcIq/UxK49v8tDXL9bBCXqsqFOKfMuVDR4Of0Zs9Cw39bGDCLUGZE/wdGdGM8SN6YiJ8t9ps0vRlg3hf3GcfRbZOOqpuv6nwjR0Jsf1mbNSDD1zDsENoaMtZwohqz7yUEJcvRvd2ErVYnSDBpUcRbOvoCbs2mpZa0tXoWLc5shvo3FjoEI8MW/dhoba51ZeqTPOZEEdDtHRMMSMJhLSbYFQpUSwZiMQ4c30O0SFcUTEiezYW0MtKlFVsLwtDQHvD5hLTaDoPSjoWVD5RYzjFjHgHh+mKyDDXeTEdEEd+wqKE8ku4ujCMvy/wApdqWMNIi4alT5J4hQjLjsY7/ewhBjCZzygaVGGnSEWMq979ps9DkZe/v9x0vTdSUuXpl30p7Joa5Ll/uG0Nflpt9iEvRjhe0NUiAQ2jAlSowlvdhE12u2ipVRIPmzaQJUqb8qhM6m1BQaVBDfum2CGjNuGu9K17whAx6LdCV6GO02RXFRC8WiJRyioxCZs2uJtIMTbDDEYsjrpeixDXXdEiOqHSrl4gtYh90YQu4rLmf6mYsGmsTN6UhHoOXoz46DMTEFkVB4/wCGDUIMuMZKDB1vwXklPZTNRZcLcWDj+KZpcXRvMVNoGW1DTjf3ZtNa0h/RYxLDaLFHV+3++o0ZTsTNGNTD9Wz6GXifN+2o6LHz0l64r1RGHl6LjoHf8wYTEJ8pMO1B9D8RD0C5RgZegaYPthCMMezoQQly4sELRAlQmPuJsPRu6DRmNd5kaDLIys4aXKE9IKghDWvQx0qCO0SYQ4wMdJ3CMGgzEW4WUGqAO7WiqDvRyyQ5pFRlRxYEEGlajHpCXN4k2j8s2ar0DdSIaJK+ymDSiVpc7y9AyjvoqOZYehOjT8QkvS4sa8oA8ZcGXBGK5S+Jl6MZfYwl9QEvUE7QCG4XCFQiFhT+IwNeGgGP9jBUIWyYRJSaAGXEEYNZ952wZegF5wfTATfSg0spF6yoOIfOhHOCcyI5kI/QYc4gOZEc5XnBZzdEFZdIFxI8kpKSh75fmLEBzly433k3rlASkuX1nFMUREuLFjadsCuYjnOpOoRzlkA7kOS8zovM6xOqRuQ2IHgif5pz/NOklgbgzI0zlpKOGYq3TCnHwyvjHmPhhAocYQZ0igYSK8JjVOaAGPnOAPmf0lh/TiRwGINYHn8J3niCy429CZl+i/S+hbM53xLgrgRPKBXEpwTlp0oM2I5YiNyFVEUbKIL80INKHOR4VIB3bHBwjyOXlFLvHaJMVwAcSSaCMP7Oiv8A1p/Sl590XDlomtBO8OX8x4Y8wXevvBrHGADd7yv/ALhZlnvHgfKOwfKYKLVZcqWWe8VvWP7WfsYY0BG1YUjQAzUsUnvFOxfeNlBh5eFwac18GIbB96hRt8z+tHlr7y/KEAWVY8ccV0jwz5lP5JhMWORQPI3bdwy2ArM/px4fmT+gx4HmZc0Qqq2VbfMw4JJaq4IRblCz91hdkD3hB5DZOsF3b4MzN79mbSg9pX/chzD0zog7pjeqXBs8YjUjj/GPYTXCs4Q/jxdunpiKVigfzR1cJq+bEr/Wf3pY3XAj/Rn72ZQCXN74JZNWIH/ZFGfOjFilTLfBjno+yz9qlMoqc1EXxuguBHD5hpyK/c2v5QDY07lwqrPmCLB8sJ07DNzTkRx6YpuMawbEKqXA9ip1HllHM92PW8xaC4CodWcm/Mu38jDKG1cWYCoDgw5jANl8xHWVWOmdXzKIjeH1wJTqocAi8zbREahty7caajYqdKEQE4qofZkqxVwliK06EeXOkThBDhDoEq4EYQAlGUlOUIqDT2QDlNg6QIESAtNpDRUdfaV6FiujmairtSomBudTR2jZd2ZtDK6NrHUAU8WgYgAgVHv3gIytC5SUNSpRopM46BipUOGGkdcqARJRAewlZRKgj0WBbgFeVQ0olED3k9h5RAjXL0eVEjiCks8psQ0tf0olaEYPNnwjSpUqVFz+8hYlXFVggODotnv/APTCJrdpmQkK0ZfWIE5j4MJcuDLYt/8AJouXF0dd99Gg6KM9h9MwBI8BYWlP1fCWLCj7Iy2bm/erqAlxAVaAywOwSeaQHNwg6GGy7EBVagMAE2hLICIs5KKyw1JdW9JcIxQlKRgyroaJjnEU5lag6uJuvQg0EGMGWUCWStlxukRPmZv7MCY+6WqGjHULBCXpa6c9BraTWpOkuwGly2PqNHVtiKTk7UPoBFnMz1ghxhuZk+8I2VoJj6es3oQobuGUIanckcRYgcwapi5QMGwL4CGEgITHYUgxjfR8q4r0BtS8eEGy46GHLu0WUYMTV0xCqBEAKu0dCCzCA3YrHpG56kBos0YOATe1TEm7D77Y3LIgKtAWzbELH2jQRslpvsWWBS2GfMdjYA8XwxDuD1EoMKBB7BoNens7TtoFxxFNuzX2Ea9ol3HGh7QSOUUk03I7FcEbE1X4MkUXSMbigEYJeJSuubxmw7Wr5Ru7HdlWaBj2Qa1DDDS4EVrlvKiFDeBsarGLbl1RMdRHUOVolIVS+O0sBixqLzfRqsWXW2up4ZlAFQUHaMp50AAcJwjtOr9wYsWAnywQkbOMSL1Fh4b3lz7BGFAK2qJgWzaOecEqRUcYEVDRKrjihFyC2dFiA20THNmb5YbHrh8BK0SVDdfAgCycWKyM1LQoRZ3c8Jg3aEOzCizBEje8Pvfmb6ooWRcNymEsYFQQsYlYJuhWIyioKu64+VxkUhN8Lm1A02++g1NnvNsqVo6e+Dq7xz7IaqreTNxzIStWL6LWEqMUQwMCbaJNqi+czJ0iZKKzBsAu8ybqZ7TFSoxbnG4cXCUHixIkjyKzAUj02ItoSZTZG1xskuUBLkyQdNkt779TBCNiSrsQ2j7S8bEGA4RXgvnOp4Mf3UQBSLBtMk/WJw0oexHmMsXFwBeNkHPAl1tBCHRd8ciDkmEAz3gmNmMQ3ylecBN2kSC8tEEE7ID3uxFdM6BW0VJXGIM3tntGOwGWb7xj15szLKWs35CQTjJquZzIONKzAJ7N02JUWo2gi4R3HwPuktQWzeMawFVtd6lfu+DAEO9GXTBo+GEUS4QyzlfCOgCyK7TnwjivUKSDj8EDwCnd9rCwKqZA4OWB8o7rAbDMcXfc7kxKUumCEdpj+vaDF0WU6rwo9mBDRIEwlCq6VoUJ/R0uEG2FArsqIE3tGZuAIjW4SsOzlCBwyGiBBlLQqE7xwNrmAYQpWBcAV+4FkZ4VXlgMEG0fnTa7Q0rMZYHQhxRAjLBjjKOksjkIAlViMaoXCUOUb8RFuCZyZhKOO8CCCHsmKliGELUTEc6S6gSiKkVAsCVUWoDDp9sFBpiO0dFx4IMXRSNvQ3SG0uLPgsGMCGjptL0TS9GGjcm6PFhxxBNhKQkBzgukANcWKzDcUB4EMqBVETlBKNRVbm1nUlCAZ4sNpmlSRyKTgQ66q9E8Te9X6myLDLQ2OJ1JC8wJOs4c94TTudkELwEdp3h2IdCjNr1fU4FODygJrDjC18bRkIqi+MWVcZMitxVEMFRUlcSlitHBV3gbPDsYGgwKeZfhncxUQq1iwane/ggGNiOxo1d2EsgOzabjyKcqm0UjFylWsKoLgHNUVhB0B2ptl6MkKowA0Zxe5KGiWBzgkQ65UqCYVuJ5leUGMuYjDr/SmUrEXAO1JUNlxjmuHtFIEIAbNkMGg+ytr2aBow6TEVUXeZ9D/JBnGXGDPa+nSlzNjDgqoTE2SlA5sqLFAFeMwUXzmMJskBQysJGF5twm/wCqK36RL06Rxz26nwn3CJmLQKIM82jx7EGDosUemagRb1KcAEpHGMqiVMlQdBPcpTEpKSSrJdpwjDqZk2ypGycvGmTPebY1I3rE3PSLER5y4LizjLhU7wMoGcShP6k3iUXKGRB9jK5X4vhlbUan/Hz+HN9TTc7RFYa1rXqZcVgsSXjuxbhOSlTmQ6LcvOFOPJCmnLB4GFIjyiCULlU1bqX5oabDLSIwHT2gNYy3hjTHmmy1XDhCckR5hAqbjksRUFm8FSdkQKGw4r9xiLuTJXAJYLW4yrDbxY67z9RQ1pTBkmRB0Ira9U5xuBOZYx2TLDsehPBYSAsgNaEqZPX6IxKwXnAgEmBN2RjLeIq9wlvlVtWDRCGMyN3/AFCLlsC9HtL+SBjQhBmcRCCBX54NkZSWQGSYfxHOE2MJ0PmNufKRL8ssygxvDgTDfyQn8qSbSTHQWz+BDCa+zNwb9oLkjc+gsEwLwzgKGB0CDzT4hZWWK/wx/wCdGVcZYrce8evhMq4DnEC51cQtb7unXQa7Vw6BcLgTzKeKchQ5uHM+Z1gpR18T9DP2s63zOp8ypp4JglPifePNzlNjivkgzdK+PzOS/MUZYxq3RoW6oFxzmMVN8t4/MCDXJMIH3nReZh2SiS5RIXYKgfDOhnRxBSI2koYyb+EvpTq8EpcHiDIgoxP6whxoIa5blL/eYPuZxfkgUNhWIJXizpSrgQwg5kQLhOlAeBLCgdoE4SnKeLm3BhH016WMVQ1ZjokElkXEPmmyNMRCVKQoiZSV9pcZbwnRnJoAWFDShg2AqdLRq4pEAOc67Lmy8xLbzSxz5ZYD77HFuZZXkbCudhIUEyD7Eta+NTDhx4csHNzgjv7SsymPRKrjtA7yXv5MQGiILvRJKgyTHNvaE+zS8DiwFzKezEo/ZN2QOke9ad5mpYHiUrTL24R4nmjfdEsM+acq5uwxjzwNX21n/WR/x7j/ANGJcW34En72G+az8kp+QzZW+WFjyt+TUVzmKbvlFOL5md3z1lZjk23gsCYg8SAWRM3/AKJ/OlDDCfAw5CdHH/nTpJaA/ghTVI8iBvYnSI8iIx7f4nSjySdCdKElW4PhhhARslOUGUf2bxEBylEQ5TFcxeISp0IDlKcoT22fGiHKUlEqcOuCUlEpK3ADnNCVlOUBAxMBt8oBAQEpymMG1orQKOIJSAlYiYtCoVKjpAVANFR47ocGZjXad5s0CCbcIamqs+PDQQYerjH0MXQcLDfvZkjkhZGVYk3jDYzFS5ehWQtwRlIloluk0WKu7MDWpuwgCMroaM8BYbQxKhDlCGVyzXCT4xK0vT3kT0WQK6n1waMT2+5SjRIkYsPW+GrCMpsP+TNWBCB/S48aEZZcy6Q+kKl67Z+wIMYaYnnn6egm2Y21Ioy2K/NrdaVgDHo+Gw12iHoJJBDX5ibUNDS/jhtpcuZdtNqCQdFaYKBB0WMXL0GOg7zZ6A47wtTeViVMPfBjRIx4oVUJjQjuanwxWNK9HHRdE0dRbNjEe6/cEtiR5O8ONBM0x0plKlEGJaC4xRXcw7xBzBNFFXfgyib4xao+NwihaWxY+LxYMaiRYZi92FPoO30h8Zo6WSlk8SybR2mZZ0x8MshpcoPrAubS4xxEP7WGjvCEWXK1VfYl6LBlLP1ubdDEolz9VyaY18uiq3qJt+Q+mhWu28NkdLIzd/bOq6Z09YcHooL1RWYHTjovh+5sntok+Ymz2NB1X4IJ6Nrs9B7R0M2Q2hiVGEYHpN4kZlHbK0zBgm2Xpc+6bNHRrNmEIzMDyQ29ExEIytMae0SGqXEiaESYoDjMzEdo8NTUdoSFEZUMA93TGhMad8g+iQBGKiuhkipxK7yjEpg6DBVVOEWETPv6lNGXZlQdowaVDl9HQhtMeqvzoosVjv8AYzDRdDTMeV9ghCwUvESXOm/zI7S4xZlq6XlqbNF1vb/YS4b6VAN0RgiykrR5+f0IxahhFi3dMurFkfpfoYvF/mbNSDyoKA5Qr0PDs+4Q0Z81H4tA0xLseSRY1I4tqBoz4UvRcNCM2foMw7bHiCw02SpXoVDziKgy702IUMpSOM4sbx50Q/NHhiPAZteq5boErR1GHDENgzwh/wA2KOTKVoj+TzuVGVDig0FijFrJggpslOcs5zZDYsXQwZOoaIlV9FRlTETHtxY3CNz70Gi5aK0zH35aXGIsxmLEDRcS44aly4mbI+3PwysQ3jmOJcj9GGCDHWtO+AjoWLc+H7k4MWZhFx/owUaVBKhp4FS0NMU/SkurjoGLMTygHRxLl8PC3tcRLly4pHlfD7tSkpKWQpcroGrozeeUuWSkpGJedfDFiDFlIhLmoVF8CWQHOCc4it5UZcNQucOdKaDOwgG6V5zqEeUl9mYJAw5OdBDhJOZIkW8Mp7xHjOvLDCwt1ggzaB+EdBgHhHBXeAGcDt84X194NwEcAHYJyK8QYfoJS2toKDYnNlb/AKRMXYWwyYlDdJ09MjQ1xoegdK1UeKHDDJMygib4hB0VXA0FbEuCJ5R5JTs5dea41Rsph4Ke8VwhKN4UwlckVXjj1JdXaGHHGIXll2VqZK+rMOc1Bk5BmCxTuJ0ceVlkpRcFNkeSjyUS3JEGzzN0JlD/ALE/tTmpP70pIHpCVN0Tp/MRymPJTkiFYcWPM5VOmnDp5iL3ICZENYLVfdnRTLsnNGgqkC3+IpjL+hpDbWfvBM+aZt4i/eV7kjxzKbxl3DB9rTnmK+7EDK+IPdfCZd2+zO74g2mAvaFrZErehnmUJFEPC17RoUn3lHF5h/fLOHzFg6mB4LjK4iRxib5JO45D4ROF0Dfg+0OIfYiLohhTHnRFuBOvwJuKZIWRlAn3Medn9SEKw1c38Syf6S1f6S6UrzAPzRacu0w6i97S3NFc3mdzLhV3THvG/FhzGHUlbQ4SwIR5jKGbiyvhKsASrCRlRWErOLHlwag7tEHhOlHkwvlQHhodFOjCQrbSnKZNpWB5TEREQuUR5GgJRKivsQm84RCLXMVdwmx/4XLl+itF1Qpbz0JGFJgRb0uFnLxBhLVp00ITFCUQl0JyMYAj1lUnTlvCcoS6xoA5EeMTlCXGxDhXOWTpS6Ic3MW0Tt4ydGcetDpQbUlFCjZFdydIicZUQH4J04cojLlMetG+bkXcEW4EC2EIqBYeWJMiU8M4oZ/Ei134JSkOP5hVsRTghy0OWR5EVfn9g0AgbhOjDSnBfDCS5SU5Sk7JmHInwZSpSUEKlT9nCBcolaKr0kLGC/W4bem67/ZhrcogXo+JFcq1IQff8wcaVpj3WlUNRGBCBKlqO8ONSbHtNsxCoxI8HWU09o6TaaVoc90tFSpUQddZsgacJijoTZDThAPcwgRmdepAhL9VPKDLgy4MYsYMT5EWMZtmw0uLQxbeNarRFcCoLEjNnpmyYdyXqBqqhl2oS4sWV9hiuY0qHDEJ3JeYbSojFYw4dtWIVEaODhqEMaUqU7n2MNEiT9DySql6OjAPZ8w1GXNv9MxNCkuX28ZYmpoeDv8AUl1LjBmfd+0GENbU9byIsvRYqcm8em36G8NCMDdygytd7tF6T9/rNutzLtTb0NHEN3rFiDDRlW5xY1qOiHj0Mr72mtGfAixpWmb3w6HRnvsWNWZe1DbVVK+8w0YsI26HpuLlsHS5mI84zBTA9SNxjNm0wQwmIsTZekxFi3HAxaC67+OLRYsOfrDRipkR+BGLhEzPvIUIQaIWnmqM2bTjGEtHhjRZx0qBL0wzYzD3/uWxZcdFSx0WpaXG1OR+YvRei5c/620SNx9Y4hUEdOEwe9x9COp3jfd+026sVjZ3j9dAx0Mi/S5t0FFsCsofGm/pGlzL3vR2iygoGuNdNiGl6I1OpHaGF10GqxJFIaLm7Fy0GOfRy9djtpMRI6Gz0LD0ZgEs0WZt6GhptnyIME0WDom3UhrUuDLgy9GM2MHrdos3k8WyPC+EWbY8YSyYmQxUNCxbuOiMiRmYcOi6kPQ6l6LmfEnxUYMuotjD43RxBi26TvvCOhcWICb0nCl7Rg06bL97+hmQyzssO8NtWK/e9BDFhEydJA5jBnHR/s8UdtGYRoU4nBsly9Ln6bkg6EUofoeWY0gy2LFxMOrj4jCOmETZLl0HOD3hRcUGE6UOqoecYoMuXHhmLLvQjP3us2noHffTI6Gj6CGmzSL0uI9pmxoOnCPzYJUvroWI9rUV5zovMHdN4YMk6SdBHhGI5AgDK+GPK8ZXhCy/nSKCbGFi5ciGTNMSNniWnZnlp1eIl2/ni5TbNvo4RqGn/9k=;" vertex="1" parent="1">
                    <mxGeometry width="1578" height="608" as="geometry"/>
                </mxCell>
            </root>
        </mxGraphModel>
    </diagram>
</mxfile>